<svg width="37" height="28" viewBox="0 0 37 28" fill="none" xmlns="http://www.w3.org/2000/svg">
<path d="M16.0424 25.1654H4.06077C3.41754 25.1645 2.80092 24.9059 2.34609 24.4463C1.89127 23.9867 1.63536 23.3636 1.63448 22.7136C1.62956 22.6609 1.63558 22.6078 1.65216 22.5576C1.66873 22.5074 1.69551 22.4612 1.73075 22.4221C1.766 22.383 1.80895 22.3517 1.85685 22.3303C1.90474 22.3089 1.95654 22.2978 2.0089 22.2978C2.06127 22.2978 2.11306 22.3089 2.16096 22.3303C2.20886 22.3517 2.25181 22.383 2.28705 22.4221C2.3223 22.4612 2.34907 22.5074 2.36565 22.5576C2.38223 22.6078 2.38825 22.6609 2.38333 22.7136C2.38333 23.1596 2.55866 23.5873 2.87074 23.9027C3.18282 24.2181 3.6061 24.3952 4.04745 24.3952H16.0424C16.4838 24.3952 16.9071 24.2181 17.2191 23.9027C17.5312 23.5873 17.7066 23.1596 17.7066 22.7136C17.7016 22.6609 17.7077 22.6078 17.7242 22.5576C17.7408 22.5074 17.7676 22.4612 17.8028 22.4221C17.8381 22.383 17.881 22.3517 17.9289 22.3303C17.9768 22.3089 18.0286 22.2978 18.081 22.2978C18.1334 22.2978 18.1851 22.3089 18.233 22.3303C18.2809 22.3517 18.3239 22.383 18.3591 22.4221C18.3944 22.4612 18.4212 22.5074 18.4377 22.5576C18.4543 22.6078 18.4603 22.6609 18.4554 22.7136C18.4545 23.3613 18.2005 23.9824 17.7485 24.4416C17.2966 24.9008 16.6833 25.161 16.0424 25.1654Z" fill="#31414B"/>
<path d="M18.5548 13.6125C18.4553 13.6116 18.3602 13.5713 18.2898 13.5002C18.2195 13.4292 18.1796 13.333 18.1787 13.2325C18.1787 9.98354 14.5176 7.34337 10.0345 7.34337C5.70777 7.34337 2.17983 9.78175 1.90692 12.8524H16.4879C16.5877 12.8524 16.6834 12.8925 16.7539 12.9637C16.8244 13.035 16.864 13.1317 16.864 13.2325C16.864 13.3333 16.8244 13.4299 16.7539 13.5012C16.6834 13.5725 16.5877 13.6125 16.4879 13.6125H1.51086C1.41138 13.6116 1.31622 13.5713 1.24588 13.5002C1.17554 13.4292 1.13563 13.333 1.13477 13.2325C1.13477 11.4331 2.07666 9.75148 3.79736 8.49361C5.63124 7.20692 7.81888 6.53514 10.0511 6.57318C12.2789 6.5343 14.4626 7.20243 16.2949 8.48352C18.0056 9.74139 18.9575 11.423 18.9575 13.2224C18.9585 13.2753 18.9487 13.3279 18.9286 13.3769C18.9085 13.4258 18.8786 13.47 18.8407 13.5066C18.8029 13.5433 18.7579 13.5716 18.7087 13.5898C18.6595 13.6081 18.6071 13.6158 18.5548 13.6125Z" fill="#31414B"/>
<path d="M12.9567 20.4669C12.9038 20.4669 12.8515 20.4555 12.8033 20.4334C12.7551 20.4114 12.712 20.3793 12.6771 20.3391C10.8699 18.2976 8.84628 17.2617 6.6563 17.2617H2.66241C2.5592 17.2548 2.45568 17.2693 2.35826 17.3045C2.26085 17.3396 2.17161 17.3946 2.09609 17.466C2.02056 17.5375 1.96035 17.6238 1.91918 17.7197C1.87802 17.8156 1.85678 17.919 1.85678 18.0235C1.85678 18.128 1.87802 18.2314 1.91918 18.3273C1.96035 18.4232 2.02056 18.5096 2.09609 18.581C2.17161 18.6524 2.26085 18.7074 2.35826 18.7425C2.45568 18.7777 2.5592 18.7922 2.66241 18.7853H8.89953C8.99928 18.7853 9.09494 18.8253 9.16547 18.8966C9.236 18.9679 9.27562 19.0645 9.27562 19.1653C9.27562 19.2661 9.236 19.3628 9.16547 19.4341C9.09494 19.5053 8.99928 19.5454 8.89953 19.5454H2.64577C2.43456 19.5701 2.22058 19.5493 2.01787 19.4846C1.81515 19.4198 1.62829 19.3124 1.46955 19.1695C1.31081 19.0265 1.18378 18.8513 1.09679 18.6552C1.00981 18.4592 0.964844 18.2468 0.964844 18.0319C0.964844 17.8171 1.00981 17.6046 1.09679 17.4086C1.18378 17.2126 1.31081 17.0373 1.46955 16.8944C1.62829 16.7515 1.81515 16.6441 2.01787 16.5793C2.22058 16.5145 2.43456 16.4938 2.64577 16.5184H6.63966C8.9195 16.5184 11.0196 17.5274 12.8934 19.4949C13.9518 17.9377 15.1666 16.5184 16.9705 16.5184H17.4398C17.651 16.4938 17.865 16.5145 18.0677 16.5793C18.2704 16.6441 18.4573 16.7515 18.616 16.8944C18.7748 17.0373 18.9018 17.2126 18.9888 17.4086C19.0758 17.6046 19.1207 17.8171 19.1207 18.0319C19.1207 18.2468 19.0758 18.4592 18.9888 18.6552C18.9018 18.8513 18.7748 19.0265 18.616 19.1695C18.4573 19.3124 18.2704 19.4198 18.0677 19.4846C17.865 19.5493 17.651 19.5701 17.4398 19.5454H13.7787C13.609 19.7808 13.4459 20.0331 13.2629 20.2988C13.2305 20.3465 13.188 20.3863 13.1385 20.4154C13.089 20.4445 13.0337 20.4621 12.9766 20.4669H12.9567ZM14.3712 18.7853H17.4564C17.5597 18.7922 17.6632 18.7777 17.7606 18.7425C17.858 18.7074 17.9472 18.6524 18.0228 18.581C18.0983 18.5096 18.1585 18.4232 18.1997 18.3273C18.2408 18.2314 18.2621 18.128 18.2621 18.0235C18.2621 17.919 18.2408 17.8156 18.1997 17.7197C18.1585 17.6238 18.0983 17.5375 18.0228 17.466C17.9472 17.3946 17.858 17.3396 17.7606 17.3045C17.6632 17.2693 17.5597 17.2548 17.4564 17.2617H16.9872C15.9953 17.2617 15.1833 17.82 14.3778 18.7853H14.3712Z" fill="#31414B"/>
<path d="M6.44675 15.4993H2.52941C2.42967 15.4993 2.33401 15.4593 2.26347 15.388C2.19294 15.3168 2.15332 15.2201 2.15332 15.1193C2.15332 15.0185 2.19294 14.9218 2.26347 14.8506C2.33401 14.7793 2.42967 14.7393 2.52941 14.7393H6.44675C6.5465 14.7393 6.64216 14.7793 6.71269 14.8506C6.78322 14.9218 6.82285 15.0185 6.82285 15.1193C6.82285 15.2201 6.78322 15.3168 6.71269 15.388C6.64216 15.4593 6.5465 15.4993 6.44675 15.4993Z" fill="#31414B"/>
<path d="M17.5402 15.4993H8.65051C8.55076 15.4993 8.4551 15.4593 8.38457 15.388C8.31404 15.3168 8.27441 15.2201 8.27441 15.1193C8.27441 15.0185 8.31404 14.9218 8.38457 14.8506C8.4551 14.7793 8.55076 14.7393 8.65051 14.7393H17.5402C17.64 14.7393 17.7356 14.7793 17.8062 14.8506C17.8767 14.9218 17.9163 15.0185 17.9163 15.1193C17.9163 15.2201 17.8767 15.3168 17.8062 15.388C17.7356 15.4593 17.64 15.4993 17.5402 15.4993Z" fill="#31414B"/>
<path d="M5.05965 10.478C4.93839 10.478 4.81986 10.5144 4.71908 10.5825C4.6183 10.6507 4.53981 10.7475 4.49356 10.8608C4.44731 10.9741 4.43538 11.0987 4.45928 11.2188C4.48318 11.339 4.54184 11.4492 4.62781 11.5356C4.71379 11.6221 4.82322 11.6807 4.94223 11.7042C5.06124 11.7277 5.18448 11.715 5.29632 11.6676C5.40816 11.6203 5.50357 11.5404 5.57046 11.4382C5.63735 11.336 5.67271 11.216 5.67205 11.0935C5.67205 11.0124 5.65619 10.9321 5.62537 10.8572C5.59455 10.7823 5.54939 10.7143 5.49248 10.6571C5.43557 10.5999 5.36803 10.5546 5.29375 10.5239C5.21947 10.4932 5.13992 10.4776 5.05965 10.478Z" fill="#31414B"/>
<path d="M7.05713 8.59792C6.93587 8.59726 6.81714 8.63299 6.716 8.70058C6.61485 8.76817 6.53585 8.86459 6.48898 8.97761C6.44212 9.09063 6.42952 9.21516 6.45277 9.33542C6.47602 9.45569 6.53408 9.56627 6.61959 9.65315C6.70511 9.74004 6.81422 9.79931 6.9331 9.82346C7.05198 9.84761 7.17529 9.83556 7.28738 9.78882C7.39948 9.74208 7.49532 9.66277 7.56275 9.56093C7.63019 9.45909 7.6662 9.33931 7.6662 9.21677C7.6662 9.05322 7.60214 8.89633 7.48801 8.78037C7.37388 8.66441 7.21897 8.59881 7.05713 8.59792Z" fill="#31414B"/>
<path d="M9.43307 9.85245C9.31305 9.85444 9.19629 9.89222 9.09745 9.96105C8.99861 10.0299 8.9221 10.1267 8.87753 10.2393C8.83296 10.3519 8.82231 10.4754 8.84693 10.5941C8.87155 10.7128 8.93033 10.8215 9.01589 10.9066C9.10146 10.9917 9.20999 11.0493 9.32786 11.0722C9.44572 11.0952 9.56767 11.0824 9.67838 11.0355C9.7891 10.9887 9.88364 10.9098 9.95013 10.8088C10.0166 10.7078 10.0521 10.5892 10.0521 10.4679C10.0517 10.3864 10.0353 10.3057 10.0039 10.2306C9.97253 10.1554 9.92676 10.0873 9.86923 10.0301C9.8117 9.97293 9.74355 9.92779 9.6687 9.8973C9.59385 9.8668 9.51377 9.85157 9.43307 9.85245Z" fill="#31414B"/>
<path d="M15.4331 10.478C15.3117 10.4773 15.1928 10.5132 15.0916 10.5809C14.9904 10.6486 14.9114 10.7453 14.8646 10.8585C14.8179 10.9717 14.8055 11.0964 14.829 11.2168C14.8525 11.3371 14.9109 11.4477 14.9968 11.5345C15.0826 11.6212 15.192 11.6802 15.3111 11.704C15.4302 11.7278 15.5536 11.7152 15.6657 11.668C15.7777 11.6207 15.8733 11.5409 15.9404 11.4386C16.0074 11.3363 16.0428 11.2162 16.0422 11.0935C16.0422 10.9303 15.978 10.7737 15.8638 10.6583C15.7496 10.5429 15.5946 10.478 15.4331 10.478Z" fill="#31414B"/>
<path d="M13.8957 22.7943C13.0786 22.7925 12.2953 22.4649 11.7157 21.8828C11.4988 21.6591 11.2399 21.4814 10.9542 21.36C10.6684 21.2387 10.3616 21.1762 10.0516 21.1762C9.74167 21.1762 9.43484 21.2387 9.14909 21.36C8.86334 21.4814 8.60442 21.6591 8.3875 21.8828C7.8069 22.4663 7.02135 22.7939 6.20251 22.7939C5.38367 22.7939 4.59812 22.4663 4.01752 21.8828C3.8006 21.6591 3.54168 21.4814 3.25593 21.36C2.97018 21.2387 2.66335 21.1762 2.3534 21.1762C2.04345 21.1762 1.73661 21.2387 1.45086 21.36C1.16511 21.4814 0.906196 21.6591 0.689275 21.8828C0.658107 21.9302 0.616813 21.9699 0.56844 21.999C0.520067 22.0281 0.465848 22.0458 0.409782 22.0509C0.353715 22.056 0.297232 22.0483 0.244498 22.0284C0.191763 22.0085 0.144123 21.9769 0.105091 21.9359C0.0660586 21.8949 0.0366296 21.8456 0.0189749 21.7916C0.00132014 21.7376 -0.00411025 21.6803 0.00308427 21.6238C0.0102788 21.5674 0.0299146 21.5134 0.0605436 21.4656C0.0911726 21.4179 0.132014 21.3777 0.180054 21.3481C0.760655 20.7646 1.54621 20.4371 2.36505 20.4371C3.18389 20.4371 3.96944 20.7646 4.55004 21.3481C4.76696 21.5718 5.02587 21.7495 5.31162 21.8709C5.59737 21.9922 5.90421 22.0547 6.21416 22.0547C6.52411 22.0547 6.83095 21.9922 7.11669 21.8709C7.40244 21.7495 7.66136 21.5718 7.87828 21.3481C8.45945 20.7644 9.24555 20.4368 10.0649 20.4368C10.8843 20.4368 11.6704 20.7644 12.2516 21.3481C12.4685 21.5718 12.7274 21.7495 13.0132 21.8709C13.2989 21.9922 13.6058 22.0547 13.9157 22.0547C14.2257 22.0547 14.5325 21.9922 14.8182 21.8709C15.104 21.7495 15.3629 21.5718 15.5798 21.3481C16.1604 20.7646 16.946 20.4371 17.7648 20.4371C18.5837 20.4371 19.3692 20.7646 19.9498 21.3481C19.9886 21.3821 20.02 21.4237 20.0423 21.4705C20.0645 21.5172 20.077 21.5681 20.0791 21.6199C20.0811 21.6717 20.0727 21.7234 20.0542 21.7718C20.0357 21.8202 20.0077 21.8643 19.9717 21.9013C19.9358 21.9383 19.8927 21.9675 19.8452 21.9871C19.7976 22.0066 19.7466 22.0162 19.6953 22.0151C19.644 22.014 19.5935 22.0023 19.5468 21.9807C19.5001 21.9591 19.4583 21.9281 19.424 21.8896C19.207 21.6658 18.9481 21.4881 18.6624 21.3668C18.3766 21.2454 18.0698 21.1829 17.7598 21.1829C17.4499 21.1829 17.143 21.2454 16.8573 21.3668C16.5715 21.4881 16.3126 21.6658 16.0957 21.8896C15.8062 22.1796 15.4628 22.4089 15.0852 22.5642C14.7076 22.7194 14.3034 22.7977 13.8957 22.7943Z" fill="#31414B"/>
<path d="M34.4005 27.402H25.6439C25.5357 27.4025 25.4313 27.362 25.3512 27.2885C25.2711 27.2151 25.2212 27.114 25.2112 27.0052L24.1794 16.0039C24.1631 15.942 24.1604 15.8773 24.1715 15.8143C24.1827 15.7513 24.2073 15.6916 24.2438 15.6393C24.2803 15.587 24.3277 15.5434 24.3827 15.5116C24.4376 15.4798 24.4989 15.4606 24.562 15.4554C24.6251 15.4501 24.6886 15.459 24.7479 15.4812C24.8073 15.5035 24.8611 15.5386 24.9056 15.5842C24.9501 15.6298 24.9841 15.6846 25.0053 15.745C25.0264 15.8053 25.0342 15.8695 25.0281 15.9332L26.0266 26.5343H34.0144L35.2225 14.5106H23.4639C23.4002 14.511 23.3373 14.4971 23.2797 14.4697C23.2221 14.4423 23.1713 14.4023 23.131 14.3525C23.0899 14.3021 23.0605 14.243 23.0449 14.1795C23.0294 14.1161 23.0281 14.0499 23.0412 13.9859L23.6236 11.0565C23.6428 10.9573 23.6955 10.868 23.7725 10.8036C23.8496 10.7392 23.9463 10.7038 24.0463 10.7034H36.0113C36.1117 10.7037 36.2089 10.739 36.2865 10.8033C36.3642 10.8676 36.4174 10.9571 36.4374 11.0565L36.6836 12.3009C36.6948 12.3572 36.6948 12.4152 36.6838 12.4715C36.6728 12.5279 36.6509 12.5815 36.6194 12.6292C36.5878 12.677 36.5473 12.7181 36.5001 12.75C36.4529 12.782 36.3999 12.8042 36.3442 12.8155C36.2884 12.8268 36.2311 12.8268 36.1753 12.8157C36.1196 12.8045 36.0665 12.7824 36.0192 12.7505C35.972 12.7187 35.9313 12.6777 35.8997 12.63C35.8681 12.5823 35.8461 12.5287 35.8349 12.4724L35.6552 11.5812H24.4024L23.9964 13.6361H35.6952C35.7577 13.6343 35.8199 13.6462 35.8774 13.6712C35.9349 13.6962 35.9863 13.7336 36.028 13.7807C36.0692 13.8255 36.1004 13.8787 36.1193 13.9368C36.1383 13.9948 36.1446 14.0563 36.1378 14.1171L34.8431 27.0152C34.8299 27.1237 34.7773 27.2233 34.6955 27.2948C34.6137 27.3663 34.5086 27.4045 34.4005 27.402Z" fill="#31414B"/>
<path d="M35.014 11.5946C34.9199 11.5952 34.8283 11.5646 34.7531 11.5075C34.678 11.4504 34.6235 11.3699 34.5979 11.2784L34.0721 9.43538H25.6616C25.553 9.42577 25.4519 9.37536 25.3782 9.29411C25.3045 9.21286 25.2637 9.10667 25.2637 8.99648C25.2637 8.88628 25.3045 8.78009 25.3782 8.69884C25.4519 8.6176 25.553 8.56719 25.6616 8.55757H34.3816C34.4759 8.55733 34.5678 8.58801 34.6434 8.64502C34.719 8.70202 34.7743 8.78227 34.801 8.87372L35.4134 11.0329C35.4453 11.1449 35.4321 11.265 35.3766 11.3671C35.3211 11.4693 35.2278 11.545 35.1172 11.5778C35.0834 11.587 35.0489 11.5927 35.014 11.5946Z" fill="#31414B"/>
<path d="M34.8339 23.1038H27.5118C27.397 23.1038 27.287 23.0577 27.2058 22.9757C27.1247 22.8937 27.0791 22.7825 27.0791 22.6665C27.0791 22.5506 27.1247 22.4394 27.2058 22.3574C27.287 22.2754 27.397 22.2293 27.5118 22.2293H34.8339C34.9487 22.2293 35.0587 22.2754 35.1398 22.3574C35.221 22.4394 35.2666 22.5506 35.2666 22.6665C35.2666 22.7825 35.221 22.8937 35.1398 22.9757C35.0587 23.0577 34.9487 23.1038 34.8339 23.1038Z" fill="#31414B"/>
<path d="M29.8549 9.42192C29.7487 9.42119 29.6464 9.38161 29.5669 9.3105C29.4873 9.23939 29.4359 9.14157 29.4223 9.03515L28.6734 2.64494L25.7545 0.922947C25.7053 0.894074 25.6622 0.855667 25.6277 0.809931C25.5932 0.764195 25.5679 0.712027 25.5534 0.656414C25.5389 0.600802 25.5353 0.542842 25.543 0.485849C25.5507 0.428856 25.5694 0.373953 25.5981 0.324285C25.6264 0.274204 25.6642 0.230312 25.7094 0.195176C25.7547 0.16004 25.8064 0.134366 25.8615 0.119649C25.9167 0.104933 25.9742 0.101468 26.0307 0.109462C26.0872 0.117457 26.1415 0.136751 26.1905 0.166211L29.2991 1.99583C29.358 2.03139 29.4079 2.08028 29.4448 2.13864C29.4818 2.19701 29.5048 2.26325 29.5121 2.33216L30.2843 8.93089C30.2913 8.98811 30.287 9.04616 30.2716 9.1017C30.2563 9.15724 30.2303 9.20917 30.195 9.2545C30.1597 9.29982 30.1159 9.33766 30.0661 9.36581C30.0164 9.39397 29.9615 9.41189 29.9049 9.41856L29.8549 9.42192Z" fill="#31414B"/>
</svg>
