<svg width="29" height="26" viewBox="0 0 29 26" fill="none" xmlns="http://www.w3.org/2000/svg">
<path d="M24.9952 25.6013H17.4137C17.0988 25.6013 16.8434 25.3459 16.8434 25.031V19.3761H13.0833V25.031C13.0833 25.3459 12.828 25.6013 12.5131 25.6013H4.93156C4.61664 25.6013 4.36133 25.3459 4.36133 25.031V10.9578C4.36133 10.7577 4.46613 10.5723 4.63756 10.4691L14.6694 4.43206C14.8502 4.32326 15.0766 4.32326 15.2575 4.43206L25.2892 10.4691C25.4606 10.5723 25.5654 10.7577 25.5654 10.9578V25.0311C25.5654 25.3459 25.31 25.6013 24.9952 25.6013ZM17.984 24.4608H24.4249V11.2802L14.9634 5.58629L5.50184 11.2802V24.4608H11.9428V18.8059C11.9428 18.491 12.1981 18.2357 12.513 18.2357H17.4136C17.7286 18.2357 17.9839 18.491 17.9839 18.8059V24.4608H17.984Z" fill="#31414B"/>
<path d="M28.392 9.62114C28.292 9.62114 28.1906 9.59474 28.0985 9.53936L14.9629 1.63445L1.82727 9.53936C1.55738 9.70171 1.20698 9.61468 1.04464 9.34479C0.882239 9.07491 0.969324 8.72456 1.23921 8.56217L14.6689 0.480282C14.8497 0.371482 15.0761 0.371482 15.2569 0.480282L28.6866 8.56217C28.9565 8.72456 29.0436 9.07496 28.8812 9.34479C28.7741 9.52262 28.5854 9.62114 28.392 9.62114Z" fill="#31414B"/>
</svg>
