<svg width="35" height="28" viewBox="0 0 35 28" fill="none" xmlns="http://www.w3.org/2000/svg">
<path d="M34.5452 26.8708H0.303711V27.2604H34.5452V26.8708Z" fill="#31414B"/>
<path d="M34.5457 27.2605L31.7087 26.0011C31.6671 25.8524 31.6255 25.7041 31.584 25.556L34.5457 26.8708" fill="#31414B"/>
<path d="M18.6439 8.45168V7.23598C18.6438 7.06841 18.5859 6.90615 18.4801 6.77739C18.3744 6.64863 18.2275 6.56151 18.0649 6.53115V0.989471H17.8088V6.53115C17.6459 6.56114 17.4986 6.64812 17.3925 6.77691C17.2864 6.9057 17.2283 7.06816 17.2281 7.23598V8.45168C16.6074 8.61126 16.0568 8.97617 15.6635 9.48867C15.2702 10.0012 15.0567 10.632 15.0566 11.2814H20.8137C20.8137 10.6322 20.6004 10.0016 20.2075 9.48911C19.8145 8.97663 19.2643 8.61159 18.6439 8.45168Z" fill="#31414B"/>
<path d="M17.9111 12.2542C18.1416 12.2542 18.3647 12.1723 18.5417 12.0226C18.7186 11.8729 18.8382 11.665 18.8795 11.4351H16.9424C16.9838 11.665 17.1034 11.8729 17.2804 12.0226C17.4574 12.1723 17.6806 12.2543 17.9111 12.2542Z" fill="#31414B"/>
<path d="M2.02344 20.4156V24.9317H9.61976V20.4156H2.02344ZM9.16463 24.4697H2.47857V20.8763H9.16463V24.4697Z" fill="#31414B"/>
<path d="M6.95516 22.1089H4.68848V22.663H6.95516V22.1089Z" fill="#31414B"/>
<path d="M6.04888 17.7803H5.59375V20.0788H6.04888V17.7803Z" fill="#31414B"/>
<path d="M3.34277 26.395L3.80772 24.4896L4.32434 24.6697L3.53576 26.4626L3.34277 26.395Z" fill="#31414B"/>
<path d="M8.10791 26.4626L7.31934 24.6697L7.83595 24.4896L8.3009 26.395L8.10791 26.4626Z" fill="#31414B"/>
<path d="M7.31331 19.7493H4.33105V20.6464H7.31331V19.7493Z" fill="#31414B"/>
<path d="M6.75604 15.7632H4.88684L4.0957 18.1193H7.54718L6.75604 15.7632ZM4.73186 17.6578L5.21346 16.2252H6.43028L6.91102 17.6578H4.73186Z" fill="#31414B"/>
<path d="M32.9158 18.2154V18.2046C32.862 17.824 32.7126 17.5729 32.4722 17.4582C32.2318 17.3435 31.9599 17.4075 31.7831 17.4777C31.7372 17.4236 31.6819 17.3784 31.62 17.3443C31.3271 17.1798 30.8669 17.2144 30.2504 17.4534C30.1678 17.3704 30.0645 17.3117 29.9515 17.2837C29.5066 17.1655 28.9016 17.4474 28.6138 17.6037C28.4696 17.5154 28.3103 17.4554 28.1442 17.4266C27.8453 17.3738 27.3945 17.4062 26.9201 17.8465C26.4266 17.76 26.0359 17.8141 25.7575 18.0072C25.6406 18.087 25.5448 18.1946 25.4783 18.3206C25.1841 18.2539 24.9258 18.2864 24.7098 18.4198C24.5589 18.5162 24.4408 18.6574 24.3717 18.8241C24.2863 19.0298 24.2863 19.2103 24.3798 19.3766C24.4186 19.4458 24.457 19.5186 24.4933 19.593C24.5612 19.7312 24.6274 19.8792 24.6949 20.0472C24.8082 20.3331 24.9071 20.6247 24.9912 20.9209C25.0518 21.1339 25.1026 21.3326 25.1461 21.527C25.1521 21.5538 25.1577 21.5798 25.1637 21.6071C25.1248 21.7713 25.1288 21.9429 25.1752 22.105C25.1767 22.1106 25.1785 22.1161 25.1807 22.1214C25.2529 22.3682 25.3613 22.6457 25.705 22.8618L24.5715 26.2972L24.4963 26.5249C24.4801 26.5718 24.4826 26.6234 24.5035 26.6684C24.5243 26.7134 24.5618 26.7483 24.6078 26.7656C24.6278 26.7725 24.6489 26.7761 24.6701 26.776C24.7072 26.7755 24.7433 26.7638 24.7738 26.7422C24.8043 26.7207 24.8276 26.6904 24.8409 26.6552L24.9805 26.2972L26.2618 23.0176C26.4612 23.0696 26.81 23.1531 27.4688 23.2138L27.3313 25.6815C27.3268 25.7308 27.3416 25.7799 27.3727 25.8181C27.4037 25.8563 27.4484 25.8805 27.4969 25.8854C27.5032 25.8859 27.5095 25.8859 27.5157 25.8854C27.5616 25.8859 27.6059 25.8689 27.64 25.8378C27.674 25.8067 27.6954 25.7637 27.6997 25.7175L27.9815 23.2423C28.195 23.257 28.3658 23.2666 28.604 23.2696L28.8175 26.2954L28.8559 26.8496H29.2427L29.2146 26.2954L29.06 23.2692C29.4315 23.2635 29.7495 23.2423 30.2337 23.1908L31.3438 26.2954L31.4223 26.5158C31.4338 26.5511 31.4554 26.5822 31.4843 26.6051C31.5132 26.628 31.5481 26.6417 31.5847 26.6444C31.6213 26.6471 31.6578 26.6388 31.6897 26.6204C31.7216 26.6021 31.7474 26.5746 31.7639 26.5414C31.7859 26.4977 31.7899 26.4469 31.775 26.4002L31.7438 26.2954L30.7956 23.0821C30.9856 22.9631 31.4287 22.6232 31.6794 21.9132C31.7623 21.6707 31.8594 21.4335 31.9701 21.2027C32.269 20.5884 32.7924 19.3878 32.9154 18.2475V18.2267C32.9162 18.2254 32.9162 18.2202 32.9158 18.2154ZM30.314 17.8305C31.0201 17.547 31.3194 17.6076 31.4347 17.6695C31.4439 17.6743 31.4528 17.6798 31.4612 17.6859C30.784 18.292 30.3656 19.1934 30.1312 19.8567C29.9918 20.2522 29.8806 20.6573 29.7986 21.0689L29.7086 21.0577C29.5664 19.251 30.1829 18.0613 30.314 17.8305ZM28.4042 17.9115C28.2945 18.6605 28.2659 20.326 28.2591 20.9737C28.0503 20.9668 27.8197 20.9603 27.561 20.9546C27.6092 19.6766 27.2941 18.4618 27.1917 18.105C27.7348 17.6154 28.2091 17.7972 28.4042 17.9115ZM25.4642 21.2426C25.3528 20.7845 25.1107 19.9238 24.7171 19.2134C24.6991 19.1816 24.6897 19.1456 24.6897 19.109C24.6896 19.0857 24.6933 19.0626 24.7008 19.0406C24.7369 18.9177 24.8119 18.8102 24.9143 18.7349C24.9973 18.6831 25.0935 18.657 25.191 18.66C25.2851 18.6616 25.3786 18.6762 25.4689 18.7033C25.6064 18.9523 26.2208 20.1026 26.2976 20.9572C26.0829 20.9871 25.7302 21.0612 25.4642 21.2426ZM25.527 21.6941C25.6978 21.4344 26.2293 21.3313 26.4945 21.314H26.5401C26.658 21.314 26.9709 21.3183 27.365 21.3257C27.7424 21.333 28.1007 21.3426 28.4324 21.3547L29.5211 21.4166C29.5933 21.4231 29.6603 21.43 29.7192 21.4378C29.6765 21.6197 29.6377 21.8088 29.6031 22.0032C29.0306 22.0141 26.4407 22.0526 25.5125 21.8959C25.5053 21.8283 25.5102 21.7599 25.527 21.6941ZM32.2575 19.5108C32.1406 19.8739 32.0051 20.2305 31.8514 20.5793C31.7951 20.7092 31.7323 20.836 31.6725 20.9607C31.6345 21.0391 31.5961 21.1174 31.5598 21.1958C31.5022 21.3192 31.4548 21.4469 31.4091 21.5703C31.3758 21.6599 31.3416 21.7521 31.3049 21.84C31.2428 21.9862 31.1632 22.124 31.068 22.2505C30.9274 22.4373 30.7552 22.5974 30.5595 22.7232C30.524 22.7462 30.4907 22.7665 30.457 22.7847C30.4498 22.7886 30.4428 22.793 30.4361 22.7977L30.4228 22.8055C29.9019 22.8638 29.3783 22.894 28.8542 22.896H28.7859C27.2275 22.8934 26.2216 22.6284 26.1089 22.5972C25.9579 22.5233 25.8211 22.4226 25.705 22.2998C26.9112 22.4353 29.4571 22.3825 29.7645 22.3751C29.8074 22.3741 29.8487 22.358 29.8812 22.3295C29.9137 22.3009 29.9354 22.2618 29.9425 22.2188C30.3059 20.0442 31.0526 19.1259 31.611 18.738C31.8795 18.5463 32.1946 18.433 32.5222 18.4102C32.4633 18.7837 32.3748 19.1518 32.2575 19.5108Z" fill="#31414B"/>
<path d="M23.5017 21.9309C23.5017 21.9258 23.5017 21.921 23.5017 21.9162C23.5017 21.7993 23.3766 21.743 22.9894 21.6872C22.7114 21.6465 22.3144 21.6106 21.8093 21.579C20.9417 21.5261 19.8342 21.4924 18.6362 21.4828L18.5935 21.6807C21.0425 21.6985 22.6495 21.8106 23.1619 21.9162C22.6043 22.0288 20.7543 22.1539 17.9364 22.1539C15.1185 22.1539 13.2685 22.0288 12.7109 21.9162C13.2233 21.8128 14.832 21.6998 17.2793 21.6807L17.2366 21.4828C16.0412 21.4924 14.9311 21.5261 14.0631 21.579C13.558 21.6106 13.1614 21.6465 12.8834 21.6872C12.4945 21.7439 12.3711 21.7993 12.3711 21.9162C12.3711 21.921 12.3711 21.9258 12.3711 21.9309C12.3739 21.9781 12.3739 22.0254 12.3711 22.0725V22.0751C12.3711 22.1916 12.4958 22.2483 12.8834 22.3037C13.1614 22.3444 13.558 22.3812 14.0631 22.4119C14.5682 22.4427 15.1655 22.4678 15.8102 22.4851V26.1781C15.8102 26.3314 15.9383 26.4591 16.1517 26.5608C16.5518 26.7531 17.2494 26.8518 17.9415 26.8518C18.6336 26.8518 19.3313 26.7531 19.7313 26.5608C19.9448 26.4591 20.0729 26.3314 20.0729 26.1781V22.4847C20.7133 22.4682 21.3025 22.444 21.8093 22.4124C22.3161 22.3808 22.7114 22.3448 22.9889 22.3041C23.3779 22.2479 23.5013 22.192 23.5013 22.0755C23.4988 22.0274 23.499 21.9791 23.5017 21.9309ZM19.7872 26.1738C19.7552 26.2872 19.1088 26.5517 17.9966 26.5595H17.8903C16.7772 26.5517 16.1304 26.2872 16.0971 26.1768V22.4903C16.1078 22.4903 16.1193 22.4903 16.1308 22.4903L16.3016 22.4933H16.3836C16.4357 22.4933 16.4886 22.4959 16.5416 22.4964H16.6269C16.8122 22.499 17.0005 22.5016 17.1918 22.5029C17.4369 22.5052 17.6851 22.5062 17.9364 22.5059C18.1877 22.5056 18.4372 22.5046 18.6849 22.5029C18.9308 22.5029 19.1729 22.4981 19.4107 22.4933H19.5289H19.6459L19.7864 22.4903L19.7872 26.1738Z" fill="#31414B"/>
<path d="M18.7235 19.7658H18.2235C18.2479 19.7171 18.2756 19.6703 18.3064 19.6255C18.6151 19.2895 18.7986 18.441 18.7986 18.4405C18.7868 18.4744 18.7715 18.5069 18.753 18.5375L18.7145 18.6185C18.6953 18.6587 18.6757 18.699 18.6556 18.7388C18.6356 18.7787 18.6129 18.8189 18.5933 18.8596C18.5643 18.9176 18.5433 18.9826 18.516 19.0423C18.4835 19.1014 18.4445 19.1566 18.3999 19.2068C18.3405 19.2874 18.2859 19.3709 18.2291 19.4536C18.1962 19.5017 18.1642 19.5515 18.1271 19.5965C18.3918 19.2636 18.6697 18.1479 18.6697 18.1479C18.5583 18.2345 18.4289 18.6583 18.4208 18.6847C18.4635 18.5141 18.5356 17.8621 18.5356 17.8621C18.3563 18.089 18.1454 18.8215 18.1454 18.8215C18.1518 18.4912 18.1138 17.8301 18.1138 17.8301C18.0178 17.992 17.9153 18.4457 17.9153 18.4457C17.9029 18.0825 17.8325 17.9465 17.8325 17.9465C17.8141 18.0388 17.7232 18.5496 17.7232 18.5496C17.7168 18.4977 17.6467 18.4267 17.6467 18.4267C17.6147 18.4851 17.5955 18.8739 17.5955 18.8739C17.5058 18.7185 17.4994 18.2388 17.4866 18.1738C17.4713 18.1122 17.4522 18.0516 17.4294 17.9924C17.3718 18.0704 17.3782 18.8674 17.3782 18.8674C17.3205 18.7375 17.0968 18.2643 17.0968 18.2643C17.084 18.3747 17.2633 18.9449 17.3333 19.1268C17.4156 19.3108 17.5074 19.4903 17.6083 19.6645L17.6198 19.745C17.584 19.7023 17.5439 19.6634 17.5003 19.629C17.4303 19.577 17.3854 19.4281 17.3534 19.3761C17.3155 19.2965 17.2836 19.2142 17.2578 19.1298C17.2322 19.0583 17.1809 18.9289 17.1553 18.9094C17.1297 18.8899 17.0977 18.9224 17.1361 18.9938C17.1745 19.0653 17.2642 19.2727 17.3278 19.4411C17.3812 19.5818 17.5152 19.7234 17.5579 19.7658H17.1485C17.0925 19.7658 17.0499 19.7974 17.0575 19.8329L17.5028 21.8431C17.5093 21.8721 17.5455 21.8933 17.5934 21.8933H18.2765C18.3222 21.8933 18.3619 21.8721 18.367 21.8431L18.8123 19.8329C18.8221 19.7974 18.7794 19.7658 18.7235 19.7658Z" fill="#31414B"/>
<path d="M0.303711 27.2604L3.39911 25.8863L3.49859 25.4525L0.303711 26.8708V27.2604Z" fill="#31414B"/>
<path d="M4.1857 25.1473L3.96582 25.6343L5.40508 24.9953L4.55672 24.9828L4.1857 25.1473Z" fill="#31414B"/>
<path d="M15.6966 23.0609H9.70898V23.4506H15.6966V23.0609Z" fill="#31414B"/>
<path d="M20.1484 23.0609V23.4506H25.3722L25.5109 23.0609H20.1484Z" fill="#31414B"/>
<path d="M26.2816 23.2025L26.1416 23.5298L27.3251 24.0554L27.3631 23.6826L26.2816 23.2025Z" fill="#31414B"/>
<path d="M27.9528 23.9442L27.9131 24.3165L28.6351 24.6368L28.6137 24.2377L27.9528 23.9442Z" fill="#31414B"/>
<path d="M29.208 24.5013L29.2366 24.9035L31.0559 25.711L30.9039 25.2542L29.208 24.5013Z" fill="#31414B"/>
</svg>
