<svg width="41" height="31" viewBox="0 0 41 31" fill="none" xmlns="http://www.w3.org/2000/svg">
<path d="M17.8239 27.5533H4.51157C3.79691 27.5523 3.1118 27.268 2.60646 26.7626C2.10112 26.2573 1.81679 25.5722 1.81581 24.8575C1.81035 24.7996 1.81704 24.7412 1.83546 24.686C1.85388 24.6308 1.88362 24.5801 1.92278 24.537C1.96195 24.494 2.00966 24.4596 2.06288 24.4361C2.1161 24.4126 2.17364 24.4004 2.23182 24.4004C2.29001 24.4004 2.34755 24.4126 2.40077 24.4361C2.45399 24.4596 2.50171 24.494 2.54087 24.537C2.58003 24.5801 2.60977 24.6308 2.62819 24.686C2.64661 24.7412 2.6533 24.7996 2.64784 24.8575C2.64784 25.3479 2.84263 25.8182 3.18938 26.1649C3.53612 26.5117 4.0064 26.7065 4.49677 26.7065H17.8239C18.3143 26.7065 18.7846 26.5117 19.1313 26.1649C19.4781 25.8182 19.6729 25.3479 19.6729 24.8575C19.6674 24.7996 19.6741 24.7412 19.6925 24.686C19.7109 24.6308 19.7407 24.5801 19.7798 24.537C19.819 24.494 19.8667 24.4596 19.9199 24.4361C19.9731 24.4126 20.0307 24.4004 20.0889 24.4004C20.1471 24.4004 20.2046 24.4126 20.2578 24.4361C20.311 24.4596 20.3587 24.494 20.3979 24.537C20.4371 24.5801 20.4668 24.6308 20.4852 24.686C20.5037 24.7412 20.5103 24.7996 20.5049 24.8575C20.5039 25.5696 20.2216 26.2525 19.7195 26.7575C19.2173 27.2624 18.536 27.5484 17.8239 27.5533Z" fill="#31414B"/>
<path d="M20.6159 14.851C20.5054 14.8501 20.3997 14.8057 20.3215 14.7276C20.2434 14.6494 20.199 14.5437 20.1981 14.4332C20.1981 10.861 16.1304 7.9582 11.1494 7.9582C6.34211 7.9582 2.42236 10.6392 2.11914 14.0153H18.3195C18.4304 14.0153 18.5366 14.0593 18.615 14.1377C18.6934 14.2161 18.7374 14.3224 18.7374 14.4332C18.7374 14.544 18.6934 14.6503 18.615 14.7286C18.5366 14.807 18.4304 14.851 18.3195 14.851H1.67909C1.56857 14.8501 1.46284 14.8057 1.38469 14.7276C1.30653 14.6494 1.2622 14.5437 1.26123 14.4332C1.26123 12.4548 2.30773 10.6059 4.21953 9.22287C6.25708 7.80817 8.68768 7.06955 11.1678 7.11138C13.643 7.06863 16.0693 7.80323 18.1051 9.21178C20.0058 10.5948 21.0634 12.4437 21.0634 14.4221C21.0645 14.4803 21.0535 14.5381 21.0312 14.5919C21.0089 14.6457 20.9757 14.6943 20.9336 14.7346C20.8916 14.7749 20.8416 14.806 20.787 14.8261C20.7323 14.8461 20.674 14.8546 20.6159 14.851Z" fill="#31414B"/>
<path d="M14.3959 22.3874C14.3371 22.3873 14.279 22.3748 14.2254 22.3506C14.1719 22.3263 14.1241 22.291 14.0853 22.2469C12.0773 20.0022 9.82901 18.8633 7.39581 18.8633H2.95836C2.84369 18.8557 2.72867 18.8717 2.62044 18.9103C2.51221 18.949 2.41306 19.0094 2.32914 19.0879C2.24523 19.1665 2.17833 19.2614 2.13259 19.3668C2.08686 19.4722 2.06326 19.5859 2.06326 19.7009C2.06326 19.8158 2.08686 19.9295 2.13259 20.0349C2.17833 20.1404 2.24523 20.2353 2.32914 20.3138C2.41306 20.3923 2.51221 20.4528 2.62044 20.4914C2.72867 20.5301 2.84369 20.5461 2.95836 20.5384H9.88818C9.999 20.5384 10.1053 20.5825 10.1837 20.6608C10.262 20.7392 10.306 20.8455 10.306 20.9563C10.306 21.0671 10.262 21.1734 10.1837 21.2518C10.1053 21.3301 9.999 21.3742 9.88818 21.3742H2.93987C2.70521 21.4013 2.46746 21.3785 2.24224 21.3073C2.01701 21.236 1.8094 21.118 1.63302 20.9608C1.45665 20.8037 1.31551 20.611 1.21887 20.3954C1.12223 20.1799 1.07227 19.9463 1.07227 19.7101C1.07227 19.4739 1.12223 19.2403 1.21887 19.0248C1.31551 18.8092 1.45665 18.6166 1.63302 18.4594C1.8094 18.3023 2.01701 18.1842 2.24224 18.113C2.46746 18.0417 2.70521 18.0189 2.93987 18.0461H7.37732C9.91037 18.0461 12.2437 19.1554 14.3256 21.3187C15.5016 19.6066 16.8513 18.0461 18.8555 18.0461H19.3769C19.6116 18.0189 19.8493 18.0417 20.0746 18.113C20.2998 18.1842 20.5074 18.3023 20.6838 18.4594C20.8601 18.6166 21.0013 18.8092 21.0979 19.0248C21.1946 19.2403 21.2445 19.4739 21.2445 19.7101C21.2445 19.9463 21.1946 20.1799 21.0979 20.3954C21.0013 20.611 20.8601 20.8037 20.6838 20.9608C20.5074 21.118 20.2998 21.236 20.0746 21.3073C19.8493 21.3785 19.6116 21.4013 19.3769 21.3742H15.3093C15.1207 21.633 14.9395 21.9103 14.7361 22.2025C14.7001 22.255 14.6529 22.2988 14.5979 22.3307C14.5429 22.3627 14.4815 22.3821 14.4181 22.3874H14.3959ZM15.9675 20.5384H19.3954C19.5101 20.5461 19.6251 20.5301 19.7333 20.4914C19.8416 20.4528 19.9407 20.3923 20.0246 20.3138C20.1085 20.2353 20.1754 20.1404 20.2212 20.0349C20.2669 19.9295 20.2905 19.8158 20.2905 19.7009C20.2905 19.5859 20.2669 19.4722 20.2212 19.3668C20.1754 19.2614 20.1085 19.1665 20.0246 19.0879C19.9407 19.0094 19.8416 18.949 19.7333 18.9103C19.6251 18.8717 19.5101 18.8557 19.3954 18.8633H18.874C17.772 18.8633 16.8698 19.4771 15.9749 20.5384H15.9675Z" fill="#31414B"/>
<path d="M7.16284 16.9256H2.81044C2.69961 16.9256 2.59333 16.8815 2.51497 16.8032C2.4366 16.7248 2.39258 16.6185 2.39258 16.5077C2.39258 16.3969 2.4366 16.2906 2.51497 16.2122C2.59333 16.1339 2.69961 16.0898 2.81044 16.0898H7.16284C7.27366 16.0898 7.37995 16.1339 7.45831 16.2122C7.53667 16.2906 7.5807 16.3969 7.5807 16.5077C7.5807 16.6185 7.53667 16.7248 7.45831 16.8032C7.37995 16.8815 7.27366 16.9256 7.16284 16.9256Z" fill="#31414B"/>
<path d="M19.4882 16.9256H9.61122C9.5004 16.9256 9.39411 16.8815 9.31575 16.8032C9.23738 16.7248 9.19336 16.6185 9.19336 16.5077C9.19336 16.3969 9.23738 16.2906 9.31575 16.2122C9.39411 16.1339 9.5004 16.0898 9.61122 16.0898H19.4882C19.5991 16.0898 19.7054 16.1339 19.7837 16.2122C19.8621 16.2906 19.9061 16.3969 19.9061 16.5077C19.9061 16.6185 19.8621 16.7248 19.7837 16.8032C19.7054 16.8815 19.5991 16.9256 19.4882 16.9256Z" fill="#31414B"/>
<path d="M5.62132 11.4047C5.48659 11.4047 5.35489 11.4447 5.24292 11.5196C5.13095 11.5946 5.04374 11.7011 4.99236 11.8256C4.94097 11.9501 4.92771 12.0871 4.95427 12.2192C4.98082 12.3513 5.04599 12.4725 5.14152 12.5675C5.23705 12.6626 5.35863 12.7271 5.49086 12.7529C5.62309 12.7787 5.76001 12.7647 5.88427 12.7127C6.00853 12.6606 6.11454 12.5728 6.18886 12.4604C6.26318 12.3481 6.30246 12.2161 6.30173 12.0814C6.30173 11.9922 6.2841 11.9039 6.24986 11.8216C6.21562 11.7393 6.16545 11.6645 6.10222 11.6016C6.03899 11.5387 5.96395 11.4889 5.88142 11.4552C5.79889 11.4214 5.71049 11.4042 5.62132 11.4047Z" fill="#31414B"/>
<path d="M7.84036 9.33756C7.70563 9.33683 7.57372 9.37611 7.46134 9.45043C7.34896 9.52475 7.26118 9.63076 7.20911 9.75502C7.15705 9.87928 7.14304 10.0162 7.16888 10.1484C7.19471 10.2807 7.25922 10.4022 7.35423 10.4978C7.44924 10.5933 7.57047 10.6585 7.70255 10.685C7.83464 10.7116 7.97163 10.6983 8.09618 10.6469C8.22072 10.5955 8.32721 10.5083 8.40214 10.3964C8.47707 10.2844 8.51707 10.1527 8.51707 10.018C8.51707 9.83816 8.44589 9.66565 8.31909 9.53816C8.19229 9.41066 8.02017 9.33854 7.84036 9.33756Z" fill="#31414B"/>
<path d="M10.4806 10.7169C10.3472 10.7191 10.2175 10.7606 10.1077 10.8363C9.99785 10.912 9.91285 11.0184 9.86333 11.1422C9.8138 11.2661 9.80197 11.4018 9.82932 11.5323C9.85668 11.6628 9.92199 11.7824 10.0171 11.8759C10.1121 11.9694 10.2327 12.0328 10.3637 12.058C10.4946 12.0832 10.6301 12.0692 10.7531 12.0177C10.8761 11.9661 10.9812 11.8794 11.055 11.7684C11.1289 11.6574 11.1683 11.527 11.1684 11.3936C11.1679 11.3039 11.1497 11.2153 11.1148 11.1326C11.0799 11.05 11.0291 10.9751 10.9652 10.9122C10.9012 10.8494 10.8255 10.7997 10.7424 10.7662C10.6592 10.7327 10.5702 10.7159 10.4806 10.7169Z" fill="#31414B"/>
<path d="M17.147 11.4047C17.0121 11.404 16.88 11.4434 16.7676 11.5178C16.6551 11.5923 16.5673 11.6985 16.5154 11.823C16.4634 11.9475 16.4496 12.0846 16.4758 12.2169C16.5019 12.3493 16.5668 12.4708 16.6622 12.5662C16.7576 12.6616 16.8791 12.7265 17.0115 12.7526C17.1438 12.7788 17.2809 12.765 17.4054 12.713C17.5299 12.6611 17.6361 12.5733 17.7106 12.4608C17.7851 12.3484 17.8244 12.2163 17.8237 12.0814C17.8237 11.9019 17.7524 11.7298 17.6255 11.6029C17.4986 11.476 17.3265 11.4047 17.147 11.4047Z" fill="#31414B"/>
<path d="M15.439 24.9463C14.5312 24.9443 13.6608 24.5842 13.0169 23.9442C12.7759 23.6982 12.4882 23.5028 12.1707 23.3694C11.8532 23.2359 11.5123 23.1672 11.168 23.1672C10.8236 23.1672 10.4827 23.2359 10.1652 23.3694C9.8477 23.5028 9.56003 23.6982 9.31901 23.9442C8.67393 24.5857 7.80114 24.9458 6.89136 24.9458C5.98158 24.9458 5.10878 24.5857 4.4637 23.9442C4.22269 23.6982 3.93502 23.5028 3.61753 23.3694C3.30005 23.2359 2.95914 23.1672 2.61476 23.1672C2.27039 23.1672 1.92948 23.2359 1.61199 23.3694C1.29451 23.5028 1.00684 23.6982 0.765826 23.9442C0.731197 23.9962 0.685317 24.0399 0.631571 24.0719C0.577825 24.1039 0.517585 24.1234 0.455292 24.129C0.392999 24.1346 0.330242 24.1261 0.271651 24.1042C0.21306 24.0824 0.160129 24.0476 0.116762 24.0025C0.0733951 23.9575 0.0406977 23.9032 0.0210822 23.8439C0.00146676 23.7845 -0.00456673 23.7214 0.0034268 23.6594C0.0114203 23.5974 0.0332369 23.5379 0.0672676 23.4854C0.101298 23.433 0.146675 23.3888 0.200051 23.3562C0.845133 22.7147 1.71793 22.3545 2.62771 22.3545C3.53749 22.3545 4.41028 22.7147 5.05536 23.3562C5.29637 23.6022 5.58404 23.7976 5.90153 23.931C6.21901 24.0644 6.55993 24.1331 6.9043 24.1331C7.24867 24.1331 7.58959 24.0644 7.90707 23.931C8.22455 23.7976 8.51223 23.6022 8.75324 23.3562C9.39895 22.7144 10.2724 22.3542 11.1827 22.3542C12.0931 22.3542 12.9665 22.7144 13.6122 23.3562C13.8533 23.6022 14.1409 23.7976 14.4584 23.931C14.7759 24.0644 15.1168 24.1331 15.4612 24.1331C15.8056 24.1331 16.1465 24.0644 16.464 23.931C16.7814 23.7976 17.0691 23.6022 17.3101 23.3562C17.9552 22.7147 18.828 22.3545 19.7378 22.3545C20.6476 22.3545 21.5204 22.7147 22.1654 23.3562C22.2085 23.3936 22.2435 23.4394 22.2682 23.4908C22.2929 23.5422 22.3068 23.5981 22.3091 23.6551C22.3113 23.712 22.3019 23.7689 22.2814 23.8221C22.2609 23.8753 22.2297 23.9237 22.1898 23.9644C22.1498 24.0051 22.102 24.0372 22.0492 24.0588C21.9964 24.0803 21.9397 24.0907 21.8827 24.0895C21.8257 24.0883 21.7695 24.0755 21.7177 24.0517C21.6658 24.028 21.6194 23.9939 21.5812 23.9515C21.3402 23.7056 21.0525 23.5102 20.735 23.3767C20.4175 23.2433 20.0766 23.1746 19.7322 23.1746C19.3879 23.1746 19.0469 23.2433 18.7295 23.3767C18.412 23.5102 18.1243 23.7056 17.8833 23.9515C17.5617 24.2705 17.1801 24.5225 16.7606 24.6933C16.3411 24.864 15.8919 24.95 15.439 24.9463Z" fill="#31414B"/>
<path d="M38.2211 30.0124H28.492C28.3719 30.0129 28.2558 29.9684 28.1669 29.8876C28.0779 29.8069 28.0224 29.6957 28.0113 29.576L26.865 17.4803C26.8468 17.4123 26.8438 17.3412 26.8562 17.2719C26.8685 17.2026 26.8959 17.1369 26.9365 17.0794C26.977 17.0219 27.0297 16.974 27.0908 16.939C27.1518 16.9041 27.2198 16.883 27.29 16.8772C27.3601 16.8715 27.4306 16.8811 27.4966 16.9056C27.5626 16.9301 27.6224 16.9687 27.6718 17.0188C27.7212 17.069 27.759 17.1293 27.7825 17.1956C27.806 17.2619 27.8147 17.3326 27.8079 17.4026L28.9173 29.0583H37.7922L39.1345 15.8384H26.0699C25.9992 15.8389 25.9293 15.8236 25.8653 15.7935C25.8013 15.7634 25.7449 15.7194 25.7001 15.6646C25.6544 15.6092 25.6217 15.5442 25.6044 15.4744C25.5872 15.4047 25.5857 15.3319 25.6003 15.2616L26.2474 12.0407C26.2688 11.9317 26.3272 11.8334 26.4128 11.7627C26.4985 11.6919 26.606 11.6529 26.717 11.6524H40.0109C40.1224 11.6528 40.2304 11.6916 40.3167 11.7623C40.4029 11.8331 40.4621 11.9314 40.4842 12.0407L40.7579 13.4089C40.7703 13.4708 40.7703 13.5346 40.7581 13.5965C40.7458 13.6585 40.7215 13.7174 40.6865 13.7699C40.6514 13.8225 40.6064 13.8676 40.5539 13.9027C40.5015 13.9379 40.4426 13.9623 40.3807 13.9747C40.3188 13.9871 40.255 13.9871 40.1931 13.9749C40.1311 13.9626 40.0722 13.9383 40.0197 13.9033C39.9671 13.8683 39.922 13.8232 39.8869 13.7708C39.8518 13.7183 39.8273 13.6594 39.8149 13.5975L39.6152 12.6176H27.1127L26.6616 14.877H39.6596C39.7291 14.8749 39.7982 14.8881 39.8621 14.9156C39.926 14.943 39.9831 14.9841 40.0294 15.036C40.0752 15.0852 40.1098 15.1437 40.1309 15.2075C40.152 15.2714 40.159 15.339 40.1514 15.4058L38.7129 29.5871C38.6983 29.7064 38.6399 29.8159 38.549 29.8945C38.4581 29.9731 38.3412 30.0151 38.2211 30.0124Z" fill="#31414B"/>
<path d="M38.9025 12.6324C38.798 12.633 38.6962 12.5994 38.6127 12.5366C38.5292 12.4738 38.4686 12.3853 38.4403 12.2848L37.856 10.2583H28.5115C28.3908 10.2478 28.2784 10.1923 28.1966 10.103C28.1147 10.0137 28.0693 9.89691 28.0693 9.77575C28.0693 9.6546 28.1147 9.53784 28.1966 9.44851C28.2784 9.35918 28.3908 9.30376 28.5115 9.29318H38.1999C38.3047 9.29292 38.4068 9.32665 38.4908 9.38933C38.5748 9.452 38.6362 9.54024 38.6658 9.64079L39.3462 12.0148C39.3817 12.1379 39.367 12.27 39.3054 12.3823C39.2437 12.4946 39.1401 12.5778 39.0171 12.6139C38.9797 12.6241 38.9413 12.6303 38.9025 12.6324Z" fill="#31414B"/>
<path d="M38.7025 25.2865H30.5671C30.4397 25.2865 30.3174 25.2359 30.2272 25.1457C30.1371 25.0556 30.0864 24.9333 30.0864 24.8058C30.0864 24.6783 30.1371 24.556 30.2272 24.4659C30.3174 24.3757 30.4397 24.3251 30.5671 24.3251H38.7025C38.83 24.3251 38.9522 24.3757 39.0424 24.4659C39.1326 24.556 39.1832 24.6783 39.1832 24.8058C39.1832 24.9333 39.1326 25.0556 39.0424 25.1457C38.9522 25.2359 38.83 25.2865 38.7025 25.2865Z" fill="#31414B"/>
<path d="M33.1702 10.2436C33.0522 10.2427 32.9385 10.1992 32.8501 10.121C32.7617 10.0429 32.7047 9.93532 32.6895 9.8183L31.8575 2.79234L28.6144 0.899026C28.5597 0.867281 28.5118 0.825053 28.4735 0.774767C28.4351 0.724481 28.4071 0.667122 28.3909 0.605976C28.3748 0.544831 28.3709 0.481105 28.3794 0.418442C28.3879 0.355779 28.4087 0.295413 28.4406 0.240804C28.472 0.18574 28.514 0.137482 28.5643 0.0988502C28.6145 0.0602189 28.672 0.0319902 28.7333 0.0158094C28.7945 -0.000371455 28.8584 -0.00418111 28.9212 0.00460901C28.984 0.0133991 29.0444 0.034612 29.0988 0.0670039L32.5527 2.07865C32.6181 2.11774 32.6735 2.1715 32.7145 2.23567C32.7556 2.29984 32.7812 2.37268 32.7893 2.44844L33.6472 9.70367C33.655 9.76659 33.6502 9.83041 33.6332 9.89148C33.6161 9.95254 33.5872 10.0096 33.548 10.0595C33.5088 10.1093 33.4602 10.1509 33.4049 10.1819C33.3495 10.2128 33.2886 10.2325 33.2257 10.2399L33.1702 10.2436Z" fill="#31414B"/>
</svg>
