<svg id="Layer_1" data-name="Layer 1" xmlns="http://www.w3.org/2000/svg" viewBox="0 0 308.05 161.98"><defs><style>.cls-1{fill:#04ac4d;}.cls-2{fill:#ececec;}</style></defs><polygon class="cls-1" points="37.45 63.97 37.45 121.09 67.6 121.09 97.75 121.09 97.75 63.97 67.11 45.15 37.45 63.97"/><polygon class="cls-1" points="109.32 121.09 109.32 135.88 25.88 135.88 25.88 56.55 66.92 30.52 109.32 56.56 109.32 63.97 111.02 63.97 111.02 55.61 66.9 28.52 24.19 55.62 24.19 137.58 111.02 137.58 111.02 121.09 109.32 121.09"/><polygon class="cls-2" points="118.14 121.09 118.14 144.7 17.07 144.7 17.07 51.7 66.84 20.12 118.14 51.62 118.14 63.97 118.7 63.97 118.7 51.31 66.98 19.55 66.83 19.45 16.63 51.3 16.5 51.39 16.5 145.26 118.7 145.26 118.7 121.09 118.14 121.09"/><polygon class="cls-2" points="126.39 121.09 126.39 152.95 8.82 152.95 8.82 47.16 66.77 10.39 126.39 47.01 126.39 63.97 126.95 63.97 126.95 46.69 66.91 9.82 66.76 9.73 8.38 46.77 8.25 46.85 8.25 153.51 126.95 153.51 126.95 121.09 126.39 121.09"/><polygon class="cls-2" points="134.64 121.09 134.64 161.2 0.57 161.2 0.57 42.63 66.7 0.67 134.64 42.39 134.64 63.99 135.2 63.99 135.2 42.08 66.84 0.09 66.69 0 0.13 42.23 0 42.31 0 161.76 135.2 161.76 135.2 121.09 134.64 121.09"/><path class="cls-2" d="M131.49,170.11v39h-7.42L104.6,185.45v23.71H95.67v-39h7.47l19.42,23.71V170.11Z" transform="translate(-45.98 -97.11)"/><path class="cls-2" d="M180.08,201.52v6.72H152V172H179.4v6.72h-19v7.86h16.81v6.52H160.37v8.38Z" transform="translate(-45.98 -97.11)"/><path class="cls-2" d="M241,172l-11.85,36.2h-9l-8-24.51-8.23,24.51H195L183.08,172h8.69l8.17,25.45L208.47,172h7.76l8.28,25.65L232.94,172Z" transform="translate(-45.98 -97.11)"/><path class="cls-2" d="M254.85,178.86H243.26V172h31.55v6.82H263.23v29.38h-8.38Z" transform="translate(-45.98 -97.11)"/><path class="cls-2" d="M276.52,190.14c0-10.76,8.38-18.72,19.81-18.72s19.81,7.91,19.81,18.72-8.43,18.73-19.81,18.73S276.52,200.9,276.52,190.14Zm31.14,0c0-6.88-4.86-11.59-11.33-11.59S285,183.26,285,190.14s4.86,11.59,11.33,11.59S307.66,197,307.66,190.14Z" transform="translate(-45.98 -97.11)"/><path class="cls-2" d="M354,172v36.2h-6.88l-18.05-22v22h-8.27V172h6.93l18,22V172Z" transform="translate(-45.98 -97.11)"/><path class="cls-1" d="M228.15,234.18c0,8.71-6.55,14.12-17,14.12h-7.89v10.78h-9.07V220h17C221.6,220,228.15,225.41,228.15,234.18Zm-9.18,0c0-4.3-2.8-6.81-8.34-6.81h-7.38v13.56h7.38C216.17,240.93,219,238.42,219,234.18Z" transform="translate(-45.98 -97.11)"/><path class="cls-1" d="M258.43,250.71H240.24l-3.47,8.37h-9.29L244.94,220h9l17.51,39.09H261.9Zm-2.85-6.87-6.22-15-6.21,15Z" transform="translate(-45.98 -97.11)"/><path class="cls-1" d="M300.46,259.08l-7.55-10.89h-8.34v10.89H275.5V220h17c10.46,0,17,5.42,17,14.19a12.7,12.7,0,0,1-8.06,12.34l8.79,12.56ZM292,227.37h-7.39V241H292c5.54,0,8.33-2.57,8.33-6.81S297.5,227.37,292,227.37Z" transform="translate(-45.98 -97.11)"/><path class="cls-1" d="M330.91,243.73l-5.26,5.47v9.88h-9V220h9v18.26L343,220h10.07l-16.23,17.43L354,259.08H343.45Z" transform="translate(-45.98 -97.11)"/></svg>