<svg width="111" height="58" viewBox="0 0 111 58" fill="none" xmlns="http://www.w3.org/2000/svg">
<g clip-path="url(#clip0_441_190)">
<path d="M13.4961 22.9047V43.3592H24.3595H35.223V22.9047L24.1806 16.1689L13.4961 22.9047Z" fill="#2BB018"/>
<path d="M39.3899 43.3589V48.6541H9.3259V20.2493L24.1107 10.9277L39.3899 20.2523V22.9044H40.0025V19.9118L24.1047 10.2104L8.71631 19.9148V49.2629H40.0025V43.3589H39.3899Z" fill="#2BB018"/>
<path d="M42.5682 43.3591V51.8128H6.15046V18.5106L24.0833 7.20595L42.5682 18.4865V22.9047H42.7714V18.372L24.1379 7.00101L24.0833 6.96484L5.99276 18.372L5.94727 18.3991V52.0147H42.7714V43.3591H42.5682Z" fill="#2D2D2B"/>
<path d="M45.5404 43.3591V54.7662H3.1784V16.8861L24.0591 3.72197L45.5404 16.8319V22.9046H45.7466V16.7204L24.1107 3.51704L24.0561 3.48389L3.02069 16.7475L2.97217 16.7746V54.9681H45.7466V43.3591H45.5404Z" fill="#2D2D2B"/>
<path d="M48.5155 43.3591V57.7227H0.203197V15.2647L24.0348 0.238088L48.5155 15.1804V22.9137H48.7187V15.0658L24.0864 0.0331515L24.0318 0L0.0485246 15.1231L0 15.1502V57.9246H48.7187V43.3591H48.5155Z" fill="#2D2D2B"/>
<path d="M30.8132 26.1382V40.1251H28.1383L21.1235 31.6323V40.1251H17.8936V26.1382H20.5867L27.5985 34.631V26.1382H30.8132Z" fill="#2D2D2B"/>
<path d="M48.3212 37.3861V39.7971H38.2129V26.8379H48.0725V29.2489H41.2184V32.0668H47.284V34.3994H41.2184V37.3981L48.3212 37.3861Z" fill="#2D2D2B"/>
<path d="M70.2577 26.8286L65.9905 39.7878H62.7485L59.8764 31.0087L56.9134 39.7878H53.6805L49.3921 26.8286H52.525L55.4698 35.9423L58.545 26.8286H61.3413L64.3225 36.0176L67.3553 26.8286H70.2577Z" fill="#2D2D2B"/>
<path d="M75.2645 29.2758H71.0884V26.8286H82.4583V29.2758H78.2822V39.7939H75.2645V29.2758Z" fill="#2D2D2B"/>
<path d="M83.0742 33.311C83.0742 29.4594 86.0918 26.6084 90.2104 26.6084C94.3289 26.6084 97.3526 29.4413 97.3526 33.311C97.3526 37.1807 94.3198 40.0167 90.2134 40.0167C86.107 40.0167 83.0742 37.1656 83.0742 33.311ZM94.2955 33.311C94.2955 30.8488 92.5456 29.1641 90.2134 29.1641C87.8812 29.1641 86.1313 30.8488 86.1313 33.311C86.1313 35.7733 87.8842 37.461 90.2134 37.461C92.5426 37.461 94.2925 35.7763 94.2925 33.311H94.2955Z" fill="#2D2D2B"/>
<path d="M111 26.8286V39.7878H108.522L102.017 31.9219V39.7939H99.0356V26.8346H101.532L108.019 34.7066V26.8286H111Z" fill="#2D2D2B"/>
<path d="M65.6447 49.0822C65.6447 52.2014 63.2852 54.1393 59.5124 54.1393H56.6707V57.9909H53.4014V44.001H59.5124C63.2852 44.001 65.6447 45.9358 65.6447 49.0822ZM62.336 49.0822C62.336 47.5422 61.3291 46.641 59.3305 46.641H56.6707V51.4992H59.3305C61.3291 51.4992 62.336 50.6011 62.336 49.0822Z" fill="#2BB018"/>
<path d="M76.5535 54.9984H69.9996L68.7501 58.0122H65.4141L71.7071 44.0132H74.9097L81.2331 57.9911H77.803L76.5535 54.9984ZM75.5163 52.5391L73.2781 47.1807L71.0399 52.5391H75.5163Z" fill="#2BB018"/>
<path d="M91.6992 57.9909L88.9697 54.0911H85.9643V57.9909H82.707V44.001H88.8151C92.5879 44.001 94.9474 45.9418 94.9474 49.0822C94.9848 50.0273 94.7251 50.9605 94.2045 51.7522C93.6838 52.544 92.928 53.155 92.042 53.5004L95.2082 57.9909H91.6992ZM88.6361 46.632H85.9733V51.5113H88.6361C90.6317 51.5113 91.6386 50.6072 91.6386 49.0732C91.6386 47.5391 90.6317 46.641 88.6361 46.641V46.632Z" fill="#2BB018"/>
<path d="M102.672 52.4998L100.776 54.4588V57.9909H97.5283V44.001H100.776V50.5409L107.027 44.001H110.666L104.819 50.2395L111 57.9909H107.188L102.672 52.4998Z" fill="#2BB018"/>
</g>
<defs>
<clipPath id="clip0_441_190">
<rect width="111" height="58" fill="white"/>
</clipPath>
</defs>
</svg>
