<svg width="58" height="30" viewBox="0 0 58 30" fill="none" xmlns="http://www.w3.org/2000/svg">
<g clip-path="url(#clip0_465_7)">
<path d="M7.05176 11.8473V22.4272H12.7282H18.4045V11.8473L12.6347 8.36328L7.05176 11.8473Z" fill="#2BB018"/>
<path d="M20.5819 22.427V25.1659H4.87272V10.4738L12.5981 5.65226L20.5819 10.4753V11.8471H20.902V10.2992L12.595 5.28125L4.5542 10.3007V25.4808H20.902V22.427H20.5819Z" fill="#2BB018"/>
<path d="M22.2427 22.4272V26.7997H3.2136V9.57448L12.5839 3.72725L22.2427 9.56201V11.8473H22.3488V9.50277L12.6124 3.62125L12.5839 3.60254L3.13119 9.50277L3.10742 9.5168V26.9042H22.3488V22.4272H22.2427Z" fill="#2D2D2B"/>
<path d="M23.7961 22.4271V28.3273H1.66098V8.73419L12.5716 1.92515L23.7961 8.70613V11.8472H23.9038V8.64845L12.5986 1.81915L12.5701 1.802L1.57858 8.66248L1.55322 8.67651V28.4318H23.9038V22.4271H23.7961Z" fill="#2D2D2B"/>
<path d="M25.3504 22.4271V29.8566H0.106175V7.89556L12.5587 0.123149L25.3504 7.85191V11.8519H25.4566V7.79267L12.5857 0.0171473L12.5572 0L0.0253552 7.82229L0 7.83632V29.961H25.4566V22.4271H25.3504Z" fill="#2D2D2B"/>
<path d="M16.1004 13.5198V20.7544H14.7027L11.0373 16.3616V20.7544H9.34961V13.5198H10.7568L14.4206 17.9126V13.5198H16.1004Z" fill="#2D2D2B"/>
<path d="M25.2491 19.3376V20.5846H19.9673V13.8816H25.1191V15.1287H21.5377V16.5862H24.7071V17.7927H21.5377V19.3438L25.2491 19.3376Z" fill="#2D2D2B"/>
<path d="M36.7113 13.877L34.4817 20.58H32.7876L31.2869 16.0391L29.7386 20.58H28.0494L25.8086 13.877H27.4456L28.9843 18.5909L30.5912 13.877H32.0523L33.6101 18.6299L35.1948 13.877H36.7113Z" fill="#2D2D2B"/>
<path d="M39.3276 15.1427H37.1455V13.877H43.0866V15.1427H40.9044V20.5831H39.3276V15.1427Z" fill="#2D2D2B"/>
<path d="M43.4082 17.2301C43.4082 15.2379 44.985 13.7632 47.137 13.7632C49.289 13.7632 50.869 15.2285 50.869 17.2301C50.869 19.2316 49.2843 20.6985 47.1386 20.6985C44.9929 20.6985 43.4082 19.2238 43.4082 17.2301ZM49.2716 17.2301C49.2716 15.9565 48.3572 15.0851 47.1386 15.0851C45.9199 15.0851 45.0056 15.9565 45.0056 17.2301C45.0056 18.5036 45.9215 19.3766 47.1386 19.3766C48.3556 19.3766 49.27 18.5052 49.27 17.2301H49.2716Z" fill="#2D2D2B"/>
<path d="M58.0002 13.877V20.58H56.7055L53.3063 16.5114V20.5831H51.7485V13.8801H53.0527L56.4424 17.9518V13.877H58.0002Z" fill="#2D2D2B"/>
<path d="M34.3007 25.3875C34.3007 27.0009 33.0679 28.0032 31.0965 28.0032H29.6116V29.9954H27.9033V22.7593H31.0965C33.0679 22.7593 34.3007 23.7601 34.3007 25.3875ZM32.5718 25.3875C32.5718 24.5909 32.0457 24.1248 31.0014 24.1248H29.6116V26.6377H31.0014C32.0457 26.6377 32.5718 26.1732 32.5718 25.3875Z" fill="#2BB018"/>
<path d="M40.0008 28.4474H36.5762L35.9233 30.0062H34.1802L37.4684 22.7654H39.1419L42.446 29.9953H40.6537L40.0008 28.4474ZM39.4588 27.1754L38.2893 24.4037L37.1198 27.1754H39.4588Z" fill="#2BB018"/>
<path d="M47.9149 29.9954L46.4887 27.9783H44.9183V29.9954H43.2163V22.7593H46.4079C48.3793 22.7593 49.6122 23.7632 49.6122 25.3875C49.6317 25.8763 49.496 26.359 49.224 26.7685C48.9519 27.1781 48.557 27.4941 48.094 27.6728L49.7484 29.9954H47.9149ZM46.3144 24.1202H44.923V26.6439H46.3144C47.3571 26.6439 47.8833 26.1763 47.8833 25.3828C47.8833 24.5894 47.3571 24.1248 46.3144 24.1248V24.1202Z" fill="#2BB018"/>
<path d="M53.6486 27.1552L52.6582 28.1685V29.9954H50.9609V22.7593H52.6582V26.142L55.9242 22.7593H57.8259L54.7706 25.9861L58.0002 29.9954H56.0082L53.6486 27.1552Z" fill="#2BB018"/>
</g>
<defs>
<clipPath id="clip0_465_7">
<rect width="58" height="30" fill="white"/>
</clipPath>
</defs>
</svg>
