<svg width="45" height="40" viewBox="0 0 45 40" fill="none" xmlns="http://www.w3.org/2000/svg">
<g clip-path="url(#clip0_471_1301)">
<path d="M44.4009 13.4205C43.6022 12.7993 42.307 12.7992 41.5082 13.4206L22.5005 28.2047L3.49179 13.4205C2.69311 12.7993 1.39793 12.7992 0.599114 13.4206C-0.199704 14.0419 -0.199704 15.0491 0.599114 15.6704L21.0542 31.5795C21.4378 31.8779 21.958 32.0455 22.5005 32.0455C23.0429 32.0455 23.5633 31.8778 23.9467 31.5794L44.4007 15.6703C45.1997 15.0491 45.1997 14.0418 44.4009 13.4205Z" fill="#2BB018"/>
</g>
<g clip-path="url(#clip1_471_1301)">
<path d="M39.534 6.4958C38.9128 6.01659 37.9055 6.0165 37.2842 6.49588L22.5004 17.9008L7.71584 6.4958C7.09464 6.01659 6.08728 6.0165 5.46598 6.49588C4.84467 6.97517 4.84467 7.7522 5.46598 8.23149L21.3755 20.5042C21.6738 20.7344 22.0785 20.8636 22.5004 20.8636C22.9223 20.8636 23.327 20.7343 23.6252 20.5041L39.5339 8.2314C40.1553 7.7522 40.1553 6.97509 39.534 6.4958Z" fill="#2BB018"/>
</g>
<defs>
<clipPath id="clip0_471_1301">
<rect width="45" height="35" fill="white" transform="translate(0 5)"/>
</clipPath>
<clipPath id="clip1_471_1301">
<rect width="35" height="27" fill="white" transform="translate(5)"/>
</clipPath>
</defs>
</svg>
