<svg id="Layer_1" data-name="Layer 1" xmlns="http://www.w3.org/2000/svg" viewBox="0 0 401 401"><defs><style>.cls-1{fill:#fff;}.cls-2{fill:#31414b;}</style></defs><path class="cls-1" d="M309.09,43H186.91A139.42,139.42,0,0,0,47.5,182.41V304.59A139.42,139.42,0,0,0,186.91,444H309.09A139.42,139.42,0,0,0,448.5,304.59V182.41A139.42,139.42,0,0,0,309.09,43Z" transform="translate(-47.5 -43)"/><path class="cls-2" d="M153.75,184.86c1,26.42,18.83,52,33.89,72.59A270.08,270.08,0,0,0,235.54,308a225.76,225.76,0,0,0,36.87,24.51c8,4.2,13.28,6.71,22.55,4.12,14.19-4,46.85-20.79,41.37-39.11-2.78-9.31-14.11-18.45-21.27-24.31-8.66-7.12-23.84-19.65-33.95-7.95-6.07,5.8-12.35,19.34-21.87,20.17-10.19,1-19.33-10.83-25.6-17.29a250.68,250.68,0,0,1-28.19-34.41c-7.85-12.8,1.93-18.1,11.49-25.14,4.35-3.19,9.88-6.21,12-11.43,3.87-9.66-5.35-21.87-10.71-29.39a120.06,120.06,0,0,0-17.4-19.33c-8.45-7.62-17.77-1.57-24.83,4.5A75.89,75.89,0,0,0,153.75,184.86Z" transform="translate(-47.5 -43)"/></svg>