<svg width="30" height="24" viewBox="0 0 30 24" fill="none" xmlns="http://www.w3.org/2000/svg">
<path fill-rule="evenodd" clip-rule="evenodd" d="M29.6371 1.71439C29.5633 2.74476 28.9756 6.34985 28.3854 10.25L26.546 21.808C26.546 21.808 26.3984 23.5023 25.1492 23.795C23.8999 24.0876 21.8367 22.7646 21.4605 22.4719C21.1654 22.2506 15.9397 18.9382 14.0265 17.3078C13.5126 16.8676 12.9248 15.9847 14.1003 14.9544C16.7512 12.5247 19.9137 9.50985 21.8269 7.59664C22.7097 6.71135 23.5926 4.64567 19.9137 7.15399L9.54105 14.1502C9.54105 14.1502 8.36558 14.888 6.15728 14.2215C3.94898 13.5551 1.37426 12.6772 1.37426 12.6772C1.37426 12.6772 -0.391398 11.5731 2.62596 10.3976L19.7686 3.3325C21.4629 2.59476 27.2001 0.241363 27.2001 0.241363C27.2001 0.241363 29.8584 -0.786555 29.6371 1.71439Z" fill="#31414B"/>
</svg>
