<svg width="40" height="34" viewBox="0 0 40 34" fill="none" xmlns="http://www.w3.org/2000/svg">
<path fill-rule="evenodd" clip-rule="evenodd" d="M39.6585 2.72389C39.5572 4.13447 38.7505 9.06982 37.9404 14.4091L35.4157 30.2319C35.4157 30.2319 35.2132 32.5514 33.4986 32.9521C31.7839 33.3527 28.9521 31.5415 28.4356 31.1409C28.0306 30.8379 20.8581 26.3031 18.2322 24.0711C17.5267 23.4685 16.72 22.2599 18.3334 20.8493C21.972 17.5232 26.3126 13.3958 28.9386 10.7767C30.1503 9.5647 31.362 6.7368 26.3126 10.1707L12.0756 19.7485C12.0756 19.7485 10.4622 20.7584 7.43124 19.8461C4.40024 18.9338 0.866314 17.7319 0.866314 17.7319C0.866314 17.7319 -1.55714 16.2204 2.58434 14.6111L26.1134 4.93907C28.439 3.92911 36.3135 0.70733 36.3135 0.70733C36.3135 0.70733 39.9622 -0.699882 39.6585 2.72389Z" fill="#31414B"/>
</svg>
