<svg id="Layer_1" data-name="Layer 1" xmlns="http://www.w3.org/2000/svg" viewBox="0 0 417 417"><defs><style>.cls-1{fill:#fff;}.cls-2{fill:#31414b;fill-rule:evenodd;}</style></defs><path class="cls-1" d="M313.6,38.29H186.54a145,145,0,0,0-145,145v127a145,145,0,0,0,145,145H313.6a145,145,0,0,0,145-145v-127A145,145,0,0,0,313.6,38.29Z" transform="translate(-41.57 -38.29)"/><path class="cls-2" d="M335.27,163.66c-5.77-5.43-29.07-22.76-81-23,0,0-61.23-3.78-91.09,24.27-16.6,17-22.46,41.88-23.08,72.77s-1.41,88.71,53.06,104.41v23.95s-.34,9.69,5.88,11.66c7.54,2.39,12.06-5,19.16-12.91,4-4.36,9.41-10.75,13.53-15.64,37.24,3.2,65.89-4.14,69.15-5.23,7.52-2.49,50.08-8,57-65.91C365,218.39,354.47,180.67,335.27,163.66ZM303.88,292.35a47.87,47.87,0,0,1-9.35,11.8h-.1c-5.1,4.38-10.05,5.75-14.92,4.16A154,154,0,0,1,224.78,272a151.27,151.27,0,0,1-35.47-58l-.6-2.82c-1.19-7,3.16-11.66,15.2-19.8l.22-.16a9.16,9.16,0,0,1,11,.92c2.47,1.77,9.47,11,9.47,11,1.37,2,11,13.94,8.77,19.63-.77,3.27-6.4,6.69-9.43,9.53l-.24.2a8.72,8.72,0,0,0-1.39,6.75l.12.51q2.36,11.49,13.31,22.11c7.22,7,14.3,11.16,20.93,12.83a6.95,6.95,0,0,0,6.8-2.25l4.48-5.77a9.73,9.73,0,0,1,12.53-1.79,132.65,132.65,0,0,1,11.2,7.3c3.4,2.55,10.35,8.5,10.37,8.52a8.94,8.94,0,0,1,1.81,11.75ZM279.76,215.1a28.46,28.46,0,0,0-9.62-7A40,40,0,0,0,257,205a3.5,3.5,0,0,1-2.25-6.06,3.51,3.51,0,0,1,2.52-.94h.26c11.6.89,20.83,5.05,27.38,12.41a38.42,38.42,0,0,1,9.57,27.47,3.43,3.43,0,1,1-6.85-.14,31.72,31.72,0,0,0-7.78-22.54Zm-22.61,1.77h.17a19.89,19.89,0,0,1,13.93,5.7,22.17,22.17,0,0,1,5.35,14.52,3.53,3.53,0,0,1-.9,2.52,3.46,3.46,0,0,1-2.4,1.16h-.18a3.47,3.47,0,0,1-2.4-1,3.52,3.52,0,0,1-1.06-2.37,15.31,15.31,0,0,0-3.44-10.05,13.25,13.25,0,0,0-9.27-3.56,3.4,3.4,0,0,1-1.33-.3,3.52,3.52,0,0,1-1.84-2,3.45,3.45,0,0,1-.22-1.35,3.4,3.4,0,0,1,.3-1.33,3.51,3.51,0,0,1,.79-1.11,3.51,3.51,0,0,1,2.5-1Zm50,25.89a3.47,3.47,0,0,1-2.45-1,3.54,3.54,0,0,1-1-2.46A64.76,64.76,0,0,0,300,217.17a45.32,45.32,0,0,0-10.49-16.47,47.62,47.62,0,0,0-15.67-10.5,52,52,0,0,0-19.22-3.62,3.5,3.5,0,1,1,0-7,54.87,54.87,0,0,1,39.73,16.08,52.51,52.51,0,0,1,12.07,19,72.66,72.66,0,0,1,4,24.45,3.54,3.54,0,0,1-.84,2.54,3.48,3.48,0,0,1-2.38,1.2Z" transform="translate(-41.57 -38.29)"/></svg>