<svg width="38" height="40" viewBox="0 0 38 40" fill="none" xmlns="http://www.w3.org/2000/svg">
<path fill-rule="evenodd" clip-rule="evenodd" d="M33.3026 3.99018C32.3339 3.08122 28.422 0.179279 19.7036 0.13888C19.7036 0.13888 9.42588 -0.494028 4.41358 4.20227C1.6256 7.05034 0.64339 11.2147 0.538756 16.3857C0.434122 21.5567 0.302486 31.2388 9.44613 33.868V37.8776C9.44613 37.8776 9.38875 39.5002 10.4317 39.8301C11.6974 40.2308 12.4569 38.9986 13.6484 37.6688C14.3234 36.9383 15.228 35.8677 15.9199 35.0497C22.171 35.585 26.9807 34.3562 27.5275 34.1744C28.7899 33.7569 35.9354 32.8278 37.0965 23.1389C38.2981 13.1538 36.526 6.83825 33.3026 3.99018ZM28.0338 25.5359C27.6183 26.273 27.0886 26.94 26.4643 27.512H26.4474C25.5901 28.246 24.7598 28.4749 23.943 28.2089C20.4771 26.8644 17.3432 24.7894 14.7555 22.1256C12.0572 19.381 10.021 16.0596 8.80145 12.4132L8.70019 11.9419C8.50105 10.7737 9.23011 9.98931 11.2519 8.62587L11.289 8.59894C11.5722 8.42047 11.9061 8.33903 12.2399 8.36698C12.5737 8.39493 12.8893 8.53074 13.1387 8.7538C13.5539 9.05006 14.7285 10.5987 14.7285 10.5987C14.958 10.9353 16.5714 12.9317 16.2001 13.8844C16.0718 14.4331 15.1267 15.0054 14.6171 15.4801L14.5766 15.5138C14.4631 15.6768 14.3839 15.8611 14.3439 16.0555C14.3039 16.25 14.3038 16.4505 14.3437 16.6449L14.3639 16.7291C14.6272 18.0129 15.372 19.2472 16.5984 20.4323C17.8101 21.6072 18.9982 22.3007 20.112 22.5801C20.3186 22.627 20.5341 22.6167 20.7352 22.5502C20.9363 22.4838 21.1153 22.3637 21.2529 22.203L22.0056 21.2369C22.2623 20.9445 22.6156 20.7535 23.0013 20.6986C23.3871 20.6436 23.7798 20.7283 24.1084 20.9372C24.7555 21.3125 25.3829 21.7203 25.9884 22.1593C26.5588 22.5868 27.7267 23.5833 27.73 23.5867C28.0131 23.8206 28.2003 24.1498 28.2563 24.5122C28.3123 24.8745 28.2331 25.2447 28.0338 25.5527V25.5359ZM23.9835 12.6017C23.5343 12.1024 22.9845 11.7032 22.3701 11.4302C21.6689 11.1344 20.9225 10.9592 20.1627 10.9117C20.0069 10.9059 19.8598 10.8387 19.7538 10.7247C19.6478 10.6107 19.5915 10.4594 19.5973 10.3041C19.6031 10.1487 19.6706 10.002 19.7848 9.89629C19.8991 9.79054 20.0508 9.73439 20.2065 9.74019H20.2504C22.198 9.88832 23.7472 10.5852 24.8476 11.8173C25.9662 13.0812 26.5431 14.7324 26.4542 16.416C26.4524 16.5693 26.3901 16.7157 26.2808 16.8235C26.1715 16.9312 26.024 16.9917 25.8703 16.9917C25.7157 16.9864 25.5694 16.9205 25.4632 16.8083C25.3571 16.6961 25.2996 16.5467 25.3032 16.3924C25.377 15.0128 24.9084 13.6589 23.997 12.6186L23.9835 12.6017ZM20.1897 12.898H20.2167C21.0917 12.8992 21.9314 13.2425 22.5557 13.8541C23.1386 14.5301 23.4574 15.3931 23.4536 16.2847C23.461 16.4393 23.407 16.5907 23.3034 16.7059C23.1999 16.8212 23.0549 16.8912 22.9 16.9008H22.8696C22.7194 16.9 22.5752 16.8415 22.467 16.7374C22.3589 16.6334 22.2952 16.4917 22.2891 16.3419C22.3048 15.7301 22.1 15.1328 21.7119 14.6587C21.2901 14.2667 20.7323 14.0531 20.1559 14.0628C20.0788 14.0606 20.0029 14.0433 19.9324 14.0118C19.862 13.9803 19.7985 13.9353 19.7456 13.8793C19.6926 13.8234 19.6512 13.7576 19.6237 13.6856C19.5963 13.6137 19.5833 13.5371 19.5855 13.4602C19.5877 13.3833 19.6051 13.3075 19.6367 13.2373C19.6682 13.1671 19.7133 13.1038 19.7694 13.0509C19.8255 12.9981 19.8915 12.9568 19.9636 12.9294C20.0357 12.902 20.1125 12.889 20.1897 12.8913V12.898ZM28.584 17.2341C28.4297 17.2332 28.2821 17.1714 28.1733 17.0623C28.0645 16.9532 28.0034 16.8055 28.0034 16.6517C28.0142 15.3909 27.8052 14.1379 27.3858 12.9485C27.0065 11.9126 26.4052 10.9716 25.6239 10.1913C24.874 9.43615 23.9799 8.8386 22.9945 8.43398C21.967 8.03029 20.8721 7.82466 19.7678 7.82801C19.612 7.82801 19.4626 7.7663 19.3525 7.65644C19.2423 7.54659 19.1805 7.39759 19.1805 7.24223C19.1805 7.08688 19.2423 6.93788 19.3525 6.82803C19.4626 6.71818 19.612 6.65646 19.7678 6.65646C21.0037 6.6366 22.231 6.86478 23.3768 7.32745C24.5225 7.79011 25.5633 8.47782 26.4373 9.34968C27.3351 10.2516 28.0261 11.337 28.4625 12.531C28.9217 13.8468 29.1501 15.2316 29.1375 16.6247C29.1487 16.7791 29.0982 16.9316 28.997 17.0489C28.8958 17.1662 28.7522 17.2388 28.5975 17.2509L28.584 17.2341Z" fill="#31414B"/>
</svg>
