<svg width="27" height="30" viewBox="0 0 27 30" fill="none" xmlns="http://www.w3.org/2000/svg">
<path fill-rule="evenodd" clip-rule="evenodd" d="M23.9209 3.03849C23.2151 2.37452 20.365 0.254744 14.013 0.225235C14.013 0.225235 6.52496 -0.237085 2.87314 3.19341C0.841897 5.27384 0.126289 8.31579 0.0500557 12.093C-0.0261775 15.8703 -0.122084 22.9427 6.53972 24.8633V27.7921C6.53972 27.7921 6.49791 28.9775 7.25779 29.2185C8.17996 29.5111 8.73327 28.611 9.60134 27.6397C10.0932 27.106 10.7522 26.324 11.2563 25.7265C15.8107 26.1175 19.3149 25.2199 19.7133 25.0871C20.633 24.7822 25.839 24.1034 26.685 17.026C27.5604 9.73225 26.2694 5.11892 23.9209 3.03849ZM20.0822 18.777C19.7795 19.3154 19.3935 19.8026 18.9387 20.2205H18.9264C18.3018 20.7566 17.6968 20.9238 17.1017 20.7295C14.5766 19.7474 12.2933 18.2316 10.4079 16.2859C8.44204 14.281 6.95856 11.8548 6.07002 9.19124L5.99625 8.84697C5.85116 7.99365 6.38233 7.42066 7.85535 6.42471L7.8824 6.40504C8.08874 6.27467 8.33197 6.21518 8.57518 6.2356C8.81839 6.25602 9.0483 6.35522 9.23001 6.51816C9.53249 6.73457 10.3883 7.86577 10.3883 7.86577C10.5555 8.11168 11.731 9.56995 11.4604 10.2659C11.367 10.6667 10.6784 11.0848 10.3071 11.4315L10.2776 11.4561C10.1949 11.5752 10.1373 11.7098 10.1081 11.8519C10.0789 11.9939 10.0789 12.1403 10.1079 12.2824L10.1227 12.3439C10.3145 13.2816 10.8571 14.1833 11.7506 15.0489C12.6335 15.9071 13.4991 16.4137 14.3106 16.6178C14.4611 16.6521 14.6181 16.6446 14.7646 16.596C14.9111 16.5475 15.0415 16.4598 15.1418 16.3424L15.6902 15.6366C15.8772 15.4231 16.1346 15.2836 16.4156 15.2434C16.6967 15.2033 16.9828 15.2651 17.2222 15.4178C17.6937 15.6919 18.1508 15.9898 18.5919 16.3104C19.0075 16.6228 19.8584 17.3507 19.8609 17.3531C20.0671 17.524 20.2035 17.7645 20.2443 18.0291C20.2851 18.2938 20.2274 18.5643 20.0822 18.7892V18.777ZM17.1312 9.32895C16.8039 8.96421 16.4034 8.67261 15.9558 8.47318C15.4448 8.25715 14.9011 8.12911 14.3475 8.09447C14.234 8.09023 14.1268 8.04108 14.0496 7.95784C13.9723 7.8746 13.9313 7.76408 13.9356 7.65059C13.9398 7.53711 13.989 7.42996 14.0722 7.35271C14.1554 7.27547 14.266 7.23445 14.3794 7.23869H14.4114C15.8303 7.34689 16.9591 7.85593 17.7608 8.75598C18.5758 9.6792 18.9961 10.8853 18.9313 12.1152C18.93 12.2271 18.8846 12.3341 18.805 12.4128C18.7253 12.4915 18.6179 12.5357 18.5059 12.5357V12.5357C18.3932 12.5318 18.2867 12.4837 18.2093 12.4017C18.132 12.3198 18.0901 12.2106 18.0927 12.0979C18.1465 11.0902 17.8051 10.1012 17.1411 9.34125L17.1312 9.32895ZM14.3672 9.54536H14.3868C15.0244 9.54628 15.6362 9.797 16.091 10.2438C16.5157 10.7375 16.7479 11.368 16.7451 12.0192C16.7505 12.1322 16.7112 12.2427 16.6358 12.327C16.5603 12.4112 16.4547 12.4623 16.3418 12.4693H16.3197C16.2102 12.4687 16.1052 12.426 16.0264 12.35C15.9476 12.2739 15.9012 12.1705 15.8967 12.0611C15.9081 11.6141 15.759 11.1778 15.4762 10.8315C15.1689 10.5452 14.7625 10.3892 14.3426 10.3962C14.2864 10.3946 14.231 10.3819 14.1797 10.3589C14.1285 10.3359 14.0822 10.3031 14.0436 10.2622C14.005 10.2213 13.9748 10.1732 13.9548 10.1207C13.9348 10.0682 13.9253 10.0122 13.927 9.95603C13.9286 9.89984 13.9412 9.84452 13.9642 9.79322C13.9872 9.74193 14.0201 9.69567 14.061 9.65707C14.1019 9.61848 14.1499 9.58832 14.2025 9.56831C14.255 9.5483 14.311 9.53883 14.3672 9.54044V9.54536ZM20.483 12.7127C20.3706 12.7121 20.263 12.667 20.1838 12.5873C20.1045 12.5075 20.06 12.3997 20.0601 12.2873C20.0679 11.3664 19.9156 10.451 19.61 9.58225C19.3337 8.82553 18.8956 8.1382 18.3264 7.56821C17.78 7.0166 17.1286 6.58011 16.4107 6.28455C15.6621 5.98966 14.8643 5.83946 14.0598 5.8419C13.9463 5.8419 13.8374 5.79682 13.7572 5.71658C13.6769 5.63633 13.6319 5.52749 13.6319 5.41401C13.6319 5.30053 13.6769 5.19169 13.7572 5.11145C13.8374 5.0312 13.9463 4.98612 14.0598 4.98612C14.9602 4.97161 15.8544 5.13829 16.6892 5.47626C17.524 5.81422 18.2823 6.31656 18.919 6.95343C19.5731 7.61223 20.0765 8.40509 20.3945 9.27731C20.7291 10.2384 20.8955 11.25 20.8863 12.2676C20.8945 12.3804 20.8576 12.4918 20.7839 12.5775C20.7102 12.6632 20.6056 12.7162 20.4929 12.725L20.483 12.7127Z" fill="#31414B"/>
</svg>
