<svg width="107" height="113" viewBox="0 0 107 113" fill="none" xmlns="http://www.w3.org/2000/svg">
<g clip-path="url(#clip0_204_495)">
<path d="M103.351 100.977H91.1934C90.8716 100.977 90.5629 100.85 90.3354 100.625C90.1078 100.4 89.98 100.095 89.98 99.7772V27.6502C89.9788 27.4368 90.0353 27.227 90.1435 27.0423C90.2517 26.8577 90.4078 26.7049 90.5956 26.5998C90.7834 26.4947 90.9962 26.441 91.2121 26.4443C91.4279 26.4476 91.6389 26.5077 91.8234 26.6185L103.983 33.8312C104.163 33.9379 104.312 34.089 104.416 34.2699C104.519 34.4507 104.574 34.6551 104.573 34.8629V99.7752C104.573 99.9337 104.542 100.091 104.481 100.237C104.419 100.383 104.329 100.516 104.215 100.628C104.102 100.74 103.967 100.828 103.818 100.888C103.67 100.948 103.511 100.978 103.351 100.977ZM92.4068 98.5776H102.137V35.5437L92.4088 29.7735L92.4068 98.5776Z" fill="white"/>
<path d="M62.011 33.6603C61.6892 33.6603 61.3806 33.5339 61.153 33.3089C60.9255 33.0839 60.7976 32.7788 60.7976 32.4607V1.20363C60.7966 0.976719 60.8606 0.754171 60.9824 0.561815C61.1041 0.369459 61.2786 0.215187 61.4854 0.116904C61.6923 0.0186207 61.9231 -0.0196411 62.1511 0.00655992C62.3791 0.0327609 62.5949 0.12235 62.7734 0.264928L74.9308 9.88186C75.0734 9.99429 75.1886 10.1371 75.2677 10.2996C75.3469 10.4621 75.3879 10.6402 75.3878 10.8206V30.4553C75.3885 30.7393 75.2872 31.0143 75.1021 31.2314C74.9169 31.4485 74.6599 31.5936 74.3766 31.6409L62.2183 33.6403C62.1499 33.6528 62.0806 33.6595 62.011 33.6603ZM63.2244 3.70383V31.0391L72.9509 29.4396V11.3984L63.2244 3.70383Z" fill="white"/>
<path d="M32.8287 100.977H13.3748C13.053 100.977 12.7443 100.85 12.5168 100.625C12.2892 100.4 12.1614 100.095 12.1614 99.7772V27.6502C12.1608 27.4558 12.208 27.2642 12.299 27.0919C12.3899 26.9196 12.5218 26.7717 12.6834 26.6609C12.845 26.5502 13.0313 26.4799 13.2264 26.4561C13.4216 26.4324 13.6196 26.4559 13.8035 26.5245L33.2584 33.7372C33.49 33.8228 33.6897 33.9762 33.8306 34.177C33.9716 34.3779 34.0471 34.6164 34.0471 34.8609V99.7752C34.0474 99.9333 34.0161 100.09 33.9549 100.236C33.8937 100.382 33.8039 100.515 33.6907 100.627C33.5774 100.738 33.443 100.827 33.2951 100.887C33.1471 100.947 32.9886 100.977 32.8287 100.977ZM14.5892 98.5776H31.6122V35.6976L14.5892 29.3846V98.5776Z" fill="white"/>
<path d="M13.3746 100.977H3.64919C3.32738 100.977 3.01875 100.85 2.79119 100.625C2.56363 100.4 2.43579 100.095 2.43579 99.7772V34.8609C2.43575 34.6744 2.47969 34.4905 2.56412 34.3237C2.64855 34.1569 2.77114 34.0119 2.92216 33.9002L12.6486 26.6875C12.8291 26.5528 13.044 26.4707 13.2692 26.4503C13.4944 26.4299 13.7208 26.4722 13.923 26.5723C14.1252 26.6724 14.2951 26.8264 14.4135 27.0168C14.5319 27.2073 14.5941 27.4266 14.5931 27.6502V99.7752C14.5934 99.9333 14.562 100.09 14.5008 100.236C14.4396 100.382 14.3499 100.515 14.2366 100.627C14.1234 100.738 13.9889 100.827 13.841 100.887C13.6931 100.947 13.5346 100.977 13.3746 100.977ZM4.8626 98.5776H12.1582V30.0534L4.8626 35.4637V98.5776Z" fill="white"/>
<path d="M42.5561 100.977H32.8286C32.5068 100.977 32.1982 100.85 31.9706 100.625C31.7431 100.4 31.6152 100.095 31.6152 99.7772V14.3464C31.6145 14.1148 31.6814 13.8878 31.8078 13.6928C31.9343 13.4978 32.1149 13.3429 32.3281 13.2468L61.5095 0.103969C61.6946 0.0200545 61.8982 -0.0164169 62.1014 -0.00208518C62.3046 0.0122466 62.5009 0.0769219 62.6721 0.185977C62.8434 0.295033 62.9841 0.444958 63.0813 0.621932C63.1785 0.798905 63.2291 0.99723 63.2284 1.19862V87.75C63.2284 88.0682 63.1006 88.3733 62.8731 88.5983C62.6455 88.8233 62.3369 88.9497 62.015 88.9497H43.7715V99.7682C43.7727 99.9267 43.7422 100.084 43.6816 100.231C43.621 100.377 43.5317 100.511 43.4186 100.623C43.3056 100.735 43.1712 100.825 43.0232 100.885C42.8751 100.946 42.7164 100.977 42.5561 100.977ZM34.0441 98.5776H41.3397V87.7551C41.3397 87.4369 41.4675 87.1318 41.6951 86.9068C41.9226 86.6818 42.2312 86.5554 42.5531 86.5554H60.7925V3.07302L34.0441 15.1202V98.5776Z" fill="white"/>
<path d="M91.1934 100.977H81.4669C81.1451 100.977 80.8365 100.85 80.6089 100.625C80.3814 100.4 80.2535 100.095 80.2535 99.7772V88.9567H62.011C61.6892 88.9567 61.3806 88.8303 61.153 88.6053C60.9254 88.3803 60.7976 88.0752 60.7976 87.757V32.4576C60.7969 32.1737 60.8982 31.8987 61.0833 31.6816C61.2685 31.4645 61.5256 31.3194 61.8088 31.272L90.9901 26.4636C91.1645 26.4344 91.3431 26.4433 91.5136 26.4896C91.6841 26.5358 91.8423 26.6184 91.9771 26.7314C92.1119 26.8444 92.2202 26.9852 92.2942 27.1439C92.3683 27.3026 92.4063 27.4754 92.4058 27.6502V99.7752C92.4061 99.9328 92.3749 100.089 92.3141 100.235C92.2533 100.38 92.1641 100.513 92.0515 100.624C91.9389 100.736 91.8051 100.825 91.6579 100.885C91.5107 100.946 91.3528 100.977 91.1934 100.977ZM82.6814 98.5776H89.977V29.0687L63.2274 33.4763V86.5524H81.4669C81.7888 86.5524 82.0974 86.6788 82.325 86.9038C82.5525 87.1287 82.6803 87.4339 82.6803 87.752L82.6814 98.5776Z" fill="white"/>
<path d="M81.467 113H42.5562C42.2344 113 41.9257 112.874 41.6982 112.649C41.4706 112.424 41.3428 112.119 41.3428 111.8V87.758C41.3428 87.4399 41.4706 87.1347 41.6982 86.9098C41.9257 86.6848 42.2344 86.5584 42.5562 86.5584H81.467C81.7888 86.5584 82.0975 86.6848 82.325 86.9098C82.5526 87.1347 82.6804 87.4399 82.6804 87.758V111.8C82.6804 112.119 82.5526 112.424 82.325 112.649C82.0975 112.874 81.7888 113 81.467 113ZM43.7726 110.595H80.2506V88.9566H43.7726V110.595Z" fill="white"/>
<path d="M105.784 113H1.21448C0.891865 113 0.582459 112.873 0.354333 112.648C0.126206 112.422 -0.00195312 112.116 -0.00195312 111.797C-0.00195312 111.478 0.126206 111.173 0.354333 110.947C0.582459 110.721 0.891865 110.595 1.21448 110.595H105.784C106.106 110.595 106.416 110.721 106.644 110.947C106.872 111.173 107 111.478 107 111.797C107 112.116 106.872 112.422 106.644 112.648C106.416 112.873 106.106 113 105.784 113Z" fill="white"/>
<path d="M45.3924 28.05H39.7207V17.6334H45.3924V28.05ZM40.5296 27.2503H44.5834V18.4331H40.5296V27.2503Z" fill="white"/>
<path d="M52.6911 28.05H47.0144V17.6334H52.6911V28.05ZM47.8264 27.2503H51.8822V18.4331H47.8233L47.8264 27.2503Z" fill="white"/>
<path d="M45.3924 40.0702H39.7207V29.6536H45.3924V40.0702ZM40.5296 39.2705H44.5834V30.4533H40.5296V39.2705Z" fill="white"/>
<path d="M52.6911 40.0702H47.0144V29.6536H52.6911V40.0702ZM47.8264 39.2705H51.8822V30.4533H47.8233L47.8264 39.2705Z" fill="white"/>
<path d="M45.3924 52.0924H39.7207V41.6757H45.3924V52.0924ZM40.5296 51.2926H44.5834V42.4755H40.5296V51.2926Z" fill="white"/>
<path d="M52.6911 52.0924H47.0144V41.6757H52.6911V52.0924ZM47.8264 51.2926H51.8822V42.4755H47.8233L47.8264 51.2926Z" fill="white"/>
<path d="M45.3924 64.1126H39.7207V53.7009H45.3924V64.1126ZM40.5296 63.3128H44.5834V54.5006H40.5296V63.3128Z" fill="white"/>
<path d="M25.9376 52.0924H20.2649V41.6757H25.9376V52.0924ZM21.0738 51.2926H25.1286V42.4755H21.0738V51.2926Z" fill="white"/>
<path d="M25.9376 64.1126H20.2649V53.7009H25.9376V64.1126ZM21.0738 63.3128H25.1286V54.5006H21.0738V63.3128Z" fill="white"/>
<path d="M25.9376 76.1327H20.2649V65.717H25.9376V76.1327ZM21.0738 75.333H25.1286V66.5168H21.0738V75.333Z" fill="white"/>
<path d="M25.9376 88.1549H20.2649V77.7382H25.9376V88.1549ZM21.0738 87.3552H25.1286V78.538H21.0738V87.3552Z" fill="white"/>
<path d="M52.6911 64.1126H47.0144V53.7009H52.6911V64.1126ZM47.8264 63.3128H51.8822V54.5006H47.8233L47.8264 63.3128Z" fill="white"/>
<path d="M72.1419 44.8797H66.4702V36.8672H72.1419V44.8797ZM67.2792 44.08H71.3329V37.667H67.2792V44.08Z" fill="white"/>
<path d="M79.4385 44.8797H73.7659V36.8672H79.4385V44.8797ZM74.5748 44.08H78.6296V37.667H74.5748V44.08Z" fill="white"/>
<path d="M86.7342 44.8797H81.0625V36.8672H86.7342V44.8797ZM81.8714 44.08H85.9252V37.667H81.8714V44.08Z" fill="white"/>
<path d="M72.1419 54.5007H66.4702V46.4832H72.1419V54.5007ZM67.2792 53.7009H71.3329V47.283H67.2792V53.7009Z" fill="white"/>
<path d="M79.4385 54.5007H73.7659V46.4832H79.4385V54.5007ZM74.5748 53.7009H78.6296V47.283H74.5748V53.7009Z" fill="white"/>
<path d="M86.7342 54.5007H81.0625V46.4832H86.7342V54.5007ZM81.8714 53.7009H85.9252V47.283H81.8714V53.7009Z" fill="white"/>
<path d="M72.1419 64.1126H66.4702V56.1002H72.1419V64.1126ZM67.2792 63.3129H71.3329V56.8999H67.2792V63.3129Z" fill="white"/>
<path d="M79.4385 64.1126H73.7659V56.1002H79.4385V64.1126ZM74.5748 63.3129H78.6296V56.8999H74.5748V63.3129Z" fill="white"/>
<path d="M86.7342 64.1126H81.0625V56.1002H86.7342V64.1126ZM81.8714 63.3129H85.9252V56.8999H81.8714V63.3129Z" fill="white"/>
<path d="M72.1419 73.7295H66.4702V65.717H72.1419V73.7295ZM67.2792 72.9297H71.3329V66.5168H67.2792V72.9297Z" fill="white"/>
<path d="M79.4385 73.7295H73.7659V65.717H79.4385V73.7295ZM74.5748 72.9297H78.6296V66.5168H74.5748V72.9297Z" fill="white"/>
<path d="M72.1419 83.3455H66.4702V75.333H72.1419V83.3455ZM67.2792 82.5457H71.3329V76.1328H67.2792V82.5457Z" fill="white"/>
<path d="M45.3924 76.1327H39.7207V65.717H45.3924V76.1327ZM40.5296 75.333H44.5834V66.5168H40.5296V75.333Z" fill="white"/>
<path d="M74.5749 97.7718H49.4473V92.1646H74.5749V97.7718ZM50.2562 96.9721H73.7659V92.9644H50.2562V96.9721Z" fill="white"/>
<path d="M74.5749 104.985H49.4473V99.3754H74.5749V104.985ZM50.2562 104.185H73.7659V100.175H50.2562V104.185Z" fill="white"/>
<path d="M42.5561 113H8.51003C8.18822 113 7.87959 112.874 7.65203 112.649C7.42447 112.424 7.29663 112.119 7.29663 111.8V99.7772C7.29663 99.459 7.42447 99.1539 7.65203 98.9289C7.87959 98.704 8.18822 98.5776 8.51003 98.5776H42.5561C42.8779 98.5776 43.1866 98.704 43.4141 98.9289C43.6417 99.1539 43.7695 99.459 43.7695 99.7772V111.797C43.7699 111.955 43.7388 112.111 43.678 112.257C43.6172 112.403 43.5279 112.536 43.4152 112.648C43.3025 112.759 43.1686 112.848 43.0212 112.908C42.8738 112.969 42.7157 113 42.5561 113ZM9.72647 110.595H41.3397V100.977H9.72647V110.595Z" fill="white"/>
<path d="M93.6253 113C93.3034 113 92.9948 112.874 92.7673 112.649C92.5397 112.424 92.4119 112.119 92.4119 111.8V99.7772C92.4119 99.4583 92.54 99.1524 92.7682 98.9268C92.9963 98.7013 93.3057 98.5746 93.6283 98.5746C93.9509 98.5746 94.2603 98.7013 94.4884 98.9268C94.7166 99.1524 94.8447 99.4583 94.8447 99.7772V111.797C94.8451 111.956 94.8138 112.112 94.7527 112.259C94.6915 112.405 94.6016 112.538 94.4883 112.65C94.3749 112.761 94.2403 112.85 94.0922 112.91C93.9441 112.97 93.7854 113.001 93.6253 113Z" fill="white"/>
</g>
<defs>
<clipPath id="clip0_204_495">
<rect width="107" height="113" fill="white"/>
</clipPath>
</defs>
</svg>
