<svg width="43" height="39" viewBox="0 0 43 39" fill="none" xmlns="http://www.w3.org/2000/svg">
<path d="M41.6934 35.0995C41.7786 35.1035 41.8637 35.0907 41.9439 35.0618C42.0241 35.0329 42.0978 34.9885 42.1608 34.9311C42.2238 34.8737 42.2749 34.8045 42.3111 34.7273C42.3473 34.6501 42.3679 34.5666 42.3718 34.4814V32.0243C42.3679 31.9391 42.3473 31.8556 42.3111 31.7784C42.2749 31.7012 42.2238 31.632 42.1608 31.5745C42.0978 31.5171 42.0241 31.4727 41.9439 31.4438C41.8637 31.415 41.7786 31.4022 41.6934 31.4062H39.6282V30.1701H40.3216C40.4068 30.1742 40.4919 30.1614 40.5721 30.1325C40.6523 30.1036 40.726 30.0592 40.789 30.0018C40.852 29.9444 40.9031 29.8751 40.9393 29.7979C40.9755 29.7208 40.9961 29.6373 41 29.5521V24.6228C40.9961 24.5376 40.9755 24.454 40.9393 24.3769C40.9031 24.2997 40.852 24.2304 40.789 24.173C40.726 24.1156 40.6523 24.0712 40.5721 24.0423C40.4919 24.0134 40.4068 24.0006 40.3216 24.0047H34.1562V19.0905H36.2063C36.3879 19.0885 36.5634 19.0246 36.7038 18.9096L37.3822 18.2915C37.8673 18.5063 38.4143 18.5359 38.9197 18.3748C39.4252 18.2137 39.8542 17.873 40.1257 17.4172C40.239 17.1949 40.3039 16.9511 40.316 16.702C40.3281 16.4528 40.2872 16.2038 40.1961 15.9716C40.1049 15.7394 39.9655 15.5292 39.787 15.3548C39.6086 15.1804 39.3952 15.0459 39.1609 14.9601C38.678 14.7407 38.1311 14.707 37.625 14.8655C37.1188 15.0241 36.6889 15.3637 36.4174 15.8193C36.2841 16.0645 36.2143 16.3392 36.2143 16.6183C36.2143 16.8974 36.2841 17.172 36.4174 17.4172L35.935 17.8544H34.1562V15.3822H34.91C35.0514 15.3938 35.1929 15.3608 35.3146 15.2878C35.4363 15.2148 35.532 15.1054 35.5883 14.9752L36.96 11.2669C36.9904 11.1759 36.998 11.0789 36.9822 10.9843C36.9665 10.8897 36.9278 10.8004 36.8696 10.7242L34.1261 7.63396C34.0016 7.50788 33.8366 7.42969 33.6602 7.41315C33.4837 7.39661 33.3071 7.44278 33.1613 7.54352L33.0558 7.63396L30.3273 10.7242C30.2641 10.7977 30.2211 10.8864 30.2026 10.9815C30.1841 11.0767 30.1908 11.1751 30.2218 11.2669L31.5936 14.9752C31.6414 15.0899 31.7204 15.1888 31.8217 15.2608C31.9229 15.3327 32.0424 15.3748 32.1664 15.3822H32.8599V17.8544H31.0811L30.5987 17.4172C30.7121 17.1938 30.7771 16.949 30.7893 16.6988C30.8016 16.4485 30.7609 16.1985 30.6698 15.9651C30.5787 15.7317 30.4393 15.5202 30.2608 15.3444C30.0823 15.1686 29.8687 15.0325 29.6339 14.945C29.1488 14.7303 28.6018 14.7007 28.0963 14.8618C27.5908 15.0229 27.1618 15.3635 26.8904 15.8193C26.7771 16.0416 26.7122 16.2854 26.7001 16.5346C26.688 16.7838 26.7288 17.0327 26.82 17.2649C26.9112 17.4972 27.0506 17.7074 27.2291 17.8818C27.4075 18.0561 27.6209 18.1907 27.8552 18.2765C28.1365 18.3959 28.4389 18.4574 28.7445 18.4574C29.0501 18.4574 29.3526 18.3959 29.6339 18.2765L30.3123 18.8945C30.4473 19.0109 30.6167 19.0797 30.7946 19.0905H32.8599V24.0047H25.4131C26.2575 22.5048 26.6989 20.8117 26.6944 19.0905C26.7307 16.5143 25.743 14.029 23.9482 12.1806C22.1534 10.3321 19.6984 9.27153 17.1222 9.23184C14.7276 9.2299 12.4235 10.1472 10.6854 11.7945L8.2283 1.09169C8.21294 0.9211 8.13219 0.763053 8.00293 0.65066C7.87368 0.538267 7.70597 0.480253 7.5349 0.488729C7.3654 0.480436 7.19944 0.538932 7.07261 0.651672C6.94578 0.764413 6.86821 0.922397 6.85658 1.09169L0.012802 30.6676C-0.00630637 30.7577 -0.00400078 30.851 0.0195645 30.94C0.0431298 31.029 0.0872901 31.1113 0.148466 31.1801C0.29867 31.324 0.498233 31.4049 0.70621 31.4062H6.85658V37.5566H0.012802V38.7926H42.4471V37.5566H40.9397V35.0995H41.6934ZM38.2716 16.0002C38.3567 15.9962 38.4418 16.009 38.522 16.0378C38.6022 16.0667 38.6759 16.1111 38.7389 16.1685C38.8019 16.226 38.853 16.2952 38.8892 16.3724C38.9254 16.4496 38.946 16.5331 38.9499 16.6183C38.946 16.7034 38.9254 16.787 38.8892 16.8642C38.853 16.9413 38.8019 17.0106 38.7389 17.068C38.6759 17.1254 38.6022 17.1698 38.522 17.1987C38.4418 17.2276 38.3567 17.2404 38.2716 17.2363C38.0981 17.2446 37.9282 17.1845 37.7986 17.069C37.6689 16.9534 37.5897 16.7916 37.5781 16.6183C37.5897 16.445 37.6689 16.2832 37.7986 16.1676C37.9282 16.0521 38.0981 15.9919 38.2716 16.0002ZM33.4779 8.97556L34.7894 10.483H32.1664L33.4779 8.97556ZM31.6991 11.689H35.2567L34.3522 14.1611H32.6036L31.6991 11.689ZM28.0059 16.6183C28.0098 16.5331 28.0304 16.4496 28.0666 16.3724C28.1028 16.2952 28.1539 16.226 28.2169 16.1685C28.2799 16.1111 28.3536 16.0667 28.4338 16.0378C28.514 16.009 28.5991 15.9962 28.6842 16.0002C28.8577 15.9919 29.0275 16.0521 29.1572 16.1676C29.2868 16.2832 29.366 16.445 29.3776 16.6183C29.366 16.7916 29.2868 16.9534 29.1572 17.069C29.0275 17.1845 28.8577 17.2446 28.6842 17.2363C28.5991 17.2404 28.514 17.2276 28.4338 17.1987C28.3536 17.1698 28.2799 17.1254 28.2169 17.068C28.1539 17.0106 28.1028 16.9413 28.0666 16.8642C28.0304 16.787 28.0098 16.7034 28.0059 16.6183ZM40.9397 33.8181H20.4838V32.582H40.9397V33.8181ZM17.68 28.8888C18.6211 28.8271 19.5468 28.6186 20.4235 28.2708V29.5069C20.4274 29.592 20.448 29.6756 20.4842 29.7527C20.5204 29.8299 20.5715 29.8992 20.6345 29.9566C20.6975 30.014 20.7712 30.0584 20.8514 30.0873C20.9316 30.1162 21.0167 30.1289 21.1018 30.1249H21.7802V31.361H19.8356C19.7504 31.3569 19.6653 31.3697 19.5851 31.3986C19.5049 31.4275 19.4312 31.4719 19.3682 31.5293C19.3052 31.5867 19.2541 31.656 19.2179 31.7332C19.1817 31.8103 19.1611 31.8939 19.1572 31.9791V34.4362C19.1611 34.5213 19.1817 34.6049 19.2179 34.6821C19.2541 34.7592 19.3052 34.8285 19.3682 34.8859C19.4312 34.9433 19.5049 34.9877 19.5851 35.0166C19.6653 35.0455 19.7504 35.0583 19.8356 35.0542H20.529V37.5114H17.7855L17.68 28.8888ZM34.0959 31.361V30.1249H35.4677V31.361H34.0959ZM32.7392 31.361H25.8955V30.1249H32.7392V31.361ZM24.5237 31.361H23.152V30.1249H24.5237V31.361ZM21.7802 35.0542H23.152V37.5114H21.7802V35.0542ZM24.5237 35.0542H32.7392V37.5114H24.5237V35.0542ZM34.0959 35.0542H36.8395V37.5114H34.1562L34.0959 35.0542ZM38.2112 31.361H36.8395V30.1249H38.2112V31.361ZM39.5679 28.8888H21.7802V25.1956H39.5679V28.8888ZM16.9564 10.4076C19.1875 10.4708 21.3028 11.415 22.8396 13.0337C24.3764 14.6524 25.2095 16.8139 25.1568 19.0453C25.1581 20.7974 24.6329 22.5094 23.6494 23.9595H21.0265C20.9413 23.9554 20.8562 23.9682 20.776 23.9971C20.6958 24.026 20.6221 24.0704 20.5591 24.1278C20.4961 24.1852 20.445 24.2545 20.4088 24.3316C20.3726 24.4088 20.352 24.4924 20.3481 24.5775V26.8689C19.4848 27.2789 18.5562 27.534 17.6046 27.6226V21.7586L20.1521 19.4824L19.1723 18.6081L17.6649 20.01V17.8092H16.2931V23.1003L15.4188 22.3013L14.439 23.1756L16.2931 24.8338V27.6226C15.5415 27.5614 14.8041 27.3834 14.1073 27.095L10.8965 13.2718C11.656 12.3802 12.6015 11.6658 13.6667 11.1788C14.7318 10.6918 15.8907 10.444 17.0619 10.4529L16.9564 10.4076ZM1.36949 30.1249L7.39923 4.19701L13.429 30.1249H8.12282V22.9797L9.97694 21.3215L8.99711 20.4472L8.12282 21.2461V18.4272H6.75105V24.9393L5.24361 23.5224L4.27883 24.3966L6.81131 26.6879V30.1249H1.36949ZM8.06251 31.361H14.2128C14.4165 31.3605 14.6117 31.2792 14.7555 31.1349C14.8138 31.0643 14.8562 30.982 14.8796 30.8935C14.903 30.805 14.907 30.7125 14.8912 30.6224L14.4088 28.527C15.0127 28.7055 15.6346 28.8167 16.263 28.8586V37.5114H8.06251V31.361ZM39.5227 37.5114H38.166V35.0542H39.5227V37.5114Z" fill="#2EB04A"/>
</svg>
