<svg id="Layer_1" data-name="Layer 1" xmlns="http://www.w3.org/2000/svg" viewBox="0 0 295.96 147.93"><defs><style>.cls-1{fill:#2e2d2c;}.cls-2{fill:#2fb04a;}</style></defs><path class="cls-1" d="M313.94,183.81h-6.7V164.47h6.7l4.5,7.31a27.2,27.2,0,0,1,1.82,3.42h.21a20.22,20.22,0,0,1-.61-4.58v-6.15h6.72v19.34h-6.72L315,176.18a23.49,23.49,0,0,1-1.33-2.52h-.2a20.58,20.58,0,0,1,.43,3.57ZM293.5,170.27a3.31,3.31,0,0,0-2.52,1,4.06,4.06,0,0,0-1.11,2.9A3.86,3.86,0,0,0,291,177a3.7,3.7,0,0,0,5,0,3.89,3.89,0,0,0,1.1-2.87,3.82,3.82,0,0,0-1.1-2.9A3.41,3.41,0,0,0,293.5,170.27Zm10.73,3.86a9.58,9.58,0,0,1-2.7,7,11.92,11.92,0,0,1-16.06,0,10.42,10.42,0,0,1,0-14,12,12,0,0,1,16.06,0A9.59,9.59,0,0,1,304.23,174.13Zm-26.69,9.68h-6.9V170.59l-3.94.17v-6.29h14.79v6.29l-3.95-.17Zm-34.68,0-6.79-19.34h7.28l2.12,9.17a12,12,0,0,1,.32,2.37H246a16.4,16.4,0,0,1,.5-3.24l2.11-8.3H254l2.23,8.81a16.5,16.5,0,0,1,.41,2.73h.14a15.66,15.66,0,0,1,.43-3.1l2-8.44h7.31l-6.82,19.34h-6.12l-1.83-7.89a18.87,18.87,0,0,1-.38-2.64h-.23a15.76,15.76,0,0,1-.28,2.64l-2,7.89Zm-7.86,0H221.77V164.47h13v5.31h-6v1.79h5.48v5.08h-5.48v1.85H235Zm-29.76,0h-6.7V164.47h6.7l4.5,7.31a27.2,27.2,0,0,1,1.82,3.42h.21a19.67,19.67,0,0,1-.61-4.58v-6.15h6.72v19.34h-6.72l-4.82-7.63a23.49,23.49,0,0,1-1.33-2.52h-.21a19.81,19.81,0,0,1,.44,3.57Z" transform="translate(-52.51 -125.84)"/><path class="cls-1" d="M296.76,213.65H283.54V194.31h13v5.31h-6v1.79H296v5.08h-5.48v1.85h6.2Zm-16.87-18.09L278,200.48a7,7,0,0,0-3.94-1.44,2.16,2.16,0,0,0-1.33.34.82.82,0,0,0-.36.7,1.05,1.05,0,0,0,.06.4.8.8,0,0,0,.32.32,2.11,2.11,0,0,0,.76.29l2.23.5a6.53,6.53,0,0,1,3.31,1.66,5.11,5.11,0,0,1,1.48,3.82,6.36,6.36,0,0,1-1.75,4.55,9.06,9.06,0,0,1-6.81,2.47,13.86,13.86,0,0,1-2.72-.27,15.32,15.32,0,0,1-2-.52l-1.85-.72-.64-.26,2.11-5.46.76.59a6.38,6.38,0,0,0,3.91,1.42,2.48,2.48,0,0,0,1.51-.35,1.08,1.08,0,0,0,.38-.87.92.92,0,0,0-.23-.67,3.14,3.14,0,0,0-1.34-.46l-1.7-.32a6.21,6.21,0,0,1-3.38-1.66,4.89,4.89,0,0,1-1.38-3.56,6.24,6.24,0,0,1,1.88-4.61,9,9,0,0,1,6.73-2.5A11.18,11.18,0,0,1,279.89,195.56Zm-36,11.11V194.31h7v11.22a2.78,2.78,0,0,0,.61,2,1.78,1.78,0,0,0,1.39.53,1.91,1.91,0,0,0,1.42-.47,2.83,2.83,0,0,0,.53-2V194.31h7v11.86a7.58,7.58,0,0,1-2,5.51c-1.57,1.6-3.88,2.41-6.91,2.41-3.2,0-5.6-.86-7.18-2.56A6.82,6.82,0,0,1,243.84,206.67Zm-13.74-6.56a3.34,3.34,0,0,0-2.53,1,4.07,4.07,0,0,0-1.1,2.9,3.89,3.89,0,0,0,1.1,2.87,3.72,3.72,0,0,0,5.05,0,3.89,3.89,0,0,0,1.1-2.87,3.82,3.82,0,0,0-1.1-2.9A3.45,3.45,0,0,0,230.1,200.11ZM240.82,204a9.58,9.58,0,0,1-2.69,7,11.92,11.92,0,0,1-16.06,0,10.42,10.42,0,0,1,0-14,11.92,11.92,0,0,1,16.06,0A9.58,9.58,0,0,1,240.82,204Zm-35.52,9.68h-6.76V194.31h6.76v6.55h4.29v-6.55h6.76v19.34h-6.76v-6.72H205.3Z" transform="translate(-52.51 -125.84)"/><path class="cls-2" d="M328.8,232.79a19.83,19.83,0,0,1-.38-2.17h-.26a10,10,0,0,1-.32,2.17l-1,3.71h2.82Zm2.12,8.29h-5.34l-.52,2.41h-7.43l6.7-19.34h7.77L339,243.49h-7.46ZM303,243.49h-6.7V224.15H303l4.5,7.31a27.2,27.2,0,0,1,1.82,3.42h.21a20.3,20.3,0,0,1-.61-4.58v-6.15h6.72v19.34H309l-4.82-7.63a23.49,23.49,0,0,1-1.33-2.52h-.2a20.58,20.58,0,0,1,.43,3.57Zm-10.58,0h-7V224.15h7ZM270.8,230.07v7.5h.53a4.37,4.37,0,0,0,3-.89,3.52,3.52,0,0,0,1.13-2.79,3.79,3.79,0,0,0-1.13-2.89,3.85,3.85,0,0,0-2.75-.93ZM273,243.49h-9.2V224.15h7.46q5.59,0,8.55,2.93a9.44,9.44,0,0,1,2.61,7,9,9,0,0,1-2.49,6.7A9.28,9.28,0,0,1,273,243.49ZM253.2,218h3.08a4.59,4.59,0,0,1-1.4,3.05,6.09,6.09,0,0,1-7.82,0,4.59,4.59,0,0,1-1.4-3.05h3.07a1.84,1.84,0,0,0,.7,1.19,2.53,2.53,0,0,0,1.54.43,2.61,2.61,0,0,0,1.54-.43A1.83,1.83,0,0,0,253.2,218Zm-1.51,14.76c-.15-.66-.28-1.38-.38-2.17h-.25a10.64,10.64,0,0,1-.32,2.17l-1,3.71h2.82Zm2.12,8.29h-5.33l-.53,2.41h-7.42l6.7-19.34H255l6.9,19.34h-7.45ZM228.7,229.46v3.31h.81a2.18,2.18,0,0,0,1.48-.44,1.51,1.51,0,0,0,.5-1.19,1.65,1.65,0,0,0-.38-1.16,1.52,1.52,0,0,0-1.19-.52Zm0,14h-6.85V224.15h8.73a12.23,12.23,0,0,1,3.3.4,6.11,6.11,0,0,1,2.62,1.6,6.44,6.44,0,0,1,1.83,4.76,5.29,5.29,0,0,1-1.07,3.45,4.49,4.49,0,0,1-2.67,1.54v.17a2.54,2.54,0,0,1,1,.9l4.35,6.52h-8.09l-2.78-5.65-.12-.21-.15-.4-.11.06ZM208,236.83v-4.59h10.88v.43a19.15,19.15,0,0,1-.49,4.41,8.2,8.2,0,0,1-2,3.68,9.38,9.38,0,0,1-3.6,2.34,12.9,12.9,0,0,1-4.61.83,10.33,10.33,0,0,1-8-3.19,10.78,10.78,0,0,1,.17-14q2.92-3,8.12-3a11.84,11.84,0,0,1,5.68,1.37,9.34,9.34,0,0,1,3.72,3.57l-6.55,2.43a3,3,0,0,0-2.68-1.48,3.52,3.52,0,0,0-2.46.9,4.69,4.69,0,0,0-1.42,3.65,4.54,4.54,0,0,0,1.28,3.46,3.2,3.2,0,0,0,2.28.87c1.51,0,2.47-.55,2.87-1.65Z" transform="translate(-52.51 -125.84)"/><path class="cls-2" d="M339.77,247.87h3.08a4.54,4.54,0,0,1-1.4,3,6.07,6.07,0,0,1-7.83,0,4.53,4.53,0,0,1-1.39-3h3.07a1.84,1.84,0,0,0,.7,1.19,2.51,2.51,0,0,0,1.54.43,2.56,2.56,0,0,0,1.53-.43,1.8,1.8,0,0,0,.7-1.19m-1.51,14.76a19.83,19.83,0,0,1-.38-2.17h-.25a10.64,10.64,0,0,1-.32,2.17l-1,3.71h2.82Zm2.12,8.29h-5.33l-.53,2.41H327.1L333.8,254h7.77l6.9,19.34H341Zm-14.33-5.16-.2,7.23a13.93,13.93,0,0,1-4.87.78,9.67,9.67,0,0,1-7.13-2.81,9.54,9.54,0,0,1-2.81-7.14,10.07,10.07,0,0,1,2.89-7.34,9.94,9.94,0,0,1,7.31-2.93,14.42,14.42,0,0,1,4.61.76l.2,7.37a5.7,5.7,0,0,0-4.08-1.92,3.65,3.65,0,0,0-2.82,1.19,3.93,3.93,0,0,0-1,2.76,3.75,3.75,0,0,0,1.12,2.77,4,4,0,0,0,2.88,1.11A5.1,5.1,0,0,0,326.05,265.76Zm-18,7.57h-7V254h7Zm-23.55,0h-6.7V254h6.7L289,261.3a25.51,25.51,0,0,1,1.83,3.42H291a19.81,19.81,0,0,1-.61-4.58V254h6.72v19.34h-6.72l-4.82-7.63a23.49,23.49,0,0,1-1.33-2.52H284a19.81,19.81,0,0,1,.44,3.57Zm-18.85-10.7a19.83,19.83,0,0,1-.38-2.17H265a10.64,10.64,0,0,1-.32,2.17l-1,3.71h2.82Zm2.12,8.29h-5.33l-.53,2.41h-7.42l6.7-19.34h7.76l6.91,19.34h-7.46Zm-16.56,2.41h-6.91V260.11l-3.94.17V254h14.79v6.29l-3.94-.17ZM228,259.79a3.32,3.32,0,0,0-2.52,1,4.07,4.07,0,0,0-1.1,2.9,3.89,3.89,0,0,0,1.1,2.87,3.72,3.72,0,0,0,5.05,0,3.89,3.89,0,0,0,1.1-2.87,3.82,3.82,0,0,0-1.1-2.9A3.45,3.45,0,0,0,228,259.79Zm10.73,3.86a9.6,9.6,0,0,1-2.7,7,11.92,11.92,0,0,1-16.06,0,10.45,10.45,0,0,1,0-14,11.92,11.92,0,0,1,16.06,0A9.57,9.57,0,0,1,238.76,263.65ZM205,265.47v3.19h1.42a2.78,2.78,0,0,0,1.48-.32,1.44,1.44,0,0,0,.67-1.31,1.38,1.38,0,0,0-.53-1.15,2.33,2.33,0,0,0-1.53-.41Zm0-6.84v2.78h1.1a1.87,1.87,0,0,0,1.34-.43,1.41,1.41,0,0,0,.37-1,1.27,1.27,0,0,0-.43-1,2,2,0,0,0-1.28-.32Zm-6.5,14.7V254H207q4.07,0,5.77,1.63a4.9,4.9,0,0,1,1.48,3.76,4.17,4.17,0,0,1-.81,2.67,3.69,3.69,0,0,1-1.68,1.19l0,.17a4.73,4.73,0,0,1,2,1.17,4.55,4.55,0,0,1,1.42,3.36,4.8,4.8,0,0,1-1.82,3.91,7.69,7.69,0,0,1-5,1.48Z" transform="translate(-52.51 -125.84)"/><path class="cls-1" d="M176.11,273.72H52.51V164.52l.12-.08,60.85-38.6.14.08,62.49,38.38ZM53,273.2H175.6V164.59l-62.11-38.14L53,164.8Z" transform="translate(-52.51 -125.84)"/><path class="cls-1" d="M168.57,266.18H60.05V168.67l.12-.08,53.38-33.86.13.08,54.89,33.71Zm-108-.52H168.05V168.81l-54.5-33.47L60.57,169Z" transform="translate(-52.51 -125.84)"/><path class="cls-1" d="M161,258.63H67.6V172.81l.12-.07,45.89-29.12.14.09,47.28,29Zm-92.92-.51h92.4V173l-46.89-28.8L68.11,173.1Z" transform="translate(-52.51 -125.84)"/><path class="cls-2" d="M154,251.61H74.62V176.68l39.05-24.78L154,176.67Zm-77.83-1.55h76.28V177.54l-38.77-23.81-37.51,23.8Z" transform="translate(-52.51 -125.84)"/><polygon class="cls-1" points="34.24 58.48 34.24 110.7 61.8 110.7 89.36 110.7 89.36 58.48 61.35 41.28 34.24 58.48"/></svg>