<svg width="51" height="56" viewBox="0 0 51 56" fill="none" xmlns="http://www.w3.org/2000/svg">
<g clip-path="url(#clip0_241_222)">
<path d="M18.0864 1.36941C17.3209 2.31288 17.2888 3.86775 18.0151 4.84209L35.2937 28.0264L17.0753 50.4811C16.3098 51.4246 16.2777 52.9794 17.004 53.9538C17.7301 54.9281 18.9393 54.953 19.7049 54.0094L39.3095 29.8461C39.6771 29.393 39.8912 28.7726 39.9046 28.1213C39.918 27.4701 39.7295 26.8413 39.3809 26.3736L20.7874 1.42518C20.0614 0.450671 18.852 0.425774 18.0864 1.36941Z" fill="#2BB018"/>
</g>
<g clip-path="url(#clip1_241_222)">
<path d="M9.65318 7.04112C9.06253 7.77503 9.03754 8.98438 9.59767 9.7421L22.9239 27.772L8.86678 45.2391C8.27614 45.973 8.25114 47.1823 8.81127 47.9401C9.37131 48.6978 10.3041 48.717 10.8949 47.983L26.0216 29.1868C26.3053 28.8343 26.4705 28.3518 26.4809 27.8453C26.4913 27.3388 26.346 26.8497 26.0771 26.486L11.7368 7.08415C11.1769 6.3263 10.2439 6.30709 9.65318 7.04112Z" fill="#2BB018"/>
</g>
<defs>
<clipPath id="clip0_241_222">
<rect x="6.88037" y="54.465" width="54.0343" height="42.0267" rx="21.0133" transform="rotate(-88.8206 6.88037 54.465)" fill="white"/>
</clipPath>
<clipPath id="clip1_241_222">
<rect x="1.00146" y="48.339" width="42.0267" height="32.4206" rx="16.2103" transform="rotate(-88.8206 1.00146 48.339)" fill="white"/>
</clipPath>
</defs>
</svg>
