<svg width="108" height="82" viewBox="0 0 108 82" fill="none" xmlns="http://www.w3.org/2000/svg">
<path d="M108 80.7838H0V82H108V80.7838Z" fill="#31414B"/>
<path d="M108 82L99.0516 78.069C98.9206 77.6051 98.7895 77.142 98.6584 76.6799L108 80.7838" fill="#31414B"/>
<path d="M57.846 23.2938V19.4993C57.8458 18.9763 57.663 18.4699 57.3294 18.068C56.9959 17.6661 56.5325 17.3942 56.0199 17.2994V0.00267792H55.212V17.2994C54.6984 17.393 54.2338 17.6645 53.8991 18.0665C53.5645 18.4685 53.381 18.9755 53.3805 19.4993V23.2938C51.4226 23.7919 49.6861 24.9308 48.4456 26.5304C47.2052 28.1301 46.5316 30.0991 46.5316 32.1259H64.6896C64.6898 30.0998 64.017 28.1313 62.7776 26.5318C61.5382 24.9323 59.8029 23.7929 57.846 23.2938Z" fill="#31414B"/>
<path d="M55.5365 35.1624C56.2633 35.1625 56.9672 34.9066 57.5253 34.4394C58.0834 33.9722 58.4604 33.3232 58.5907 32.6057H52.481C52.6115 33.3233 52.9888 33.9723 53.5472 34.4395C54.1055 34.9067 54.8095 35.1625 55.5365 35.1624Z" fill="#31414B"/>
<path d="M5.42424 60.6358V74.7313H29.3835V60.6358H5.42424ZM27.948 73.2895H6.85975V62.0736H27.948V73.2895Z" fill="#31414B"/>
<path d="M20.9779 65.9208H13.8286V67.6505H20.9779V65.9208Z" fill="#31414B"/>
<path d="M18.1216 52.4104H16.6861V59.5845H18.1216V52.4104Z" fill="#31414B"/>
<path d="M9.58398 79.2987L11.0505 73.3516L12.6799 73.9138L10.1927 79.5095L9.58398 79.2987Z" fill="#31414B"/>
<path d="M24.6151 79.5095L22.1279 73.9138L23.7573 73.3516L25.2238 79.2987L24.6151 79.5095Z" fill="#31414B"/>
<path d="M22.1077 58.5562H12.7014V61.3561H22.1077V58.5562Z" fill="#31414B"/>
<path d="M20.3517 46.1147H14.4561L11.9608 53.4685H22.847L20.3517 46.1147ZM13.9673 52.028L15.4863 47.5565H19.3242L20.8405 52.028H13.9673Z" fill="#31414B"/>
<path d="M102.863 53.7685V53.7347C102.693 52.5469 102.222 51.7632 101.463 51.4051C100.705 51.047 99.8475 51.247 99.29 51.4659C99.1451 51.2969 98.9708 51.1559 98.7756 51.0497C97.8518 50.5362 96.4001 50.6443 94.4556 51.3902C94.1951 51.131 93.8692 50.9479 93.5129 50.8605C92.1097 50.4916 90.2015 51.3713 89.2939 51.8591C88.8388 51.5837 88.3364 51.3963 87.8126 51.3064C86.87 51.1416 85.4479 51.2429 83.9518 52.6172C82.3951 52.3469 81.1629 52.5158 80.2849 53.1185C79.9162 53.3676 79.6138 53.7035 79.4042 54.0969C78.4764 53.8888 77.6617 53.9901 76.9803 54.4063C76.5043 54.7074 76.132 55.148 75.9137 55.6684C75.6444 56.3103 75.6444 56.8738 75.9393 57.3927C76.0619 57.6089 76.1831 57.8359 76.2975 58.0684C76.5116 58.4994 76.7204 58.9616 76.9332 59.4859C77.2906 60.3783 77.6026 61.2885 77.8677 62.2128C78.0589 62.8777 78.2192 63.4979 78.3565 64.1046C78.3754 64.1884 78.3929 64.2695 78.4118 64.3546C78.2892 64.867 78.3017 65.4026 78.4481 65.9086C78.4528 65.9262 78.4586 65.9433 78.4656 65.96C78.6932 66.7302 79.0352 67.5964 80.1193 68.2707L76.544 78.9933L76.307 79.7041C76.2556 79.8506 76.2637 80.0114 76.3295 80.152C76.3952 80.2925 76.5134 80.4015 76.6584 80.4554C76.7217 80.477 76.7882 80.488 76.855 80.4879C76.9721 80.4864 77.0861 80.4497 77.1821 80.3825C77.2782 80.3153 77.3519 80.2206 77.3937 80.1109L77.834 78.9933L81.8753 68.7572C82.5042 68.9194 83.6044 69.1802 85.6822 69.3693L85.2486 77.0718C85.2343 77.2256 85.2813 77.3788 85.3791 77.4981C85.477 77.6173 85.6179 77.6929 85.7711 77.7082C85.7908 77.7096 85.8106 77.7096 85.8304 77.7082C85.9749 77.7096 86.1148 77.6565 86.2222 77.5594C86.3297 77.4623 86.397 77.3284 86.4108 77.1839L87.2995 69.4585C87.9729 69.5045 88.5115 69.5342 89.2629 69.5436L89.9362 78.9879L90.0574 80.7176H91.2775L91.1886 78.9879L90.7011 69.5423C91.8727 69.5247 92.876 69.4585 94.403 69.2977L97.9043 78.9879L98.1521 79.6758C98.1883 79.786 98.2563 79.883 98.3474 79.9544C98.4386 80.0258 98.5488 80.0685 98.6642 80.0771C98.7795 80.0856 98.8948 80.0596 98.9954 80.0024C99.096 79.9451 99.1774 79.8592 99.2294 79.7555C99.2987 79.6191 99.3113 79.4607 99.2644 79.315L99.1661 78.9879L96.1752 68.9585C96.7744 68.5869 98.1723 67.5262 98.9627 65.31C99.2245 64.5533 99.5307 63.8128 99.8798 63.0925C100.822 61.175 102.473 57.4278 102.861 53.8685V53.8036C102.864 53.7996 102.864 53.7834 102.863 53.7685ZM94.6562 52.5672C96.8835 51.6821 97.8275 51.8713 98.1911 52.0645C98.2201 52.0796 98.248 52.0968 98.2746 52.1159C96.1388 54.0077 94.8191 56.8211 94.0798 58.8913C93.64 60.1256 93.2894 61.3901 93.0308 62.675L92.7467 62.6398C92.2982 57.0008 94.2428 53.2874 94.6562 52.5672ZM88.6327 52.8199C88.2866 55.1576 88.1964 60.3561 88.1749 62.3777C87.5164 62.3561 86.7892 62.3358 85.9731 62.3182C86.1253 58.3292 85.1315 54.5374 84.8083 53.4239C86.5212 51.8956 88.0173 52.4631 88.6327 52.8199ZM79.3598 63.2168C79.0083 61.7872 78.2448 59.1008 77.0032 56.8833C76.9465 56.7842 76.9168 56.6719 76.917 56.5576C76.9165 56.4849 76.9283 56.4127 76.952 56.3441C77.0657 55.9604 77.3024 55.6251 77.6253 55.3901C77.8871 55.2281 78.1905 55.1469 78.4979 55.1563C78.7949 55.1613 79.0898 55.2067 79.3746 55.2914C79.8082 56.0684 81.746 59.6588 81.9884 62.3263C81.3111 62.4196 80.1987 62.6506 79.3598 63.2168ZM79.5577 64.6263C80.0964 63.8155 81.7729 63.4939 82.6092 63.4398H82.7533C83.125 63.4398 84.1121 63.4533 85.355 63.4763C86.5454 63.4993 87.6752 63.529 88.7216 63.5668L92.1555 63.7601C92.3831 63.7803 92.5945 63.802 92.7803 63.8263C92.6457 64.3938 92.5231 64.9843 92.4141 65.5911C90.6082 65.6249 82.4395 65.7451 79.5119 65.256C79.4892 65.045 79.5047 64.8317 79.5577 64.6263ZM100.786 57.8116C100.417 58.9449 99.99 60.0581 99.5054 61.1466C99.3277 61.552 99.1297 61.948 98.9412 62.3371C98.8213 62.5817 98.7001 62.8263 98.5857 63.0709C98.4039 63.456 98.2544 63.8547 98.1103 64.2398C98.0053 64.5195 97.8975 64.8073 97.7817 65.0816C97.5859 65.5378 97.3349 65.968 97.0343 66.3627C96.5909 66.9459 96.0479 67.4455 95.4305 67.8383C95.3188 67.9099 95.2137 67.9734 95.1073 68.0302C95.0846 68.0424 95.0625 68.056 95.0413 68.0707L94.9996 68.0951C93.3566 68.277 91.7051 68.3713 90.0521 68.3775H89.8366C84.9214 68.3694 81.7487 67.5424 81.3932 67.4451C80.9167 67.2144 80.4853 66.9 80.1193 66.5167C83.9235 66.9397 91.9535 66.7748 92.9231 66.7519C93.0586 66.7487 93.1888 66.6983 93.2913 66.6093C93.3938 66.5202 93.4621 66.3982 93.4846 66.264C94.6306 59.4764 96.9859 56.6103 98.7473 55.3995C99.594 54.8014 100.588 54.4476 101.621 54.3766C101.435 55.5423 101.156 56.691 100.786 57.8116Z" fill="#31414B"/>
<path d="M73.168 65.3654C73.168 65.3492 73.168 65.3343 73.168 65.3195C73.168 64.9546 72.7734 64.7789 71.552 64.6046C70.6754 64.4776 69.423 64.3654 67.8299 64.2668C65.0936 64.1019 61.6004 63.9965 57.8217 63.9668L57.6871 64.5843C65.4114 64.6397 70.4801 64.9897 72.0961 65.3195C70.3374 65.6708 64.5024 66.0613 55.6146 66.0613C46.7268 66.0613 40.8919 65.6708 39.1332 65.3195C40.7491 64.9965 45.8232 64.6438 53.5421 64.5843L53.4075 63.9668C49.6369 63.9965 46.1357 64.1019 43.398 64.2668C41.8049 64.3654 40.5539 64.4776 39.6772 64.6046C38.4504 64.7816 38.0612 64.9546 38.0612 65.3195C38.0612 65.3343 38.0612 65.3492 38.0612 65.3654C38.07 65.5126 38.07 65.6601 38.0612 65.8073V65.8154C38.0612 66.1789 38.4545 66.3559 39.6772 66.5289C40.5539 66.6559 41.8049 66.7708 43.398 66.8667C44.991 66.9626 46.875 67.041 48.9084 67.0951V78.6217C48.9084 79.1001 49.3124 79.4987 49.9857 79.8163C51.2475 80.4163 53.4479 80.7244 55.6308 80.7244C57.8137 80.7244 60.0141 80.4163 61.2759 79.8163C61.9492 79.4987 62.3532 79.1001 62.3532 78.6217V67.0937C64.3731 67.0424 66.2315 66.9667 67.8299 66.8681C69.4284 66.7694 70.6754 66.6573 71.5507 66.5302C72.7774 66.3546 73.1666 66.1802 73.1666 65.8167C73.1588 65.6664 73.1593 65.5157 73.168 65.3654ZM61.4523 78.6082C61.3513 78.9623 59.3125 79.7879 55.8045 79.8122H55.4692C51.9585 79.7879 49.9183 78.9622 49.8133 78.6177V67.1113C49.847 67.1113 49.8833 67.1113 49.9197 67.1113L50.4584 67.1208H50.7169C50.8812 67.1208 51.0482 67.1289 51.2152 67.1302H51.4845C52.0689 67.1383 52.6628 67.1464 53.2661 67.1505C54.039 67.1577 54.8219 67.1608 55.6146 67.1599C56.4073 67.159 57.1942 67.1559 57.9753 67.1505C58.7509 67.1505 59.5145 67.1356 60.2645 67.1208H60.6376H61.0065L61.4496 67.1113L61.4523 78.6082Z" fill="#31414B"/>
<path d="M58.0978 58.6075H56.5209C56.5977 58.4557 56.685 58.3094 56.7821 58.1697C57.7557 57.1211 58.3348 54.4725 58.3348 54.4712C58.2975 54.5769 58.2492 54.6783 58.1907 54.7739L58.0695 55.0266C58.0089 55.1522 57.947 55.2779 57.8837 55.4022C57.8204 55.5265 57.749 55.6522 57.6871 55.7792C57.5955 55.9603 57.5295 56.163 57.4433 56.3495C57.3408 56.5339 57.2179 56.7061 57.077 56.863C56.8899 57.1143 56.7175 57.3751 56.5384 57.6332C56.4347 57.7832 56.3337 57.9386 56.2165 58.0792C57.0515 57.04 57.9281 53.5577 57.9281 53.5577C57.5766 53.828 57.1686 55.1509 57.143 55.2333C57.2777 54.7009 57.5053 52.6658 57.5053 52.6658C56.9397 53.3739 56.2744 55.6603 56.2744 55.6603C56.2946 54.6293 56.1748 52.5658 56.1748 52.5658C55.8718 53.0712 55.5486 54.4874 55.5486 54.4874C55.5096 53.3536 55.2874 52.9293 55.2874 52.9293C55.2295 53.2172 54.9426 54.8117 54.9426 54.8117C54.9224 54.6495 54.7016 54.4279 54.7016 54.4279C54.6006 54.6104 54.54 55.8238 54.54 55.8238C54.2572 55.3387 54.237 53.8415 54.1966 53.6388C54.1483 53.4464 54.088 53.2573 54.0161 53.0726C53.8343 53.3158 53.8545 55.8036 53.8545 55.8036C53.6727 55.3982 52.9671 53.9212 52.9671 53.9212C52.9267 54.2658 53.4923 56.0454 53.7131 56.613C53.9726 57.1874 54.2621 57.7476 54.5804 58.2913L54.6167 58.5427C54.5037 58.4094 54.3773 58.288 54.2397 58.1805C54.0188 58.0184 53.8774 57.5535 53.7764 57.3913C53.6569 57.143 53.5561 56.8859 53.4748 56.6225C53.394 56.3995 53.2324 55.9954 53.1516 55.9346C53.0708 55.8738 52.9698 55.9752 53.091 56.1981C53.2122 56.4211 53.495 57.0684 53.6956 57.594C53.864 58.0332 54.2868 58.4751 54.4215 58.6075H53.1301C52.9536 58.6075 52.819 58.7062 52.8432 58.817L54.2478 65.0911C54.268 65.1816 54.3824 65.2479 54.5333 65.2479H56.6879C56.832 65.2479 56.9572 65.1816 56.9734 65.0911L58.3779 58.817C58.4089 58.7062 58.2742 58.6075 58.0978 58.6075Z" fill="#31414B"/>
<path d="M0 82L9.76309 77.7109L10.0769 76.3569L0 80.7838V82Z" fill="#31414B"/>
<path d="M12.2449 75.4043L11.5514 76.9245L16.0909 74.93L13.4152 74.8908L12.2449 75.4043Z" fill="#31414B"/>
<path d="M48.5502 68.8923H29.665V70.1085H48.5502V68.8923Z" fill="#31414B"/>
<path d="M62.5929 68.8923V70.1085H79.0689L79.5066 68.8923H62.5929Z" fill="#31414B"/>
<path d="M81.9372 69.3342L81.4955 70.3558L85.2284 71.9963L85.3483 70.8328L81.9372 69.3342Z" fill="#31414B"/>
<path d="M87.208 71.649L87.0827 72.8111L89.3599 73.8111L89.2926 72.5652L87.208 71.649Z" fill="#31414B"/>
<path d="M91.1644 73.3881L91.2546 74.6435L96.9926 77.1637L96.5132 75.738L91.1644 73.3881Z" fill="#31414B"/>
</svg>
