<svg id="Layer_1" data-name="Layer 1" xmlns="http://www.w3.org/2000/svg" viewBox="0 0 444.96 337.83"><defs><style>.cls-1{fill:#31414b;}</style></defs><path class="cls-1" d="M474.22,419.15h-445v5h445Z" transform="translate(-29.26 -86.33)"/><path class="cls-1" d="M474.22,424.16,437.35,408l-1.62-5.72,38.49,16.91" transform="translate(-29.26 -86.33)"/><path class="cls-1" d="M267.59,182.29V166.66a9.2,9.2,0,0,0-7.53-9.06V86.33h-3.32V157.6a9.22,9.22,0,0,0-7.55,9.06v15.63A37.54,37.54,0,0,0,221,218.68h74.81a37.5,37.5,0,0,0-28.19-36.39Z" transform="translate(-29.26 -86.33)"/><path class="cls-1" d="M258.07,231.19a12.81,12.81,0,0,0,12.59-10.53H245.48a12.83,12.83,0,0,0,12.59,10.53Z" transform="translate(-29.26 -86.33)"/><path class="cls-1" d="M51.61,336.14v58.07h98.71V336.14Zm92.8,52.13H57.53V342.06h86.88Z" transform="translate(-29.26 -86.33)"/><path class="cls-1" d="M115.69,357.91H86.24V365h29.45Z" transform="translate(-29.26 -86.33)"/><path class="cls-1" d="M103.92,302.25H98v29.56h5.91Z" transform="translate(-29.26 -86.33)"/><path class="cls-1" d="M68.75,413l6-24.5,6.71,2.31L71.26,413.9Z" transform="translate(-29.26 -86.33)"/><path class="cls-1" d="M130.68,413.9l-10.25-23.06,6.71-2.31,6,24.5Z" transform="translate(-29.26 -86.33)"/><path class="cls-1" d="M120.35,327.57H81.59v11.54h38.76Z" transform="translate(-29.26 -86.33)"/><path class="cls-1" d="M113.11,276.31H88.82l-10.28,30.3h44.85Zm-26.3,24.37,6.26-18.43h15.81l6.25,18.43Z" transform="translate(-29.26 -86.33)"/><path class="cls-1" d="M453.06,307.85v-.14c-.7-4.9-2.65-8.13-5.77-9.6s-6.66-.65-9,.25a7.25,7.25,0,0,0-2.11-1.71c-3.81-2.12-9.79-1.67-17.8,1.4a8.33,8.33,0,0,0-3.89-2.18c-5.78-1.52-13.64,2.1-17.38,4.11a17.53,17.53,0,0,0-6.1-2.28c-3.88-.68-9.74-.26-15.91,5.4-6.41-1.11-11.49-.41-15.11,2.07a11.31,11.31,0,0,0-3.62,4,13.09,13.09,0,0,0-10,1.27,11.3,11.3,0,0,0-4.39,5.2c-1.11,2.65-1.11,5,.1,7.11.51.89,1,1.82,1.48,2.78.88,1.78,1.74,3.68,2.62,5.84q2.2,5.52,3.85,11.24c.78,2.74,1.44,5.29,2,7.79l.23,1a12.4,12.4,0,0,0,.15,6.4,1.42,1.42,0,0,0,.07.22c.94,3.17,2.35,6.74,6.81,9.52l-14.73,44.17-1,2.93a2.42,2.42,0,0,0,.09,1.85,2.5,2.5,0,0,0,1.35,1.25,2.8,2.8,0,0,0,.81.13,2.46,2.46,0,0,0,1.35-.43,2.4,2.4,0,0,0,.87-1.12l1.82-4.61,16.65-42.17a92.61,92.61,0,0,0,15.68,2.52l-1.79,31.74a2.42,2.42,0,0,0,2.16,2.62h.24a2.43,2.43,0,0,0,1.62-.62,2.36,2.36,0,0,0,.77-1.54l3.66-31.83c2.78.19,5,.31,8.09.35l2.78,38.91.5,7.13h5l-.36-7.13-2-38.92c4.83-.07,9-.34,15.25-1l14.43,39.92,1,2.83a2.39,2.39,0,0,0,3.47,1.35,2.45,2.45,0,0,0,1-1,2.42,2.42,0,0,0,.14-1.81l-.41-1.35L425.5,370.43c2.47-1.53,8.23-5.9,11.49-15a85.65,85.65,0,0,1,3.77-9.14c3.89-7.9,10.69-23.34,12.29-38V308A.49.49,0,0,0,453.06,307.85Zm-33.82-5c9.18-3.65,13.07-2.87,14.57-2.07a2.39,2.39,0,0,1,.34.21c-8.8,7.79-14.23,19.38-17.28,27.91a112.54,112.54,0,0,0-4.32,15.59l-1.17-.14C409.53,321.16,417.54,305.86,419.24,302.9Zm-24.81,1c-1.43,9.63-1.8,31.05-1.89,39.38-2.71-.09-5.71-.18-9.07-.25.63-16.43-3.47-32.06-4.8-36.64C385.73,300.13,391.89,302.47,394.43,303.94Zm-38.21,42.83c-1.44-5.89-4.59-16.95-9.71-26.09a2.73,2.73,0,0,1-.35-1.34,2.89,2.89,0,0,1,.14-.88,7.52,7.52,0,0,1,2.78-3.93,6.51,6.51,0,0,1,3.59-1,13.73,13.73,0,0,1,3.61.56c1.79,3.2,9.77,18,10.77,29C364.26,343.49,359.68,344.44,356.22,346.77Zm.82,5.81c2.22-3.34,9.13-4.66,12.57-4.89h.59c1.54,0,5.6.06,10.72.15,4.91.1,9.56.22,13.87.38l14.15.79c.94.08,1.81.17,2.58.27-.56,2.34-1.06,4.78-1.51,7.28-7.44.13-41.1.63-53.16-1.39A7.31,7.31,0,0,1,357,352.58ZM444.5,324.5a140,140,0,0,1-5.28,13.74c-.73,1.67-1.55,3.31-2.32,4.91-.5,1-1,2-1.47,3-.75,1.59-1.36,3.23-2,4.82-.43,1.15-.87,2.34-1.35,3.47a24.81,24.81,0,0,1-3.08,5.27,25.18,25.18,0,0,1-6.61,6.08c-.46.3-.89.56-1.33.79l-.27.17-.17.1A192.76,192.76,0,0,1,400.28,368h-.89c-20.25,0-33.32-3.45-34.79-3.85a18.3,18.3,0,0,1-5.25-3.82c15.68,1.74,48.76,1.06,52.75,1a2.42,2.42,0,0,0,1.52-.59,2.48,2.48,0,0,0,.8-1.42c4.72-28,14.42-39.78,21.68-44.76a23.21,23.21,0,0,1,11.84-4.22A91.51,91.51,0,0,1,444.5,324.5Z" transform="translate(-29.26 -86.33)"/><path class="cls-1" d="M330.71,355.63v-.19c0-1.51-1.62-2.23-6.65-2.95-3.62-.52-8.78-1-15.34-1.39-11.27-.68-25.66-1.11-41.23-1.24l-.56,2.55c31.83.23,52.71,1.67,59.37,3-7.25,1.44-31.29,3.05-67.91,3.05s-60.65-1.61-67.9-3.05c6.66-1.33,27.56-2.79,59.37-3l-.56-2.55c-15.53.13-30,.56-41.24,1.24-6.56.41-11.72.87-15.33,1.39-5,.73-6.65,1.44-6.65,2.95v.19c0,.6,0,1.21,0,1.82v0c0,1.5,1.62,2.23,6.65,2.94,3.61.52,8.77,1,15.33,1.39s14.33.72,22.7.94v47.49c0,2,1.67,3.61,4.44,4.92,5.2,2.47,14.27,3.74,23.26,3.74s18.06-1.27,23.26-3.74c2.77-1.31,4.44-3,4.44-4.92V362.75c8.32-.22,16-.53,22.56-.93s11.72-.87,15.33-1.4c5.05-.72,6.66-1.44,6.66-2.94C330.68,356.87,330.68,356.24,330.71,355.63Zm-48.26,54.56c-.42,1.45-8.82,4.86-23.27,5h-1.39c-14.46-.1-22.86-3.51-23.3-4.93v-47.4h.44l2.22,0h1.07c.67,0,1.36,0,2.05,0h1.11l7.34.08c3.18,0,6.41,0,9.67,0s6.51,0,9.73,0,6.34-.06,9.43-.12h3.06l1.82,0Z" transform="translate(-29.26 -86.33)"/><path class="cls-1" d="M268.62,327.78h-6.49a15,15,0,0,1,1.07-1.8c4-4.32,6.4-15.23,6.4-15.24A6.22,6.22,0,0,1,269,312l-.5,1c-.25.52-.51,1-.77,1.55s-.55,1-.81,1.55c-.37.75-.65,1.58-1,2.35a11.67,11.67,0,0,1-1.51,2.12c-.77,1-1.48,2.11-2.22,3.17-.43.62-.84,1.26-1.33,1.84,3.44-4.28,7.06-18.63,7.06-18.63-1.45,1.11-3.13,6.56-3.24,6.9.56-2.19,1.49-10.58,1.49-10.58-2.33,2.92-5.07,12.34-5.07,12.34.09-4.25-.41-12.75-.41-12.75-1.25,2.08-2.58,7.92-2.58,7.92-.16-4.67-1.07-6.42-1.07-6.42-.24,1.19-1.42,7.75-1.42,7.75a4,4,0,0,0-1-1.58c-.41.76-.66,5.75-.66,5.75-1.17-2-1.25-8.16-1.42-9a21,21,0,0,0-.74-2.33c-.75,1-.67,11.25-.67,11.25-.75-1.67-3.65-7.75-3.65-7.75-.17,1.42,2.16,8.75,3.07,11.09a75.2,75.2,0,0,0,3.57,6.91l.15,1a10.48,10.48,0,0,0-1.55-1.5c-.91-.66-1.49-2.58-1.91-3.25a22.51,22.51,0,0,1-1.24-3.16,11.35,11.35,0,0,0-1.33-2.84c-.34-.25-.75.17-.25,1.09s1.66,3.58,2.49,5.75a13.6,13.6,0,0,0,3,4.17h-5.32c-.73,0-1.28.41-1.18.87l5.78,25.85c.09.37.56.64,1.18.64h8.88c.59,0,1.11-.27,1.17-.64l5.79-25.85C269.91,328.19,269.35,327.78,268.62,327.78Z" transform="translate(-29.26 -86.33)"/><path class="cls-1" d="M29.26,424.16l40.23-17.67,1.29-5.58L29.26,419.15Z" transform="translate(-29.26 -86.33)"/><path class="cls-1" d="M79.71,397l-2.85,6.26L95.56,395l-11-.16Z" transform="translate(-29.26 -86.33)"/><path class="cls-1" d="M229.29,370.16H151.48v5h77.81Z" transform="translate(-29.26 -86.33)"/><path class="cls-1" d="M287.14,370.16v5H355l1.8-5Z" transform="translate(-29.26 -86.33)"/><path class="cls-1" d="M366.84,372,365,376.19l15.38,6.75.5-4.79Z" transform="translate(-29.26 -86.33)"/><path class="cls-1" d="M388.56,381.51,388,386.3l9.38,4.12-.27-5.13Z" transform="translate(-29.26 -86.33)"/><path class="cls-1" d="M404.86,388.68l.37,5.17,23.64,10.38-2-5.87Z" transform="translate(-29.26 -86.33)"/></svg>