<svg width="109" height="57" viewBox="0 0 109 57" fill="none" xmlns="http://www.w3.org/2000/svg">
<path d="M13.2513 22.5107V42.611H23.9195H34.5877V22.5107L23.7461 15.8881L13.2513 22.5107Z" fill="#2BB018"/>
<path d="M38.6816 42.611V47.8155H9.15734V19.8997L23.6789 10.7398L38.6816 19.9032V22.5107H39.2832V19.5689L23.6718 10.036L8.55936 19.5724V48.4137H39.2832V42.611H38.6816Z" fill="#04AC4D"/>
<mask id="path-3-inside-1_3_6" fill="white">
<path d="M41.8025 42.611V50.9192H6.04002V18.193L23.6506 7.08013L41.8025 18.1648V22.5107H42.0006V18.0557L23.7001 6.87955L23.647 6.84436L5.88434 18.0522L5.83834 18.0839V51.1163H42.0006V42.611H41.8025Z"/>
</mask>
<path d="M41.8025 42.611V50.9192H6.04002V18.193L23.6506 7.08013L41.8025 18.1648V22.5107H42.0006V18.0557L23.7001 6.87955L23.647 6.84436L5.88434 18.0522L5.83834 18.0839V51.1163H42.0006V42.611H41.8025Z" fill="#ECECEC"/>
<path d="M41.8025 42.611V38.611H37.8025V42.611H41.8025ZM41.8025 50.9192V54.9192H45.8025V50.9192H41.8025ZM6.04002 50.9192H2.04002V54.9192H6.04002V50.9192ZM6.04002 18.193L3.90537 14.8102L2.04002 15.9873V18.193H6.04002ZM23.6506 7.08013L25.7353 3.66632L23.616 2.37215L21.5159 3.69734L23.6506 7.08013ZM41.8025 18.1648H45.8025V15.9206L43.8872 14.751L41.8025 18.1648ZM41.8025 22.5107H37.8025V26.5107H41.8025V22.5107ZM42.0006 22.5107V26.5107H46.0006V22.5107H42.0006ZM42.0006 18.0557H46.0006V15.8116L44.0854 14.642L42.0006 18.0557ZM23.7001 6.87955L21.4898 10.2134L21.5518 10.2545L21.6153 10.2933L23.7001 6.87955ZM23.647 6.84436L25.8573 3.51051L23.7008 2.08074L21.5125 3.46149L23.647 6.84436ZM5.88434 18.0522L3.74982 14.6694L3.682 14.7121L3.61596 14.7576L5.88434 18.0522ZM5.83834 18.0839L3.56996 14.7893L1.83834 15.9815V18.0839H5.83834ZM5.83834 51.1163H1.83834V55.1163H5.83834V51.1163ZM42.0006 51.1163V55.1163H46.0006V51.1163H42.0006ZM42.0006 42.611H46.0006V38.611H42.0006V42.611ZM37.8025 42.611V50.9192H45.8025V42.611H37.8025ZM41.8025 46.9192H6.04002V54.9192H41.8025V46.9192ZM10.04 50.9192V18.193H2.04002V50.9192H10.04ZM8.17468 21.5758L25.7852 10.4629L21.5159 3.69734L3.90537 14.8102L8.17468 21.5758ZM21.5659 10.4939L39.7178 21.5786L43.8872 14.751L25.7353 3.66632L21.5659 10.4939ZM37.8025 18.1648V22.5107H45.8025V18.1648H37.8025ZM41.8025 26.5107H42.0006V18.5107H41.8025V26.5107ZM46.0006 22.5107V18.0557H38.0006V22.5107H46.0006ZM44.0854 14.642L25.7849 3.4658L21.6153 10.2933L39.9159 21.4695L44.0854 14.642ZM25.9104 3.5457L25.8573 3.51051L21.4367 10.1782L21.4898 10.2134L25.9104 3.5457ZM21.5125 3.46149L3.74982 14.6694L8.01885 21.4351L25.7816 10.2272L21.5125 3.46149ZM3.61596 14.7576L3.56996 14.7893L8.10671 21.3785L8.15271 21.3468L3.61596 14.7576ZM1.83834 18.0839V51.1163H9.83834V18.0839H1.83834ZM5.83834 55.1163H42.0006V47.1163H5.83834V55.1163ZM46.0006 51.1163V42.611H38.0006V51.1163H46.0006ZM42.0006 38.611H41.8025V46.611H42.0006V38.611Z" fill="#ECECEC" mask="url(#path-3-inside-1_3_6)"/>
<mask id="path-5-inside-2_3_6" fill="white">
<path d="M44.7217 42.611V53.8224H3.12086V16.5954L23.6258 3.6562L44.7217 16.5426V22.5108H44.9198V16.43L23.6753 3.45562L23.6223 3.42395L2.96517 16.4582L2.91917 16.4863V54.0195H44.9198V42.611H44.7217Z"/>
</mask>
<path d="M44.7217 42.611V53.8224H3.12086V16.5954L23.6258 3.6562L44.7217 16.5426V22.5108H44.9198V16.43L23.6753 3.45562L23.6223 3.42395L2.96517 16.4582L2.91917 16.4863V54.0195H44.9198V42.611H44.7217Z" fill="#ECECEC"/>
<path d="M44.7217 42.611V38.611H40.7217V42.611H44.7217ZM44.7217 53.8224V57.8224H48.7217V53.8224H44.7217ZM3.12086 53.8224H-0.879142V57.8224H3.12086V53.8224ZM3.12086 16.5954L0.98622 13.2126L-0.879142 14.3897V16.5954H3.12086ZM23.6258 3.6562L25.711 0.242677L23.5915 -1.05198L21.4912 0.273404L23.6258 3.6562ZM44.7217 16.5426H48.7217V14.2988L46.8068 13.1291L44.7217 16.5426ZM44.7217 22.5108H40.7217V26.5108H44.7217V22.5108ZM44.9198 22.5108V26.5108H48.9198V22.5108H44.9198ZM44.9198 16.43H48.9198V14.1859L47.0046 13.0163L44.9198 16.43ZM23.6753 3.45562L25.7602 0.0418966L25.7426 0.0311868L25.725 0.0206578L23.6753 3.45562ZM23.6223 3.42395L25.6719 -0.0110128L23.5638 -1.2689L21.4877 0.041079L23.6223 3.42395ZM2.96517 16.4582L5.05315 19.8699L5.07652 19.8556L5.09969 19.841L2.96517 16.4582ZM2.91917 16.4863L0.83119 13.0745L-1.08083 14.2446V16.4863H2.91917ZM2.91917 54.0195H-1.08083V58.0195H2.91917V54.0195ZM44.9198 54.0195V58.0195H48.9198V54.0195H44.9198ZM44.9198 42.611H48.9198V38.611H44.9198V42.611ZM40.7217 42.611V53.8224H48.7217V42.611H40.7217ZM44.7217 49.8224H3.12086V57.8224H44.7217V49.8224ZM7.12086 53.8224V16.5954H-0.879142V53.8224H7.12086ZM5.2555 19.9782L25.7604 7.039L21.4912 0.273404L0.98622 13.2126L5.2555 19.9782ZM21.5407 7.06973L42.6365 19.9561L46.8068 13.1291L25.711 0.242677L21.5407 7.06973ZM40.7217 16.5426V22.5108H48.7217V16.5426H40.7217ZM44.7217 26.5108H44.9198V18.5108H44.7217V26.5108ZM48.9198 22.5108V16.43H40.9198V22.5108H48.9198ZM47.0046 13.0163L25.7602 0.0418966L21.5905 6.86935L42.835 19.8437L47.0046 13.0163ZM25.725 0.0206578L25.6719 -0.0110128L21.5726 6.85891L21.6257 6.89058L25.725 0.0206578ZM21.4877 0.041079L0.830648 13.0753L5.09969 19.841L25.7568 6.80682L21.4877 0.041079ZM0.877189 13.0464L0.83119 13.0745L5.00715 19.8981L5.05315 19.8699L0.877189 13.0464ZM-1.08083 16.4863V54.0195H6.91917V16.4863H-1.08083ZM2.91917 58.0195H44.9198V50.0195H2.91917V58.0195ZM48.9198 54.0195V42.611H40.9198V54.0195H48.9198ZM44.9198 38.611H44.7217V46.611H44.9198V38.611Z" fill="#ECECEC" mask="url(#path-5-inside-2_3_6)"/>
<mask id="path-7-inside-3_3_6" fill="white">
<path d="M47.6408 42.611V56.7255H0.201688V15.0013L23.601 0.23577L47.6408 14.9168V22.5178H47.839V14.8078L23.6506 0.0316706L23.5975 0L0.045999 14.8605L0 14.8887V56.9226H47.839V42.611H47.6408Z"/>
</mask>
<path d="M47.6408 42.611V56.7255H0.201688V15.0013L23.601 0.23577L47.6408 14.9168V22.5178H47.839V14.8078L23.6506 0.0316706L23.5975 0L0.045999 14.8605L0 14.8887V56.9226H47.839V42.611H47.6408Z" fill="#ECECEC"/>
<path d="M47.6408 42.611V38.611H43.6408V42.611H47.6408ZM47.6408 56.7255V60.7255H51.6408V56.7255H47.6408ZM0.201688 56.7255H-3.79831V60.7255H0.201688V56.7255ZM0.201688 15.0013L-1.93294 11.6185L-3.79831 12.7956V15.0013H0.201688ZM23.601 0.23577L25.6858 -3.17798L23.5665 -4.47224L21.4664 -3.14703L23.601 0.23577ZM47.6408 14.9168H51.6408V12.6727L49.7256 11.5031L47.6408 14.9168ZM47.6408 22.5178H43.6408V26.5178H47.6408V22.5178ZM47.839 22.5178V26.5178H51.839V22.5178H47.839ZM47.839 14.8078H51.839V12.564L49.9242 11.3943L47.839 14.8078ZM23.6506 0.0316706L25.7358 -3.38182L25.7181 -3.39262L25.7003 -3.40325L23.6506 0.0316706ZM23.5975 0L25.6472 -3.43492L23.5391 -4.69288L21.463 -3.38287L23.5975 0ZM0.045999 14.8605L2.13405 18.2723L2.15739 18.258L2.18052 18.2434L0.045999 14.8605ZM0 14.8887L-2.08805 11.4769L-4 12.6471V14.8887H0ZM0 56.9226H-4V60.9226H0V56.9226ZM47.839 56.9226V60.9226H51.839V56.9226H47.839ZM47.839 42.611H51.839V38.611H47.839V42.611ZM43.6408 42.611V56.7255H51.6408V42.611H43.6408ZM47.6408 52.7255H0.201688V60.7255H47.6408V52.7255ZM4.20169 56.7255V15.0013H-3.79831V56.7255H4.20169ZM2.33632 18.3841L25.7357 3.61857L21.4664 -3.14703L-1.93294 11.6185L2.33632 18.3841ZM21.5163 3.64952L45.5561 18.3306L49.7256 11.5031L25.6858 -3.17798L21.5163 3.64952ZM43.6408 14.9168V22.5178H51.6408V14.9168H43.6408ZM47.6408 26.5178H47.839V18.5178H47.6408V26.5178ZM51.839 22.5178V14.8078H43.839V22.5178H51.839ZM49.9242 11.3943L25.7358 -3.38182L21.5654 3.44516L45.7538 18.2212L49.9242 11.3943ZM25.7003 -3.40325L25.6472 -3.43492L21.5478 3.43492L21.6009 3.46659L25.7003 -3.40325ZM21.463 -3.38287L-2.08853 11.4777L2.18052 18.2434L25.732 3.38287L21.463 -3.38287ZM-2.04206 11.4488L-2.08805 11.4769L2.08805 18.3004L2.13405 18.2723L-2.04206 11.4488ZM-4 14.8887V56.9226H4V14.8887H-4ZM0 60.9226H47.839V52.9226H0V60.9226ZM51.839 56.9226V42.611H43.839V56.9226H51.839ZM47.839 38.611H47.6408V46.611H47.839V38.611Z" fill="#ECECEC" mask="url(#path-7-inside-3_3_6)"/>
<path d="M30.2567 25.6884V39.4123H27.6313L20.742 31.0864V39.4299H17.5822V25.706H20.2254L27.097 34.0494V25.6884H30.2567Z" fill="#ECECEC"/>
<path d="M47.4498 36.7414V39.1061H37.514V26.3535H47.2092V28.7182H40.4862V31.4841H46.4343V33.7784H40.4756V36.7273L47.4498 36.7414Z" fill="#ECECEC"/>
<path d="M69.0056 26.3535L64.8126 39.0921H61.6281L58.7974 30.4671L55.8853 39.0921H52.729L48.5113 26.3535H51.5861L54.477 35.3092L57.4952 26.3535H60.241L63.1708 35.3796L66.1537 26.3535H69.0056Z" fill="#ECECEC"/>
<path d="M73.9063 28.7675H69.8053V26.3535H80.9689V28.7534H76.8715V39.0921H73.9063V28.7675Z" fill="#ECECEC"/>
<path d="M81.574 32.7368C81.574 28.9504 84.5391 26.1494 88.5835 26.1494C92.6279 26.1494 95.5931 28.9328 95.5931 32.7368C95.5931 36.5408 92.6102 39.3278 88.5835 39.3278C84.5568 39.3278 81.574 36.5232 81.574 32.7368ZM92.5925 32.7368C92.5925 30.3158 90.8729 28.6584 88.5835 28.6584C86.2942 28.6584 84.5745 30.3158 84.5745 32.7368C84.5745 35.1579 86.2942 36.8153 88.5835 36.8153C90.8729 36.8153 92.5925 35.1508 92.5925 32.7368Z" fill="#ECECEC"/>
<path d="M108.989 26.3535V39.0921H106.555L100.168 31.3504V39.0921H97.2419V26.3535H99.694L106.063 34.0952V26.3535H108.989Z" fill="#ECECEC"/>
<path d="M64.4588 48.2343C64.4588 51.2993 62.1411 53.2031 58.4435 53.2031H55.6517V56.9965H52.4424V43.2444H58.4577C62.1411 43.2444 64.4588 45.1482 64.4588 48.2343ZM61.2106 48.2343C61.2106 46.7211 60.2198 45.8379 58.2595 45.8379H55.6482V50.6096H58.2595C60.2198 50.6096 61.2212 49.7263 61.2212 48.2343H61.2106Z" fill="#2BB018"/>
<path d="M75.173 54.0511H68.7367L67.5089 56.9965H64.2217L70.3997 43.2444H73.5843L79.78 57H76.4008L75.173 54.0511ZM74.1646 51.6336L71.9637 46.3552L69.7664 51.6336H74.1646Z" fill="#2BB018"/>
<path d="M90.0449 56.9965L87.3734 53.1643H84.4224V56.9965H81.2131V43.2444H87.2283C90.9295 43.2444 93.2436 45.1517 93.2436 48.2378C93.2814 49.1667 93.027 50.0842 92.5158 50.8625C92.0046 51.6409 91.2621 52.2413 90.3916 52.5802L93.5019 57L90.0449 56.9965ZM87.0514 45.8379H84.4365V50.6342H87.0514C89.0117 50.6342 89.9989 49.7298 89.9989 48.2378C89.9989 46.7458 88.9975 45.8379 87.0514 45.8379Z" fill="#04AC4D"/>
<path d="M100.819 51.5949L98.9581 53.5198V56.9965H95.7735V43.2444H98.9581V49.67L105.097 43.2444H108.66L102.918 49.3779L108.989 56.9965H105.256L100.819 51.5949Z" fill="#04AC4D"/>
</svg>
