<svg width="114" height="98" viewBox="0 0 114 98" fill="none" xmlns="http://www.w3.org/2000/svg">
<g clip-path="url(#clip0_29_131)">
<path d="M111.745 0.12479L96.2558 6.57924C96.0575 6.66101 95.8774 6.78146 95.7258 6.93362C95.5743 7.08577 95.4543 7.26661 95.3728 7.46565L91.7383 16.2523H1.62866C1.36075 16.2523 1.09698 16.3187 0.860725 16.4456C0.624474 16.5724 0.42304 16.7558 0.274277 16.9795C0.126614 17.204 0.0357661 17.4612 0.00962349 17.7289C-0.0165191 17.9966 0.022834 18.2667 0.124265 18.5157L20.3672 67.5694C20.4902 67.8685 20.6988 68.1242 20.9666 68.3042C21.2344 68.4842 21.5493 68.5804 21.8716 68.5806H71.9111L81.6832 78.3914H28.5364C26.274 78.3712 24.0735 79.133 22.3043 80.5488C20.5351 81.9647 19.3048 83.9484 18.82 86.1671C18.3352 88.3857 18.6253 90.7043 19.6417 92.7337C20.658 94.763 22.3388 96.3796 24.4018 97.3121C26.4648 98.2447 28.7846 98.4364 30.9718 97.855C33.1589 97.2737 35.0803 95.9548 36.4135 94.1196C37.7467 92.2844 38.4106 90.0446 38.2936 87.7762C38.1766 85.5078 37.286 83.3489 35.7712 81.6617H75.0227C73.7489 83.071 72.9108 84.8219 72.6106 86.701C72.3104 88.5801 72.5611 90.5063 73.3321 92.2449C74.1031 93.9835 75.3612 95.4594 76.953 96.4928C78.5448 97.5263 80.4016 98.0726 82.2972 98.0652C84.1928 98.0579 86.0454 97.4972 87.6292 96.4514C89.213 95.4057 90.4596 93.92 91.2173 92.1755C91.9749 90.431 92.2107 88.5029 91.8961 86.6262C91.5815 84.7495 90.7299 83.0051 89.4453 81.6057L89.4667 81.5799L74.5084 66.5626L98.1245 9.33313L112.993 3.14977C113.205 3.07854 113.4 2.96423 113.566 2.81395C113.732 2.66367 113.866 2.48064 113.958 2.27628C114.051 2.07192 114.101 1.8506 114.104 1.62611C114.108 1.40161 114.066 1.17877 113.98 0.971447C113.894 0.764127 113.767 0.576777 113.606 0.421072C113.444 0.265368 113.253 0.144644 113.043 0.0664253C112.834 -0.0117937 112.61 -0.0458324 112.387 -0.0335702C112.164 -0.021308 111.945 0.0369926 111.745 0.137699V0.12479ZM71.4996 65.3018H61.9075L64.4791 52.2208H76.9086L71.4996 65.3018ZM10.8136 35.8738H26.732L29.3036 48.9505H16.214L10.8136 35.8738ZM30.0537 35.8738H45.6205V48.9505H32.6467L30.0537 35.8738ZM48.8565 32.6036V19.5226H67.6465L65.0749 32.6036H48.8565ZM64.4062 35.8738L61.8132 48.9505H48.8565V35.8738H64.4062ZM45.6205 32.6036H29.4065L26.8348 19.5226H45.6205V32.6036ZM45.6205 52.2208V65.3018H35.8869L33.2939 52.2208H45.6205ZM48.8779 52.2208H61.1874L58.5901 65.3018H48.8565L48.8779 52.2208ZM65.1649 48.9505L67.7579 35.8738H83.672L78.2758 48.9505H65.1649ZM68.4051 32.5993L70.9767 19.5182H90.401L85.0006 32.5993H68.4051ZM23.4917 19.5226L26.0634 32.6036H9.46354L4.06742 19.5226H23.4917ZM17.5641 52.2251H29.9722L32.5653 65.3061H22.9603L17.5641 52.2251ZM33.1225 83.5722C34.1895 84.6425 34.8539 86.0511 35.0023 87.5581C35.1507 89.065 34.7741 90.577 33.9365 91.8364C33.0989 93.0958 31.8523 94.0246 30.409 94.4646C28.9657 94.9046 27.4151 94.8285 26.0215 94.2493C24.6278 93.6701 23.4773 92.6237 22.7661 91.2883C22.0548 89.9529 21.8268 88.4112 22.121 86.926C22.4151 85.4408 23.2131 84.1039 24.379 83.1431C25.5449 82.1824 27.0066 81.6573 28.515 81.6573C29.3705 81.6549 30.2181 81.8225 31.0089 82.1504C31.7996 82.4783 32.518 82.96 33.1225 83.5679V83.5722ZM86.8651 92.8192C85.9587 93.734 84.8033 94.3594 83.5439 94.6168C82.2846 94.8743 80.9775 94.7522 79.7871 94.2661C78.5966 93.78 77.5758 92.9514 76.853 91.8846C76.1301 90.8178 75.7375 89.5602 75.7245 88.27C75.7114 86.9799 76.0785 85.7146 76.7796 84.6332C77.4808 83.5519 78.4846 82.7027 79.665 82.1924C80.8454 81.6821 82.1497 81.5335 83.4139 81.7652C84.6782 81.9969 85.8461 82.5986 86.7708 83.4947L86.9379 83.6625C88.1271 84.892 88.7861 86.5422 88.7725 88.2559C88.7589 89.9696 88.0736 91.609 86.8651 92.8192Z" fill="#2BB018"/>
</g>
<defs>
<clipPath id="clip0_29_131">
<rect width="114" height="98" fill="white"/>
</clipPath>
</defs>
</svg>
