<svg width="38" height="26" viewBox="0 0 38 26" fill="none" xmlns="http://www.w3.org/2000/svg">
<path d="M37.3408 0H0.670961C0.624863 -3.52225e-07 0.579218 0.00918748 0.536646 0.0270351C0.494074 0.0448826 0.455412 0.0710392 0.422879 0.104004C0.390346 0.136969 0.364582 0.176094 0.347066 0.219133C0.329549 0.262173 0.320624 0.308279 0.320803 0.354808V25.6273C0.320624 25.6738 0.329549 25.7199 0.347066 25.763C0.364582 25.806 0.390346 25.8451 0.422879 25.8781C0.455412 25.9111 0.494074 25.9372 0.536646 25.9551C0.579218 25.9729 0.624863 25.9821 0.670961 25.9821H37.3408C37.3869 25.9821 37.4326 25.9729 37.4751 25.9551C37.5177 25.9372 37.5564 25.9111 37.5889 25.8781C37.6214 25.8451 37.6472 25.806 37.6647 25.763C37.6822 25.7199 37.6912 25.6738 37.691 25.6273V0.354808C37.6912 0.308279 37.6822 0.262173 37.6647 0.219133C37.6472 0.176094 37.6214 0.136969 37.5889 0.104004C37.5564 0.0710392 37.5177 0.0448826 37.4751 0.0270351C37.4326 0.00918748 37.3869 -3.52225e-07 37.3408 0ZM36.9907 25.2656H1.02112V0.716492H36.9907V25.2656Z" fill="#31414B"/>
<path d="M12.4725 2.72293H1.94186C1.84863 2.72293 1.75922 2.76031 1.69329 2.82685C1.62737 2.89339 1.59033 2.98364 1.59033 3.07774V23.4022C1.59015 23.4488 1.59912 23.495 1.61673 23.5382C1.63433 23.5813 1.66021 23.6205 1.69289 23.6535C1.72557 23.6865 1.76439 23.7126 1.80712 23.7303C1.84985 23.7481 1.89564 23.7572 1.94186 23.757H12.4725C12.5187 23.7572 12.5645 23.7481 12.6072 23.7303C12.6499 23.7126 12.6888 23.6865 12.7214 23.6535C12.7541 23.6205 12.78 23.5813 12.7976 23.5382C12.8152 23.495 12.8242 23.4488 12.824 23.4022V3.07774C12.824 3.03115 12.8149 2.98501 12.7972 2.94196C12.7796 2.89891 12.7537 2.8598 12.721 2.82685C12.6884 2.7939 12.6497 2.76777 12.607 2.74994C12.5644 2.73211 12.5186 2.72293 12.4725 2.72293ZM12.1141 23.0405H7.25554V15.9265H10.4846C10.5462 15.9258 10.6065 15.9094 10.6601 15.8789C10.7137 15.8483 10.7588 15.8046 10.7912 15.7518C10.8199 15.6989 10.8357 15.6398 10.8371 15.5795C10.8385 15.5192 10.8256 15.4595 10.7994 15.4052L8.70658 11.4817C8.59882 11.1072 8.57324 10.7135 8.63164 10.3279C8.63801 10.2628 8.65962 10.2002 8.69468 10.1452C8.72974 10.0902 8.77725 10.0444 8.83329 10.0116C8.88873 9.98022 8.95046 9.96182 9.01391 9.95777C9.07735 9.95372 9.14088 9.96414 9.1998 9.98824C9.27348 10.0215 9.35639 10.0276 9.43407 10.0055C9.51175 9.98336 9.57928 9.93443 9.62489 9.86722L10.1699 9.09022C10.2147 9.02341 10.2361 8.9434 10.2306 8.86291C10.2252 8.78243 10.1933 8.70608 10.1399 8.64602L9.29517 7.68336C9.25465 7.64207 9.20545 7.61049 9.15121 7.59097C9.09696 7.57145 9.03907 7.56449 8.9818 7.5706L8.87689 7.5926C7.57278 7.85629 6.2298 7.85629 4.92569 7.5926L4.82078 7.5706C4.76351 7.56449 4.70562 7.57145 4.65138 7.59097C4.59713 7.61049 4.54793 7.64207 4.50741 7.68336L3.66267 8.64602C3.60909 8.70597 3.57701 8.78234 3.57158 8.86289C3.56614 8.94344 3.58766 9.02349 3.6327 9.09022L4.17769 9.86722C4.23042 9.93223 4.30245 9.97841 4.38315 9.99896C4.46386 10.0195 4.54898 10.0133 4.62595 9.98136C4.68153 9.95556 4.74239 9.94347 4.80351 9.9461C4.86464 9.94873 4.92426 9.966 4.97747 9.99649C5.02825 10.0294 5.07176 10.0725 5.10528 10.1231C5.13881 10.1738 5.16162 10.2308 5.1723 10.2908C5.23162 10.6677 5.21353 11.053 5.11916 11.4226L3.00459 15.4107C2.97849 15.4649 2.9655 15.5246 2.96668 15.5849C2.96787 15.6451 2.98319 15.7042 3.0114 15.7573C3.04387 15.81 3.08897 15.8537 3.14255 15.8842C3.19612 15.9147 3.25645 15.9312 3.31796 15.932H6.54705V23.0405H2.29338V3.43255H12.1141V23.0405ZM5.8658 10.2C5.84298 10.031 5.78195 9.86958 5.68745 9.72817C5.59295 9.58677 5.46751 9.46919 5.32081 9.38452C5.10428 9.25664 4.85067 9.20807 4.60278 9.247L4.36435 8.90731L4.90117 8.31184C6.22195 8.56903 7.57927 8.56903 8.90005 8.31184L9.43142 8.90869L9.19571 9.25662C9.04868 9.23672 8.89921 9.24632 8.75586 9.28487C8.61252 9.32342 8.47813 9.39016 8.3604 9.48127C8.24267 9.57237 8.14393 9.68604 8.06983 9.81575C7.99573 9.94547 7.94774 10.0887 7.9286 10.2372C7.85608 10.7482 7.89941 11.2692 8.05531 11.7609L9.89466 15.2168H3.90792L5.76907 11.7004C5.90949 11.2134 5.94251 10.7013 5.8658 10.2Z" fill="#31414B"/>
<path d="M24.2376 2.72294H13.7138C13.6206 2.72294 13.5312 2.76032 13.4653 2.82686C13.3993 2.8934 13.3623 2.98365 13.3623 3.07775V23.4022C13.3621 23.4488 13.3711 23.4951 13.3887 23.5382C13.4063 23.5813 13.4322 23.6205 13.4649 23.6535C13.4975 23.6865 13.5364 23.7126 13.5791 23.7304C13.6218 23.7481 13.6676 23.7572 13.7138 23.757H24.2376C24.2844 23.7579 24.3308 23.7494 24.3743 23.732C24.4177 23.7146 24.4573 23.6886 24.4906 23.6555C24.524 23.6225 24.5505 23.5831 24.5686 23.5396C24.5867 23.4961 24.596 23.4494 24.596 23.4022V3.07775C24.5958 3.03063 24.5864 2.984 24.5682 2.94059C24.5501 2.89717 24.5235 2.85782 24.4902 2.82482C24.4569 2.79182 24.4174 2.76582 24.374 2.74833C24.3307 2.73084 24.2843 2.72221 24.2376 2.72294ZM23.8861 23.0405H19.3273V18.4074H22.5632C22.6179 18.4082 22.6721 18.3963 22.7215 18.3724C22.771 18.3485 22.8142 18.3134 22.8479 18.2699C22.8802 18.2232 22.9016 18.1698 22.9106 18.1136C22.9195 18.0574 22.9158 17.9998 22.8997 17.9453L20.7851 11.4817C20.674 11.1078 20.6483 10.7133 20.7102 10.3279C20.7165 10.2629 20.7381 10.2002 20.7732 10.1452C20.8083 10.0902 20.8558 10.0445 20.9118 10.0116C20.9672 9.98014 21.029 9.96168 21.0924 9.95763C21.1559 9.95359 21.2194 9.96405 21.2783 9.98825C21.3522 10.0204 21.4347 10.026 21.5122 10.0039C21.5896 9.98189 21.6571 9.93362 21.7034 9.86723L22.2416 9.09023C22.2894 9.02506 22.3134 8.94519 22.3094 8.8642C22.3054 8.78321 22.2738 8.70611 22.2198 8.64603L21.3683 7.68338C21.3283 7.64094 21.2789 7.60862 21.2242 7.58902C21.1696 7.56943 21.1111 7.56312 21.0535 7.57061C20.9868 7.58574 19.6556 7.78927 18.9757 8.83719C18.2945 7.78927 16.9647 7.58574 16.8979 7.57061C16.8406 7.56378 16.7825 7.5704 16.7282 7.58996C16.6738 7.60952 16.6247 7.64149 16.5846 7.68338L15.7398 8.64603C15.6844 8.70499 15.6511 8.78161 15.6457 8.86269C15.6402 8.94377 15.6629 9.02423 15.7099 9.09023L16.248 9.86723C16.3031 9.93109 16.3763 9.9763 16.4578 9.99672C16.5392 10.0171 16.6248 10.0118 16.7031 9.98138C16.7575 9.95561 16.8173 9.94352 16.8773 9.94616C16.9373 9.94879 16.9958 9.96607 17.0478 9.9965C17.0996 10.028 17.1439 10.0708 17.1773 10.1217C17.2108 10.1726 17.2326 10.2304 17.2413 10.2908C17.3058 10.6856 17.283 11.09 17.1745 11.4749L15.0545 17.9384C15.0376 17.9925 15.0329 18.0497 15.0406 18.1058C15.0484 18.162 15.0685 18.2157 15.0995 18.263C15.1342 18.3072 15.1786 18.3426 15.2292 18.3665C15.2798 18.3904 15.3352 18.402 15.391 18.4005H18.6201V23.0405H14.0653V3.43256H23.8861V23.0405ZM20.0221 11.2328H17.9443C17.9894 10.8901 17.9894 10.5428 17.9443 10.2C17.9224 10.0307 17.8618 9.86892 17.7672 9.72738C17.6726 9.58584 17.5466 9.46846 17.3993 9.38453C17.1835 9.2549 16.9292 9.20621 16.6813 9.24701L16.4497 8.90733L16.9729 8.31873C17.3993 8.42462 18.4376 8.79318 18.6324 9.85761C18.6464 9.93948 18.6885 10.0138 18.7512 10.0676C18.814 10.1213 18.8934 10.1512 18.9757 10.1519C19.0586 10.15 19.1384 10.1199 19.2022 10.0665C19.266 10.0131 19.3101 9.93946 19.3273 9.85761C19.5221 8.78631 20.5535 8.42462 20.9786 8.31048L21.51 8.90733L21.2702 9.25388C20.9738 9.21488 20.6743 9.29626 20.4375 9.48015C20.2006 9.66403 20.0458 9.93535 20.0071 10.2344C19.9664 10.5663 19.9715 10.9023 20.0221 11.2328ZM17.7645 11.9424H20.1938L20.7102 13.5267H17.2413L17.7645 11.9424ZM20.9418 14.2432L21.3901 15.6184H16.5614L17.0097 14.2432H20.9418ZM21.623 16.3253L22.0713 17.7005H15.8815L16.3298 16.3253H21.623Z" fill="#31414B"/>
<path d="M35.928 2.72293H25.4096C25.3156 2.72256 25.2253 2.7596 25.1582 2.82603C25.0911 2.89245 25.0527 2.9829 25.0513 3.07774V23.4022C25.0527 23.497 25.0911 23.5875 25.1582 23.6539C25.2253 23.7203 25.3156 23.7574 25.4096 23.757H35.928C35.9741 23.757 36.0198 23.7478 36.0625 23.73C36.1051 23.7121 36.1439 23.686 36.1765 23.6531C36.2092 23.6201 36.2351 23.581 36.2527 23.538C36.2704 23.4949 36.2795 23.4488 36.2795 23.4022V3.07774C36.2791 2.98375 36.242 2.89372 36.1761 2.82725C36.1103 2.76079 36.0211 2.7233 35.928 2.72293ZM29.6333 10.2C29.6138 10.03 29.5541 9.86713 29.4593 9.72521C29.3645 9.58329 29.2372 9.46645 29.0883 9.38452C28.8727 9.25554 28.6191 9.20689 28.3716 9.247L28.1346 8.91007L28.6659 8.32147C29.0842 8.42736 30.1224 8.79592 30.3173 9.86035C30.3342 9.94231 30.3782 10.0161 30.4421 10.0695C30.5059 10.123 30.5858 10.153 30.6688 10.1546C30.7511 10.1539 30.8306 10.1241 30.8933 10.0703C30.956 10.0165 30.9981 9.94221 31.0121 9.86035C31.2138 8.78905 32.2452 8.42736 32.6716 8.31322L33.1948 8.91007L32.9632 9.24975C32.8183 9.2272 32.6704 9.23398 32.5281 9.26971C32.3858 9.30543 32.252 9.36938 32.1345 9.45782C32.0169 9.54627 31.918 9.65744 31.8434 9.78486C31.7689 9.91229 31.7202 10.0534 31.7002 10.2C31.6227 10.6885 31.6534 11.1882 31.7901 11.6633L33.8229 21.6666H33.4864L32.0708 15.0504C32.0529 14.9676 32.006 14.8942 31.9386 14.8436C31.8712 14.793 31.788 14.7688 31.7043 14.7754C31.6201 14.7807 31.5406 14.8164 31.4803 14.876C31.42 14.9356 31.3829 15.0151 31.3759 15.0999L30.786 21.6776H27.516L29.5338 11.7114C29.6809 11.2219 29.7149 10.7049 29.6333 10.2ZM32.767 21.6666H31.504L31.8773 17.4805L32.767 21.6666ZM35.5846 23.0419H31.0176V22.3776H34.2467C34.2986 22.378 34.35 22.3667 34.3971 22.3446C34.4443 22.3224 34.4859 22.2901 34.5192 22.2497C34.5528 22.2079 34.5769 22.1591 34.5896 22.1068C34.6023 22.0545 34.6034 22 34.5927 21.9472L32.4673 11.4749C32.3588 11.09 32.336 10.6856 32.4005 10.2908C32.4079 10.2299 32.4292 10.1717 32.4628 10.1206C32.4964 10.0695 32.5413 10.027 32.594 9.99649C32.6511 9.96528 32.7147 9.94826 32.7796 9.94682C32.8446 9.94539 32.9089 9.95959 32.9673 9.98824C33.0413 10.0205 33.1241 10.0261 33.2018 10.0041C33.2794 9.98203 33.3472 9.93372 33.3938 9.86722L33.9387 9.09022C33.9844 9.02422 34.0071 8.94477 34.0031 8.86436C33.9992 8.78395 33.9689 8.70714 33.9169 8.64602L33.064 7.68337C33.0239 7.64148 32.9748 7.60951 32.9204 7.58995C32.8661 7.57039 32.808 7.56377 32.7507 7.5706C32.6839 7.58573 31.3528 7.78926 30.6729 8.83718C29.9916 7.78926 28.6619 7.58573 28.5951 7.5706C28.5375 7.56311 28.479 7.56942 28.4244 7.58901C28.3697 7.6086 28.3203 7.64093 28.2804 7.68337L27.4288 8.64602C27.3762 8.70681 27.3455 8.78371 27.3415 8.8643C27.3376 8.9449 27.3606 9.02448 27.407 9.09022L27.9452 9.86722C27.9993 9.93244 28.0725 9.97864 28.1543 9.99916C28.2361 10.0197 28.3222 10.0134 28.4003 9.98137C28.4546 9.9556 28.5144 9.94351 28.5745 9.94615C28.6345 9.94878 28.693 9.96606 28.745 9.99649C28.7968 10.028 28.841 10.0708 28.8745 10.1217C28.9079 10.1726 28.9298 10.2303 28.9384 10.2908C29.0042 10.7015 28.9763 11.122 28.8567 11.5202L26.7407 21.9458C26.7307 21.9987 26.7321 22.0532 26.7451 22.1054C26.758 22.1577 26.7821 22.2065 26.8157 22.2484C26.8487 22.2889 26.8904 22.3215 26.9375 22.3436C26.9847 22.3657 27.0362 22.3769 27.0882 22.3763H30.3145V23.0405H25.7557V3.43255H35.5764L35.5846 23.0419Z" fill="#31414B"/>
</svg>
