<svg width="132" height="140" viewBox="0 0 132 140" fill="none" xmlns="http://www.w3.org/2000/svg">
<g clip-path="url(#clip0_204_495)">
<path d="M127.498 125.104H112.5C112.103 125.104 111.723 124.947 111.442 124.669C111.161 124.39 111.003 124.012 111.003 123.618V34.2569C111.002 33.9925 111.072 33.7325 111.205 33.5038C111.339 33.2751 111.531 33.0858 111.763 32.9556C111.995 32.8253 112.257 32.7588 112.523 32.7629C112.79 32.7669 113.05 32.8414 113.277 32.9787L128.278 41.9148C128.5 42.0469 128.684 42.2342 128.812 42.4583C128.94 42.6824 129.007 42.9355 129.006 43.193V123.615C129.007 123.812 128.968 124.006 128.892 124.187C128.816 124.369 128.705 124.533 128.565 124.672C128.425 124.81 128.258 124.92 128.075 124.994C127.892 125.068 127.696 125.106 127.498 125.104ZM113.997 122.132H126.001V44.0364L114 36.8875L113.997 122.132Z" fill="white"/>
<path d="M76.4996 41.703C76.1026 41.703 75.7219 41.5464 75.4411 41.2677C75.1604 40.9889 75.0027 40.6109 75.0027 40.2167V1.4912C75.0014 1.21008 75.0804 0.934355 75.2306 0.696038C75.3808 0.457721 75.596 0.266587 75.8512 0.14482C76.1064 0.0230537 76.3912 -0.0243503 76.6724 0.00811113C76.9537 0.0405726 77.2199 0.151568 77.4402 0.328213L92.438 12.243C92.614 12.3823 92.7561 12.5592 92.8537 12.7606C92.9513 12.9619 93.0019 13.1825 93.0018 13.406V37.7322C93.0026 38.084 92.8777 38.4247 92.6493 38.6937C92.4209 38.9627 92.1038 39.1425 91.7544 39.2011L76.7553 41.6782C76.671 41.6937 76.5854 41.702 76.4996 41.703ZM77.9965 4.5888V38.4555L89.9955 36.4739V14.1219L77.9965 4.5888Z" fill="white"/>
<path d="M40.4988 125.104H16.4996C16.1026 125.104 15.7219 124.947 15.4411 124.669C15.1604 124.39 15.0027 124.012 15.0027 123.618V34.2569C15.002 34.0161 15.0603 33.7787 15.1724 33.5652C15.2846 33.3517 15.4474 33.1685 15.6467 33.0313C15.846 32.8941 16.0759 32.807 16.3166 32.7776C16.5573 32.7481 16.8016 32.7772 17.0285 32.8623L41.029 41.7984C41.3147 41.9044 41.561 42.0945 41.7348 42.3433C41.9087 42.5921 42.0019 42.8877 42.002 43.1905V123.615C42.0023 123.811 41.9636 124.005 41.8881 124.186C41.8127 124.367 41.7019 124.532 41.5622 124.67C41.4225 124.808 41.2566 124.918 41.0741 124.992C40.8916 125.067 40.6961 125.105 40.4988 125.104ZM17.9978 122.132H38.9982V44.2272L17.9978 36.4058V122.132Z" fill="white"/>
<path d="M16.4998 125.104H4.50204C4.10503 125.104 3.72429 124.947 3.44356 124.669C3.16284 124.39 3.00513 124.012 3.00513 123.618V43.1905C3.00508 42.9594 3.05928 42.7316 3.16344 42.525C3.26759 42.3183 3.41883 42.1387 3.60514 42.0002L15.6041 33.0642C15.8267 32.8973 16.0919 32.7955 16.3697 32.7703C16.6475 32.7451 16.9269 32.7974 17.1763 32.9214C17.4257 33.0454 17.6353 33.2362 17.7813 33.4722C17.9274 33.7081 18.0041 33.9799 18.0029 34.2569V123.615C18.0032 123.811 17.9646 124.005 17.8891 124.186C17.8136 124.367 17.7029 124.532 17.5632 124.67C17.4235 124.808 17.2576 124.918 17.0751 124.992C16.8926 125.067 16.6971 125.105 16.4998 125.104ZM5.99895 122.132H14.9991V37.2343L5.99895 43.9373V122.132Z" fill="white"/>
<path d="M52.4991 125.104H40.4989C40.1019 125.104 39.7211 124.947 39.4404 124.669C39.1597 124.39 39.002 124.012 39.002 123.618V17.7743C39.0011 17.4873 39.0836 17.2062 39.2396 16.9645C39.3955 16.7229 39.6184 16.531 39.8814 16.412L75.8808 0.128816C76.1092 0.0248506 76.3604 -0.0203352 76.6111 -0.00257909C76.8617 0.0151771 77.1038 0.0953058 77.3151 0.230419C77.5264 0.365532 77.7 0.55128 77.8199 0.770539C77.9399 0.989798 78.0023 1.23551 78.0014 1.48502V108.717C78.0014 109.111 77.8437 109.489 77.563 109.768C77.2823 110.047 76.9015 110.203 76.5045 110.203H53.9985V123.607C54 123.803 53.9623 123.998 53.8875 124.179C53.8128 124.361 53.7026 124.526 53.5632 124.666C53.4238 124.805 53.2579 124.915 53.0753 124.991C52.8927 125.066 52.6968 125.104 52.4991 125.104ZM41.9983 122.132H50.9984V108.723C50.9984 108.329 51.1561 107.951 51.4369 107.672C51.7176 107.393 52.0983 107.237 52.4953 107.237H74.9964V3.80729L41.9983 18.733V122.132Z" fill="white"/>
<path d="M112.5 125.104H100.501C100.104 125.104 99.7236 124.947 99.4428 124.669C99.1621 124.39 99.0044 124.012 99.0044 123.618V110.212H76.4996C76.1026 110.212 75.7218 110.055 75.4411 109.776C75.1604 109.498 75.0027 109.12 75.0027 108.726V40.213C75.0019 39.8612 75.1268 39.5205 75.3552 39.2515C75.5836 38.9826 75.9007 38.8028 76.2501 38.7441L112.25 32.7867C112.465 32.7506 112.685 32.7616 112.895 32.8189C113.106 32.8763 113.301 32.9785 113.467 33.1185C113.633 33.2586 113.767 33.433 113.858 33.6296C113.95 33.8263 113.997 34.0403 113.996 34.2569V123.615C113.996 123.811 113.958 124.004 113.883 124.185C113.808 124.365 113.698 124.529 113.559 124.667C113.42 124.806 113.255 124.915 113.073 124.99C112.892 125.065 112.697 125.104 112.5 125.104ZM101.999 122.132H111V36.0144L78.0002 41.4751V107.233H100.501C100.898 107.233 101.279 107.39 101.56 107.668C101.841 107.947 101.998 108.325 101.998 108.719L101.999 122.132Z" fill="white"/>
<path d="M100.501 140H52.4991C52.1021 140 51.7214 139.843 51.4406 139.565C51.1599 139.286 51.0022 138.908 51.0022 138.514V108.727C51.0022 108.333 51.1599 107.955 51.4406 107.676C51.7214 107.397 52.1021 107.241 52.4991 107.241H100.501C100.898 107.241 101.279 107.397 101.56 107.676C101.84 107.955 101.998 108.333 101.998 108.727V138.514C101.998 138.908 101.84 139.286 101.56 139.565C101.279 139.843 100.898 140 100.501 140ZM53.9998 137.02H99.0006V110.212H53.9998V137.02Z" fill="white"/>
<path d="M130.499 140H1.49821C1.10021 140 0.718515 139.843 0.437089 139.564C0.155662 139.284 -0.00244141 138.905 -0.00244141 138.51C-0.00244141 138.115 0.155662 137.736 0.437089 137.456C0.718515 137.177 1.10021 137.02 1.49821 137.02H130.499C130.897 137.02 131.279 137.177 131.561 137.456C131.842 137.736 132 138.115 132 138.51C132 138.905 131.842 139.284 131.561 139.564C131.279 139.843 130.897 140 130.499 140Z" fill="white"/>
<path d="M55.998 34.7523H49.0012V21.8467H55.998V34.7523ZM49.9992 33.7615H55.0001V22.8375H49.9992V33.7615Z" fill="white"/>
<path d="M65.0021 34.7523H57.999V21.8467H65.0021V34.7523ZM59.0007 33.7615H64.0041V22.8375H58.997L59.0007 33.7615Z" fill="white"/>
<path d="M55.998 49.6445H49.0012V36.7389H55.998V49.6445ZM49.9992 48.6537H55.0001V37.7298H49.9992V48.6537Z" fill="white"/>
<path d="M65.0021 49.6445H57.999V36.7389H65.0021V49.6445ZM59.0007 48.6537H64.0041V37.7298H58.997L59.0007 48.6537Z" fill="white"/>
<path d="M55.998 64.5392H49.0012V51.6336H55.998V64.5392ZM49.9992 63.5484H55.0001V52.6245H49.9992V63.5484Z" fill="white"/>
<path d="M65.0021 64.5392H57.999V51.6336H65.0021V64.5392ZM59.0007 63.5484H64.0041V52.6245H58.997L59.0007 63.5484Z" fill="white"/>
<path d="M55.998 79.4315H49.0012V66.5321H55.998V79.4315ZM49.9992 78.4407H55.0001V67.5229H49.9992V78.4407Z" fill="white"/>
<path d="M31.9978 64.5392H24.9998V51.6336H31.9978V64.5392ZM25.9977 63.5484H30.9999V52.6245H25.9977V63.5484Z" fill="white"/>
<path d="M31.9978 79.4315H24.9998V66.5321H31.9978V79.4315ZM25.9977 78.4407H30.9999V67.5229H25.9977V78.4407Z" fill="white"/>
<path d="M31.9978 94.3238H24.9998V81.4194H31.9978V94.3238ZM25.9977 93.3329H30.9999V82.4102H25.9977V93.3329Z" fill="white"/>
<path d="M31.9978 109.218H24.9998V96.3129H31.9978V109.218ZM25.9977 108.228H30.9999V97.3037H25.9977V108.228Z" fill="white"/>
<path d="M65.0021 79.4315H57.999V66.5321H65.0021V79.4315ZM59.0007 78.4407H64.0041V67.5229H58.997L59.0007 78.4407Z" fill="white"/>
<path d="M88.9975 55.6032H82.0007V45.6762H88.9975V55.6032ZM82.9987 54.6123H87.9996V46.6671H82.9987V54.6123Z" fill="white"/>
<path d="M97.999 55.6032H91.001V45.6762H97.999V55.6032ZM91.9989 54.6123H97.0011V46.6671H91.9989V54.6123Z" fill="white"/>
<path d="M106.999 55.6032H100.002V45.6762H106.999V55.6032ZM101 54.6123H106.001V46.6671H101V54.6123Z" fill="white"/>
<path d="M88.9975 67.5229H82.0007V57.5898H88.9975V67.5229ZM82.9987 66.5321H87.9996V58.5806H82.9987V66.5321Z" fill="white"/>
<path d="M97.999 67.5229H91.001V57.5898H97.999V67.5229ZM91.9989 66.5321H97.0011V58.5806H91.9989V66.5321Z" fill="white"/>
<path d="M106.999 67.5229H100.002V57.5898H106.999V67.5229ZM101 66.5321H106.001V58.5806H101V66.5321Z" fill="white"/>
<path d="M88.9975 79.4315H82.0007V69.5046H88.9975V79.4315ZM82.9987 78.4407H87.9996V70.4954H82.9987V78.4407Z" fill="white"/>
<path d="M97.999 79.4315H91.001V69.5046H97.999V79.4315ZM91.9989 78.4407H97.0011V70.4954H91.9989V78.4407Z" fill="white"/>
<path d="M106.999 79.4315H100.002V69.5046H106.999V79.4315ZM101 78.4407H106.001V70.4954H101V78.4407Z" fill="white"/>
<path d="M88.9975 91.3463H82.0007V81.4194H88.9975V91.3463ZM82.9987 90.3555H87.9996V82.4102H82.9987V90.3555Z" fill="white"/>
<path d="M97.999 91.3463H91.001V81.4194H97.999V91.3463ZM91.9989 90.3555H97.0011V82.4102H91.9989V90.3555Z" fill="white"/>
<path d="M88.9975 103.26H82.0007V93.3329H88.9975V103.26ZM82.9987 102.269H87.9996V94.3238H82.9987V102.269Z" fill="white"/>
<path d="M55.998 94.3238H49.0012V81.4194H55.998V94.3238ZM49.9992 93.3329H55.0001V82.4102H49.9992V93.3329Z" fill="white"/>
<path d="M91.9988 121.133H61.0002V114.186H91.9988V121.133ZM61.9982 120.142H91.0008V115.177H61.9982V120.142Z" fill="white"/>
<path d="M91.9988 130.069H61.0002V123.12H91.9988V130.069ZM61.9982 129.079H91.0008V124.111H61.9982V129.079Z" fill="white"/>
<path d="M52.4992 140H10.4984C10.1014 140 9.72062 139.843 9.4399 139.565C9.15917 139.286 9.00146 138.908 9.00146 138.514V123.618C9.00146 123.224 9.15917 122.846 9.4399 122.567C9.72062 122.288 10.1014 122.132 10.4984 122.132H52.4992C52.8962 122.132 53.2769 122.288 53.5576 122.567C53.8384 122.846 53.9961 123.224 53.9961 123.618V138.51C53.9966 138.706 53.9582 138.899 53.8832 139.08C53.8082 139.261 53.698 139.425 53.559 139.563C53.4199 139.702 53.2547 139.812 53.0729 139.887C52.891 139.961 52.6961 140 52.4992 140ZM11.999 137.02H50.9985V125.104H11.999V137.02Z" fill="white"/>
<path d="M115.5 140C115.103 140 114.723 139.843 114.442 139.565C114.161 139.286 114.003 138.908 114.003 138.514V123.618C114.003 123.223 114.162 122.844 114.443 122.564C114.724 122.285 115.106 122.128 115.504 122.128C115.902 122.128 116.284 122.285 116.565 122.564C116.847 122.844 117.005 123.223 117.005 123.618V138.51C117.005 138.706 116.967 138.9 116.891 139.082C116.816 139.263 116.705 139.427 116.565 139.566C116.425 139.704 116.259 139.814 116.076 139.889C115.894 139.963 115.698 140.001 115.5 140Z" fill="white"/>
</g>
<defs>
<clipPath id="clip0_204_495">
<rect width="132" height="140" fill="white"/>
</clipPath>
</defs>
</svg>
