<svg id="Layer_1" data-name="Layer 1" xmlns="http://www.w3.org/2000/svg" viewBox="0 0 422.08 310.73"><defs><style>.cls-1{fill:#31414b;}</style></defs><path class="cls-1" d="M223.5,377.4H85.67a27.95,27.95,0,0,1-27.91-27.91,4.42,4.42,0,0,1,.21-1.77,4.24,4.24,0,0,1,.9-1.55,4.34,4.34,0,0,1,6.4,0,4.24,4.24,0,0,1,.9,1.55,4.42,4.42,0,0,1,.21,1.77,19.12,19.12,0,0,0,19.14,19.14h138a19.14,19.14,0,0,0,19.14-19.14,4.31,4.31,0,0,1,1.11-3.32,4.29,4.29,0,0,1,1.45-1,4.3,4.3,0,0,1,5.85,2.59,4.25,4.25,0,0,1,.2,1.77A27.95,27.95,0,0,1,223.5,377.4Z" transform="translate(-38.96 -92.14)"/><path class="cls-1" d="M252.4,245.89a4.35,4.35,0,0,1-4.32-4.32c0-37-42.12-67-93.69-67-49.77,0-90.35,27.76-93.49,62.71H228.63a4.33,4.33,0,1,1,0,8.65H56.35A4.37,4.37,0,0,1,52,241.57c0-20.49,10.83-39.63,30.63-53.95a122.57,122.57,0,0,1,71.94-21.86,122.57,122.57,0,0,1,71.82,21.75C246.09,201.83,257,221,257,241.45a4.45,4.45,0,0,1-.34,1.76,4.38,4.38,0,0,1-4.3,2.68Z" transform="translate(-38.96 -92.14)"/><path class="cls-1" d="M188,323.92a4.33,4.33,0,0,1-1.77-.38,4.27,4.27,0,0,1-1.45-1.08c-20.79-23.24-44.06-35-69.26-35H69.59a8.69,8.69,0,0,0-3.5,16.86,8.88,8.88,0,0,0,3.5.49h71.75a4.33,4.33,0,0,1,0,8.65H69.4a17.35,17.35,0,1,1,0-34.46h45.94c26.23,0,50.39,11.49,71.94,33.88,12.18-17.72,26.15-33.88,46.9-33.88h5.4a17.35,17.35,0,1,1,0,34.46H197.46c-2,2.68-3.82,5.55-5.93,8.57a4.33,4.33,0,0,1-1.43,1.33,4.56,4.56,0,0,1-1.86.59Zm16.27-19.14h35.49a8.85,8.85,0,0,0,3.5-.49,8.73,8.73,0,0,0,5-4.73,8.65,8.65,0,0,0,0-6.91,8.54,8.54,0,0,0-2-2.89,8.68,8.68,0,0,0-6.51-2.33h-5.4c-11.41,0-20.75,6.36-30,17.35Z" transform="translate(-38.96 -92.14)"/><path class="cls-1" d="M113.12,267.37H68.06a4.33,4.33,0,0,1,0-8.65h45.06a4.33,4.33,0,0,1,0,8.65Z" transform="translate(-38.96 -92.14)"/><path class="cls-1" d="M240.73,267.37H138.47a4.33,4.33,0,0,1,0-8.65H240.73a4.33,4.33,0,0,1,0,8.65Z" transform="translate(-38.96 -92.14)"/><path class="cls-1" d="M97.16,210.21a7,7,0,0,0-6.51,4.36,7,7,0,0,0,1.54,7.68,7.1,7.1,0,0,0,3.62,1.92,7.08,7.08,0,0,0,7.86-9.64,7.2,7.2,0,0,0-1.53-2.28,7,7,0,0,0-5-2Z" transform="translate(-38.96 -92.14)"/><path class="cls-1" d="M120.13,188.81a7,7,0,1,0,2.65,13.56,7.06,7.06,0,0,0,4.36-6.51,7.05,7.05,0,0,0-7-7.05Z" transform="translate(-38.96 -92.14)"/><path class="cls-1" d="M147.46,203.09a6.94,6.94,0,0,0-3.86,1.24,7,7,0,0,0-.93,10.76,7,7,0,0,0,3.58,1.89,7,7,0,0,0,7.16-3,7,7,0,0,0,1.18-3.88,7.13,7.13,0,0,0-.56-2.7,7,7,0,0,0-6.57-4.31Z" transform="translate(-38.96 -92.14)"/><path class="cls-1" d="M216.49,210.21a7,7,0,1,0,5,2A7.07,7.07,0,0,0,216.49,210.21Z" transform="translate(-38.96 -92.14)"/><path class="cls-1" d="M198.8,350.41A35.69,35.69,0,0,1,173.73,340a26.78,26.78,0,0,0-38.29,0,35.65,35.65,0,0,1-50.27,0,26.77,26.77,0,0,0-38.28,0A4.32,4.32,0,0,1,43.67,342a4.34,4.34,0,0,1-3.5-1.31,4.33,4.33,0,0,1-1-1.64A4.34,4.34,0,0,1,41,334a35.65,35.65,0,0,1,50.27,0,26.82,26.82,0,0,0,38.29,0,35.66,35.66,0,0,1,50.3,0,26.81,26.81,0,0,0,38.29,0,35.65,35.65,0,0,1,50.27,0,4.51,4.51,0,0,1,1.06,1.39,4.35,4.35,0,0,1,.42,1.7,4.25,4.25,0,0,1-.28,1.73,4.63,4.63,0,0,1-.95,1.48,4.34,4.34,0,0,1-1.46,1,4.41,4.41,0,0,1-1.72.32,4.23,4.23,0,0,1-1.71-.39,4.27,4.27,0,0,1-1.41-1,26.81,26.81,0,0,0-38.29,0,35.51,35.51,0,0,1-25.31,10.3Z" transform="translate(-38.96 -92.14)"/><path class="cls-1" d="M434.68,402.86H334a5,5,0,0,1-3.37-1.29,5,5,0,0,1-1.61-3.23L317.1,273.11A5.2,5.2,0,0,1,317,271a5.06,5.06,0,0,1,.84-2,4.91,4.91,0,0,1,1.59-1.45,5,5,0,0,1,6,.83,5,5,0,0,1,1.41,4L338.35,393h91.89l13.89-136.86H308.87a5,5,0,0,1-2.12-.47,4.91,4.91,0,0,1-1.7-1.33,5,5,0,0,1-1-2,5.15,5.15,0,0,1,0-2.21l6.7-33.34a5,5,0,0,1,4.86-4H453.21a5,5,0,0,1,3.17,1.13,5.13,5.13,0,0,1,1.73,2.89L460.94,231a5,5,0,0,1-.74,3.74,5,5,0,0,1-1.37,1.37,5,5,0,0,1-5.53,0,5.14,5.14,0,0,1-1.38-1.37,5,5,0,0,1-.74-1.8l-2.07-10.14H319.67L315,246.16H449.57a4.92,4.92,0,0,1,3.83,1.65,4.9,4.9,0,0,1,1.05,1.77,4.78,4.78,0,0,1,.21,2.06L439.77,398.46a5,5,0,0,1-5.09,4.4Z" transform="translate(-38.96 -92.14)"/><path class="cls-1" d="M441.72,222.92a4.92,4.92,0,0,1-4.78-3.6l-6.05-21H334.14a5,5,0,0,1,0-10H434.45a5,5,0,0,1,3,1,5,5,0,0,1,1.81,2.6l7.05,24.58a5,5,0,0,1-.43,3.8,5,5,0,0,1-3,2.4A5.37,5.37,0,0,1,441.72,222.92Z" transform="translate(-38.96 -92.14)"/><path class="cls-1" d="M439.65,353.93H355.43a5,5,0,0,1,0-9.95h84.22a5,5,0,1,1,0,9.95Z" transform="translate(-38.96 -92.14)"/><path class="cls-1" d="M382.38,198.19a5.07,5.07,0,0,1-5-4.4l-8.61-72.74-33.58-19.61a4.8,4.8,0,0,1-1.45-1.28,5,5,0,0,1-.86-1.75,4.88,4.88,0,0,1-.12-1.94,5,5,0,0,1,.63-1.84,4.91,4.91,0,0,1,1.29-1.47,4.93,4.93,0,0,1,3.69-1,5.19,5.19,0,0,1,1.84.65L376,113.66a5.07,5.07,0,0,1,1.67,1.62,5.15,5.15,0,0,1,.78,2.21l8.88,75.11a5,5,0,0,1-.15,2,4.73,4.73,0,0,1-.88,1.73,5,5,0,0,1-3.33,1.87Z" transform="translate(-38.96 -92.14)"/></svg>