<svg width="40" height="30" viewBox="0 0 40 30" fill="none" xmlns="http://www.w3.org/2000/svg">
<path d="M39.5378 29.5524H0.027832V29.9973H39.5378V29.5524Z" fill="#31414B"/>
<path d="M39.5381 29.9974L36.2645 28.5593C36.2165 28.3896 36.1686 28.2202 36.1206 28.0511L39.5381 29.5524" fill="#31414B"/>
<path d="M21.19 8.52066V7.13252C21.1899 6.94118 21.123 6.75591 21.001 6.60888C20.879 6.46186 20.7095 6.36238 20.5219 6.32771V0H20.2264V6.32771C20.0385 6.36197 19.8685 6.46127 19.7461 6.60833C19.6237 6.7554 19.5565 6.94089 19.5564 7.13252V8.52066C18.8401 8.70288 18.2048 9.11954 17.751 9.70473C17.2972 10.2899 17.0508 11.0103 17.0508 11.7518H23.6936C23.6937 11.0105 23.4475 10.2904 22.9941 9.70523C22.5407 9.12007 21.9059 8.70325 21.19 8.52066Z" fill="#31414B"/>
<path d="M20.3449 12.8626C20.6108 12.8626 20.8682 12.769 21.0724 12.5981C21.2766 12.4272 21.4145 12.1897 21.4622 11.9272H19.2271C19.2748 12.1898 19.4128 12.4272 19.6171 12.5981C19.8214 12.769 20.0789 12.8626 20.3449 12.8626Z" fill="#31414B"/>
<path d="M2.01221 22.1816V27.3382H10.7773V22.1816H2.01221ZM10.2522 26.8107H2.53736V22.7076H10.2522V26.8107Z" fill="#31414B"/>
<path d="M7.70236 24.115H5.08691V24.7478H7.70236V24.115Z" fill="#31414B"/>
<path d="M6.65748 19.1725H6.13232V21.797H6.65748V19.1725Z" fill="#31414B"/>
<path d="M3.53418 29.0091L4.07067 26.8335L4.66677 27.0391L3.75685 29.0862L3.53418 29.0091Z" fill="#31414B"/>
<path d="M9.03247 29.0862L8.12256 27.0391L8.71866 26.8335L9.25515 29.0091L9.03247 29.0862Z" fill="#31414B"/>
<path d="M8.11543 21.4208H4.67432V22.4451H8.11543V21.4208Z" fill="#31414B"/>
<path d="M7.47347 16.8693H5.31667L4.40381 19.5596H8.38633L7.47347 16.8693ZM5.13785 19.0326L5.69355 17.3968H7.09758L7.6523 19.0326H5.13785Z" fill="#31414B"/>
<path d="M37.6581 19.6693V19.657C37.596 19.2224 37.4236 18.9357 37.1462 18.8047C36.8689 18.6737 36.5551 18.7469 36.3511 18.8269C36.2981 18.7651 36.2344 18.7136 36.1629 18.6747C35.825 18.4868 35.2939 18.5264 34.5825 18.7993C34.4873 18.7044 34.368 18.6375 34.2377 18.6055C33.7244 18.4705 33.0263 18.7923 32.6942 18.9708C32.5278 18.8701 32.3439 18.8015 32.1523 18.7686C31.8075 18.7083 31.2872 18.7454 30.7399 19.2481C30.1704 19.1493 29.7196 19.2111 29.3984 19.4315C29.2635 19.5227 29.1529 19.6455 29.0763 19.7895C28.7368 19.7133 28.4388 19.7504 28.1895 19.9027C28.0154 20.0128 27.8792 20.174 27.7993 20.3644C27.7008 20.5992 27.7008 20.8053 27.8087 20.9952C27.8535 21.0743 27.8979 21.1573 27.9397 21.2424C28.0181 21.4001 28.0944 21.5691 28.1723 21.7609C28.303 22.0874 28.4172 22.4204 28.5142 22.7585C28.5841 23.0018 28.6427 23.2287 28.693 23.4506C28.6999 23.4813 28.7063 23.5109 28.7132 23.5421C28.6683 23.7295 28.6729 23.9255 28.7265 24.1106C28.7282 24.117 28.7303 24.1233 28.7329 24.1294C28.8161 24.4112 28.9413 24.728 29.3379 24.9747L28.0299 28.8974L27.9432 29.1574C27.9244 29.211 27.9274 29.2699 27.9514 29.3213C27.9755 29.3727 28.0187 29.4126 28.0718 29.4323C28.0949 29.4402 28.1192 29.4442 28.1437 29.4442C28.1865 29.4436 28.2282 29.4302 28.2633 29.4056C28.2985 29.381 28.3254 29.3464 28.3407 29.3062L28.5018 28.8974L29.9803 25.1527C30.2103 25.212 30.6128 25.3074 31.373 25.3766L31.2143 28.1944C31.2091 28.2507 31.2263 28.3068 31.2621 28.3504C31.2979 28.394 31.3494 28.4216 31.4055 28.4273C31.4127 28.4278 31.4199 28.4278 31.4272 28.4273C31.48 28.4278 31.5312 28.4083 31.5705 28.3728C31.6098 28.3373 31.6344 28.2883 31.6395 28.2355L31.9646 25.4093C32.211 25.4261 32.408 25.4369 32.6829 25.4404L32.9292 28.8954L32.9736 29.5282H33.4199L33.3874 28.8954L33.209 25.4399C33.6376 25.4335 34.0047 25.4093 34.5633 25.3504L35.8442 28.8954L35.9348 29.1471C35.9481 29.1874 35.973 29.2229 36.0063 29.249C36.0397 29.2751 36.08 29.2907 36.1222 29.2939C36.1644 29.297 36.2066 29.2875 36.2434 29.2665C36.2802 29.2456 36.31 29.2142 36.329 29.1762C36.3543 29.1263 36.3589 29.0684 36.3418 29.0151L36.3058 28.8954L35.2116 25.2263C35.4309 25.0904 35.9422 24.7023 36.2314 23.8916C36.3272 23.6148 36.4392 23.3439 36.5669 23.0804C36.9117 22.3789 37.5157 21.008 37.6576 19.7059V19.6822C37.6586 19.6807 37.6586 19.6748 37.6581 19.6693ZM34.6559 19.2298C35.4708 18.906 35.8161 18.9753 35.9491 19.0459C35.9597 19.0515 35.97 19.0577 35.9797 19.0647C35.1983 19.7568 34.7155 20.7861 34.4451 21.5434C34.2842 21.995 34.1559 22.4576 34.0613 22.9276L33.9574 22.9148C33.7933 20.8518 34.5047 19.4933 34.6559 19.2298ZM32.4523 19.3223C32.3257 20.1775 32.2927 22.0793 32.2848 22.8188C32.0439 22.8109 31.7779 22.8035 31.4794 22.7971C31.535 21.3378 31.1715 19.9506 31.0532 19.5433C31.6799 18.9842 32.2272 19.1918 32.4523 19.3223ZM29.06 23.1258C28.9314 22.6028 28.6521 21.62 28.1979 20.8088C28.1772 20.7725 28.1663 20.7315 28.1664 20.6897C28.1662 20.6631 28.1705 20.6367 28.1792 20.6116C28.2208 20.4712 28.3073 20.3485 28.4255 20.2625C28.5213 20.2033 28.6323 20.1736 28.7447 20.177C28.8534 20.1789 28.9612 20.1955 29.0654 20.2265C29.2241 20.5107 29.933 21.8242 30.0216 22.8001C29.7738 22.8342 29.3669 22.9187 29.06 23.1258ZM29.1324 23.6414C29.3295 23.3448 29.9428 23.2272 30.2487 23.2074H30.3015C30.4374 23.2074 30.7985 23.2124 31.2532 23.2208C31.6887 23.2292 32.1021 23.24 32.4849 23.2539L33.7411 23.3246C33.8244 23.332 33.9017 23.3399 33.9697 23.3488C33.9204 23.5564 33.8756 23.7725 33.8357 23.9944C33.1751 24.0068 30.1867 24.0508 29.1157 23.8718C29.1073 23.7946 29.113 23.7166 29.1324 23.6414ZM36.8985 21.1484C36.7636 21.563 36.6072 21.9703 36.4299 22.3685C36.3649 22.5168 36.2925 22.6616 36.2235 22.804C36.1797 22.8935 36.1353 22.983 36.0935 23.0724C36.027 23.2133 35.9723 23.3592 35.9196 23.5001C35.8811 23.6024 35.8417 23.7077 35.7994 23.808C35.7277 23.9749 35.6359 24.1323 35.5259 24.2767C35.3637 24.4901 35.1651 24.6728 34.9392 24.8165C34.8983 24.8427 34.8599 24.866 34.821 24.8867C34.8127 24.8912 34.8046 24.8962 34.7968 24.9016L34.7816 24.9105C34.1805 24.977 33.5763 25.0115 32.9716 25.0138H32.8928C31.0946 25.0108 29.934 24.7083 29.8039 24.6727C29.6296 24.5883 29.4717 24.4733 29.3379 24.3331C30.7296 24.4878 33.6672 24.4275 34.0219 24.4191C34.0715 24.4179 34.1191 24.3995 34.1566 24.3669C34.1941 24.3343 34.2191 24.2897 34.2273 24.2406C34.6466 21.7575 35.5082 20.709 36.1526 20.266C36.4623 20.0472 36.826 19.9177 37.2039 19.8918C37.1359 20.3182 37.0338 20.7385 36.8985 21.1484Z" fill="#31414B"/>
<path d="M26.7949 23.9118C26.7949 23.9059 26.7949 23.9005 26.7949 23.895C26.7949 23.7616 26.6505 23.6973 26.2037 23.6335C25.883 23.5871 25.4248 23.546 24.842 23.5099C23.841 23.4496 22.5631 23.4111 21.1807 23.4002L21.1314 23.6261C23.9572 23.6464 25.8115 23.7744 26.4027 23.895C25.7593 24.0236 23.6247 24.1664 20.3733 24.1664C17.1218 24.1664 14.9872 24.0236 14.3438 23.895C14.935 23.7769 16.7913 23.6479 19.6151 23.6261L19.5658 23.4002C18.1864 23.4111 16.9055 23.4496 15.904 23.5099C15.3212 23.546 14.8635 23.5871 14.5428 23.6335C14.094 23.6983 13.9517 23.7616 13.9517 23.895C13.9517 23.9005 13.9517 23.9059 13.9517 23.9118C13.9549 23.9657 13.9549 24.0197 13.9517 24.0735V24.0765C13.9517 24.2094 14.0955 24.2742 14.5428 24.3375C14.8635 24.384 15.3212 24.426 15.904 24.4611C16.4868 24.4962 17.176 24.5248 17.9199 24.5446V28.7614C17.9199 28.9365 18.0677 29.0823 18.314 29.1985C18.7756 29.4179 19.5806 29.5307 20.3792 29.5307C21.1777 29.5307 21.9827 29.4179 22.4443 29.1985C22.6907 29.0823 22.8384 28.9365 22.8384 28.7614V24.5441C23.5774 24.5253 24.2573 24.4977 24.842 24.4616C25.4268 24.4255 25.883 24.3845 26.2032 24.338C26.652 24.2737 26.7944 24.2099 26.7944 24.077C26.7915 24.022 26.7917 23.9668 26.7949 23.9118ZM22.5089 28.7565C22.4719 28.886 21.7261 29.1881 20.4427 29.197H20.3201C19.0357 29.1881 18.2894 28.886 18.251 28.76V24.5505C18.2633 24.5505 18.2766 24.5505 18.2899 24.5505L18.4869 24.554H18.5815C18.6416 24.554 18.7027 24.557 18.7638 24.5575H18.8623C19.0761 24.5604 19.2934 24.5634 19.5141 24.5649C19.7969 24.5675 20.0833 24.5687 20.3733 24.5684C20.6633 24.568 20.9511 24.5669 21.2369 24.5649C21.5206 24.5649 21.8 24.5595 22.0744 24.554H22.2108H22.3458L22.5079 24.5505L22.5089 28.7565Z" fill="#31414B"/>
<path d="M21.2822 21.4396H20.7053C20.7334 21.384 20.7654 21.3305 20.8009 21.2794C21.1571 20.8958 21.3689 19.9269 21.3689 19.9264C21.3553 19.9651 21.3376 20.0022 21.3162 20.0371L21.2719 20.1296C21.2497 20.1755 21.227 20.2215 21.2039 20.267C21.1807 20.3125 21.1546 20.3584 21.132 20.4049C21.0985 20.4712 21.0743 20.5453 21.0428 20.6135C21.0053 20.681 20.9603 20.744 20.9088 20.8014C20.8403 20.8933 20.7773 20.9887 20.7117 21.0832C20.6738 21.138 20.6369 21.1949 20.594 21.2463C20.8994 20.8661 21.2201 19.5922 21.2201 19.5922C21.0916 19.6911 20.9423 20.175 20.9329 20.2052C20.9822 20.0104 21.0655 19.2659 21.0655 19.2659C20.8585 19.525 20.6152 20.3614 20.6152 20.3614C20.6226 19.9842 20.5787 19.2293 20.5787 19.2293C20.4679 19.4142 20.3496 19.9323 20.3496 19.9323C20.3354 19.5175 20.2541 19.3623 20.2541 19.3623C20.2329 19.4676 20.128 20.051 20.128 20.051C20.1206 19.9916 20.0398 19.9106 20.0398 19.9106C20.0028 19.9773 19.9807 20.4212 19.9807 20.4212C19.8772 20.2438 19.8698 19.696 19.855 19.6219C19.8374 19.5515 19.8153 19.4823 19.789 19.4147C19.7225 19.5037 19.7299 20.4138 19.7299 20.4138C19.6634 20.2655 19.4052 19.7252 19.4052 19.7252C19.3905 19.8512 19.5974 20.5023 19.6782 20.7099C19.7731 20.92 19.879 21.125 19.9954 21.3239L20.0087 21.4159C19.9674 21.3671 19.9212 21.3227 19.8708 21.2834C19.79 21.2241 19.7383 21.054 19.7013 20.9947C19.6576 20.9038 19.6207 20.8098 19.591 20.7134C19.5614 20.6318 19.5023 20.484 19.4727 20.4618C19.4432 20.4395 19.4062 20.4766 19.4506 20.5582C19.4949 20.6397 19.5984 20.8765 19.6718 21.0688C19.7333 21.2295 19.888 21.3911 19.9373 21.4396H19.4649C19.4003 21.4396 19.3511 21.4757 19.3599 21.5162L19.8738 23.8115C19.8811 23.8446 19.923 23.8688 19.9782 23.8688H20.7664C20.8191 23.8688 20.8649 23.8446 20.8709 23.8115L21.3847 21.5162C21.396 21.4757 21.3468 21.4396 21.2822 21.4396Z" fill="#31414B"/>
<path d="M0.027832 29.9973L3.59949 28.4282L3.71428 27.9329L0.027832 29.5524V29.9973Z" fill="#31414B"/>
<path d="M4.50762 27.5844L4.25391 28.1405L5.91461 27.4109L4.93572 27.3965L4.50762 27.5844Z" fill="#31414B"/>
<path d="M17.7892 25.2021H10.8804V25.647H17.7892V25.2021Z" fill="#31414B"/>
<path d="M22.9263 25.2021V25.647H28.9538L29.1139 25.2021H22.9263Z" fill="#31414B"/>
<path d="M30.0029 25.3638L29.8413 25.7375L31.2069 26.3377L31.2508 25.912L30.0029 25.3638Z" fill="#31414B"/>
<path d="M31.9311 26.2106L31.8853 26.6357L32.7183 27.0016L32.6937 26.5458L31.9311 26.2106Z" fill="#31414B"/>
<path d="M33.3789 26.8468L33.4119 27.3061L35.5111 28.2281L35.3357 27.7065L33.3789 26.8468Z" fill="#31414B"/>
</svg>
