<svg width="22" height="28" viewBox="0 0 22 28" fill="none" xmlns="http://www.w3.org/2000/svg">
<path d="M15.4537 28C15.4509 28 15.4481 27.9999 15.4453 27.9999H0.724942C0.610028 27.9999 0.500502 27.9519 0.423983 27.868C0.347329 27.784 0.310686 27.6721 0.323214 27.5601L2.83799 5.19634C2.86048 4.99543 3.0336 4.84352 3.23971 4.84352H6.7681V3.26935C6.7681 1.46665 8.26387 0 10.1024 0C10.409 0 10.7062 0.0408173 10.9884 0.117168C11.2706 0.0408173 11.5678 0 11.8744 0C13.7129 0 15.2087 1.46665 15.2087 3.26935V4.84352H18.96C19.1699 4.84352 19.3447 5.00084 19.3627 5.20586L21.3192 27.5684C21.3288 27.674 21.2954 27.783 21.2176 27.868C21.1464 27.946 21.0508 27.9898 20.9522 27.9983C20.9522 27.9984 20.9516 27.9984 20.951 27.9984C20.9505 27.9983 20.9502 27.9983 20.9497 27.9985C20.9493 27.9985 20.9489 27.9985 20.9485 27.9985C20.9481 27.9987 20.9478 27.9985 20.9471 27.9987C20.947 27.9988 20.9464 27.9987 20.9459 27.9988C20.9454 27.9987 20.9448 27.9985 20.9446 27.9989C20.944 27.9989 20.944 27.9989 20.9432 27.9989C20.9428 27.9989 20.9428 27.9992 20.9419 27.9991C20.9413 27.9989 20.9412 27.9989 20.9405 27.9991C20.94 27.9992 20.9396 27.9991 20.9392 27.9992C20.9384 27.9991 20.938 27.9993 20.9378 27.9993C20.9373 27.9993 20.9369 27.9993 20.9363 27.9993C20.9358 27.9995 20.9354 27.9995 20.9349 27.9995C20.9347 27.9995 20.9347 27.9995 20.9346 27.9995C20.9277 27.9997 20.9208 27.9999 20.9141 27.9999H15.4616C15.4593 27.9999 15.4566 28 15.4537 28ZM16.1129 27.2073H19.8602L17.2858 24.9448L16.1129 27.2073ZM1.17611 27.2073H15.0791L16.201 12.5321C16.2013 12.5269 16.2017 12.5219 16.2022 12.5168L16.7282 5.63609H13.4365V6.93498C13.4365 7.15386 13.2556 7.33126 13.0323 7.33126C12.8091 7.33126 12.6282 7.15386 12.6282 6.93498V5.63609H7.57627V6.93498C7.57627 7.15386 7.39534 7.33126 7.17212 7.33126C6.94889 7.33126 6.76797 7.15386 6.76797 6.93498V5.63609H3.6017L1.17611 27.2073ZM17.5596 24.121L20.4268 26.6407L18.589 5.63609H17.5388L17.0093 12.5605L17.5596 24.121ZM16.5107 19.0837L16.008 25.6607L16.7551 24.2193L16.5107 19.0837ZM13.4366 4.84352H14.4004V3.26935C14.4004 2.05328 13.5018 1.03906 12.3216 0.831405C13.0054 1.43059 13.4365 2.30149 13.4365 3.26935V4.84352H13.4366ZM9.34861 4.84352H12.6283V3.26935C12.6283 2.20929 11.9454 1.30245 10.9884 0.949762C10.0314 1.30245 9.34861 2.20915 9.34861 3.26935V4.84352ZM7.5764 4.84352H8.54031V3.26935C8.54031 2.30149 8.97141 1.43059 9.65523 0.831405C8.47497 1.03906 7.5764 2.05328 7.5764 3.26935V4.84352Z" fill="#31414B"/>
</svg>
