<svg id="Layer_1" data-name="Layer 1" xmlns="http://www.w3.org/2000/svg" viewBox="0 0 276.73 372"><defs><style>.cls-1{fill:#31414b;}</style></defs><path class="cls-1" d="M313.26,429.48H119.17a5.33,5.33,0,0,1-4-1.75,5.21,5.21,0,0,1-1.32-4.09L147,126.52a5.31,5.31,0,0,1,5.3-4.69H198.8V100.92c0-24,19.71-43.44,43.94-43.44A44.55,44.55,0,0,1,254.42,59a44.47,44.47,0,0,1,11.67-1.56C290.32,57.48,310,77,310,100.92v20.91h49.44a5.3,5.3,0,0,1,5.3,4.82l25.78,297.1a5.21,5.21,0,0,1-1.33,4,5.3,5.3,0,0,1-3.5,1.73h-.09s0,0,0,0H313.26ZM322,419h49.38L337.4,388.89Zm-196.84,0H308.32l14.79-195c0-.07,0-.13,0-.2l6.93-91.42H286.68v17.26a5.33,5.33,0,0,1-10.65,0V132.36H209.45v17.26a5.33,5.33,0,0,1-10.65,0V132.36H157.08ZM341,378l37.78,33.48L354.58,132.36H340.74l-7,92ZM327.19,311l-6.63,87.38,9.85-19.16Zm-40.51-189.2h12.7V100.92A33.07,33.07,0,0,0,272,68.53a43.13,43.13,0,0,1,14.69,32.39v20.91Zm-53.87,0H276V100.92A33,33,0,0,0,254.42,70.1a33,33,0,0,0-21.61,30.82Zm-23.35,0h12.7V100.92a43.13,43.13,0,0,1,14.69-32.39,33.07,33.07,0,0,0-27.39,32.39Z" transform="translate(-113.84 -57.48)"/></svg>