<svg id="Layer_1" data-name="Layer 1" xmlns="http://www.w3.org/2000/svg" viewBox="0 0 419 419"><defs><style>.cls-1{fill:#fff;}.cls-2{fill:#31414b;fill-rule:evenodd;}</style></defs><path class="cls-1" d="M312.55,34H184.88A145.66,145.66,0,0,0,39.22,179.67V307.33A145.66,145.66,0,0,0,184.88,453H312.55A145.67,145.67,0,0,0,458.22,307.33V179.67A145.67,145.67,0,0,0,312.55,34Z" transform="translate(-39.22 -34)"/><path class="cls-2" d="M249.43,126.77c-63.68,0-115.28,48.09-115.28,107.41,0,33.82,16.75,64,43,83.64v40.95l39.25-21.68a122.86,122.86,0,0,0,33.07,4.51c63.67,0,115.29-48.09,115.29-107.42S313.1,126.77,249.43,126.77Zm11.46,144.64-29.36-31.5-57.29,31.5,63-67.3,30.08,31.5,56.57-31.5Z" transform="translate(-39.22 -34)"/></svg>