<svg width="58" height="52" viewBox="0 0 58 52" fill="none" xmlns="http://www.w3.org/2000/svg">
<path d="M56.359 46.7861C56.4741 46.7916 56.5891 46.7743 56.6975 46.7352C56.806 46.6962 56.9056 46.6362 56.9908 46.5586C57.076 46.481 57.145 46.3873 57.1939 46.283C57.2428 46.1787 57.2708 46.0658 57.276 45.9506V42.6292C57.2708 42.5141 57.2428 42.4012 57.1939 42.2968C57.145 42.1925 57.076 42.0989 56.9908 42.0213C56.9056 41.9437 56.806 41.8837 56.6975 41.8446C56.5891 41.8056 56.4741 41.7883 56.359 41.7938H53.5674V40.1229H54.5047C54.6198 40.1283 54.7348 40.1111 54.8433 40.0721C54.9517 40.033 55.0513 39.973 55.1365 39.8954C55.2217 39.8178 55.2907 39.7241 55.3396 39.6198C55.3885 39.5155 55.4165 39.4026 55.4217 39.2875V32.6242C55.4165 32.5091 55.3885 32.3962 55.3396 32.2919C55.2907 32.1875 55.2217 32.0939 55.1365 32.0163C55.0513 31.9387 54.9517 31.8787 54.8433 31.8396C54.7348 31.8006 54.6198 31.7833 54.5047 31.7888H46.1706V25.146H48.9418C49.1873 25.1433 49.4245 25.057 49.6143 24.9014L50.5313 24.066C51.1871 24.3563 51.9264 24.3963 52.6097 24.1785C53.293 23.9608 53.8729 23.5003 54.2398 22.8841C54.393 22.5837 54.4807 22.2541 54.4971 21.9173C54.5135 21.5805 54.4582 21.244 54.335 20.9301C54.2117 20.6161 54.0233 20.332 53.7821 20.0963C53.5409 19.8606 53.2524 19.6787 52.9357 19.5627C52.283 19.2662 51.5437 19.2207 50.8595 19.4349C50.1753 19.6492 49.5941 20.1083 49.2271 20.7242C49.047 21.0557 48.9527 21.4269 48.9527 21.8042C48.9527 22.1814 49.047 22.5527 49.2271 22.8841L48.5751 23.4751H46.1706V20.1333H47.1895C47.3807 20.149 47.572 20.1044 47.7365 20.0057C47.9009 19.907 48.0304 19.7592 48.1065 19.5831L49.9607 14.5705C50.0017 14.4475 50.012 14.3163 49.9907 14.1885C49.9693 14.0606 49.9171 13.9399 49.8384 13.8369L46.1299 9.65966C45.9616 9.48923 45.7386 9.38353 45.5001 9.36117C45.2616 9.33881 45.0228 9.40123 44.8258 9.5374L44.6831 9.65966L40.9949 13.8369C40.9094 13.9362 40.8514 14.0561 40.8263 14.1847C40.8013 14.3134 40.8103 14.4463 40.8523 14.5705L42.7066 19.5831C42.7712 19.7381 42.878 19.8719 43.0149 19.9692C43.1518 20.0664 43.3133 20.1233 43.4809 20.1333H44.4183V23.4751H42.0138L41.3618 22.8841C41.5151 22.5822 41.6029 22.2513 41.6194 21.913C41.636 21.5747 41.5809 21.2368 41.4578 20.9213C41.3347 20.6058 41.1463 20.3199 40.905 20.0823C40.6637 19.8447 40.375 19.6607 40.0576 19.5424C39.4018 19.2522 38.6624 19.2121 37.9791 19.4298C37.2959 19.6476 36.716 20.1081 36.349 20.7242C36.1959 21.0247 36.1082 21.3542 36.0918 21.6911C36.0754 22.0279 36.1306 22.3644 36.2539 22.6783C36.3771 22.9922 36.5656 23.2764 36.8068 23.5121C37.048 23.7478 37.3365 23.9297 37.6532 24.0456C38.0334 24.207 38.4423 24.2902 38.8554 24.2902C39.2685 24.2902 39.6773 24.207 40.0576 24.0456L40.9746 24.8811C41.1571 25.0384 41.3861 25.1315 41.6266 25.146H44.4183V31.7888H34.3521C35.4936 29.7613 36.0902 27.4727 36.0841 25.146C36.1331 21.6636 34.798 18.3042 32.3719 15.8055C29.9458 13.3068 26.6272 11.8732 23.1449 11.8196C19.908 11.817 16.7934 13.057 14.444 15.2837L11.1226 0.816157C11.1018 0.585557 10.9927 0.371917 10.818 0.219991C10.6432 0.0680635 10.4165 -0.0103576 10.1853 0.00109966C9.95617 -0.0101095 9.73183 0.068962 9.56039 0.221359C9.38894 0.373755 9.2841 0.58731 9.26837 0.816157L0.0173051 40.7953C-0.00852463 40.9171 -0.00540805 41.0433 0.0264463 41.1636C0.0583006 41.2839 0.117994 41.3951 0.200688 41.4881C0.403726 41.6826 0.673486 41.7919 0.954618 41.7938H9.26837V50.1075H0.0173051V51.7784H57.3778V50.1075H55.3402V46.7861H56.359ZM51.7335 20.9687C51.8486 20.9633 51.9636 20.9806 52.072 21.0196C52.1805 21.0586 52.2801 21.1187 52.3652 21.1963C52.4504 21.2739 52.5195 21.3675 52.5684 21.4718C52.6173 21.5761 52.6452 21.6891 52.6504 21.8042C52.6452 21.9193 52.6173 22.0322 52.5684 22.1366C52.5195 22.2409 52.4504 22.3345 52.3652 22.4121C52.2801 22.4897 52.1805 22.5497 52.072 22.5888C51.9636 22.6278 51.8486 22.6451 51.7335 22.6396C51.499 22.6508 51.2695 22.5696 51.0942 22.4134C50.9189 22.2572 50.8119 22.0384 50.7961 21.8042C50.8119 21.5699 50.9189 21.3512 51.0942 21.195C51.2695 21.0388 51.499 20.9575 51.7335 20.9687ZM45.2537 11.4732L47.0265 13.5108H43.4809L45.2537 11.4732ZM42.8492 15.141H47.6582L46.4355 18.4828H44.0718L42.8492 15.141ZM37.8569 21.8042C37.8622 21.6891 37.89 21.5761 37.939 21.4718C37.9879 21.3675 38.057 21.2739 38.1421 21.1963C38.2273 21.1187 38.3269 21.0586 38.4353 21.0196C38.5437 20.9806 38.6588 20.9633 38.7739 20.9687C39.0084 20.9575 39.2379 21.0388 39.4132 21.195C39.5885 21.3512 39.6954 21.5699 39.7112 21.8042C39.6954 22.0384 39.5885 22.2572 39.4132 22.4134C39.2379 22.5696 39.0084 22.6508 38.7739 22.6396C38.6588 22.6451 38.5437 22.6278 38.4353 22.5888C38.3269 22.5497 38.2273 22.4897 38.1421 22.4121C38.057 22.3345 37.9879 22.2409 37.939 22.1366C37.89 22.0322 37.8622 21.9193 37.8569 21.8042ZM55.3402 45.0541H27.6889V43.3832H55.3402V45.0541ZM23.8989 38.3909C25.171 38.3075 26.4224 38.0256 27.6074 37.5554V39.2263C27.6127 39.3414 27.6405 39.4543 27.6895 39.5587C27.7384 39.663 27.8075 39.7567 27.8926 39.8343C27.9778 39.9119 28.0774 39.9719 28.1858 40.0109C28.2942 40.05 28.4093 40.0672 28.5244 40.0617H29.4413V41.7326H26.8127C26.6976 41.7272 26.5826 41.7445 26.4742 41.7835C26.3658 41.8226 26.2661 41.8826 26.1809 41.9602C26.0957 42.0378 26.0268 42.1314 25.9778 42.2357C25.9289 42.34 25.901 42.453 25.8957 42.5681V45.8895C25.901 46.0046 25.9289 46.1176 25.9778 46.2219C26.0268 46.3262 26.0957 46.4198 26.1809 46.4974C26.2661 46.575 26.3658 46.6351 26.4742 46.6741C26.5826 46.7131 26.6976 46.7304 26.8127 46.725H27.75V50.0464H24.0415L23.8989 38.3909ZM46.0891 41.7326V40.0617H47.9434V41.7326H46.0891ZM44.2552 41.7326H35.0042V40.0617H44.2552V41.7326ZM33.1499 41.7326H31.2956V40.0617H33.1499V41.7326ZM29.4413 46.725H31.2956V50.0464H29.4413V46.725ZM33.1499 46.725H44.2552V50.0464H33.1499V46.725ZM46.0891 46.725H49.7977V50.0464H46.1706L46.0891 46.725ZM51.652 41.7326H49.7977V40.0617H51.652V41.7326ZM53.4859 38.3909H29.4413V33.3986H53.4859V38.3909ZM22.9208 13.409C25.9367 13.4943 28.7961 14.7707 30.8734 16.9587C32.9507 19.1468 34.077 22.0686 34.0057 25.0849C34.0074 27.4533 33.2975 29.7676 31.968 31.7277H28.4225C28.3074 31.7222 28.1924 31.7395 28.084 31.7785C27.9756 31.8176 27.8759 31.8776 27.7907 31.9552C27.7055 32.0328 27.6365 32.1264 27.5876 32.2307C27.5387 32.335 27.5108 32.448 27.5055 32.5631V35.6604C26.3386 36.2147 25.0833 36.5596 23.7969 36.6792V28.7527L27.2406 25.6758L25.9161 24.4939L23.8785 26.389V23.414H22.0242V30.5662L20.8423 29.4862L19.5179 30.6681L22.0242 32.9095V36.6792C21.0082 36.5966 20.0114 36.356 19.0696 35.966L14.7293 17.2805C15.756 16.0754 17.0341 15.1097 18.4739 14.4514C19.9137 13.7931 21.4803 13.4581 23.0634 13.4701L22.9208 13.409ZM1.8512 40.0617L10.0019 5.01376L18.1526 40.0617H10.98V30.4032L13.4863 28.1617L12.1618 26.9799L10.98 28.0599V24.2494H9.12572V33.0521L7.08804 31.1368L5.7839 32.3186L9.20718 35.4158V40.0617H1.8512ZM10.8985 41.7326H19.2122C19.4875 41.732 19.7514 41.622 19.9458 41.427C20.0246 41.3316 20.0818 41.2203 20.1135 41.1007C20.1451 40.9811 20.1505 40.8561 20.1291 40.7342L19.4771 37.9018C20.2935 38.1431 21.134 38.2935 21.9834 38.3501V50.0464H10.8985V41.7326ZM53.4248 50.0464H51.5909V46.725H53.4248V50.0464Z" fill="#2EB04A"/>
</svg>
