<svg width="30" height="26" viewBox="0 0 30 26" fill="none" xmlns="http://www.w3.org/2000/svg">
<path fill-rule="evenodd" clip-rule="evenodd" d="M7.32356 17.7823L14.029 15.8411C15.6728 15.4011 17.2631 16.0222 17.7442 17.682L17.8611 18.0993L17.4368 18.2352L13.6782 19.442L17.3533 20.2735L20.5406 17.8631C21.8536 16.8246 23.591 16.8181 24.6935 18.1446L24.9875 18.5037L24.6133 18.7852L17.4635 24.1979H5.53946L4.84788 26L0.320801 24.3823L3.40789 16.3781L7.32356 17.7952V17.7823ZM29.3208 14.1069H0.805247V13.1913H2.67287C3.00725 10.6544 4.16378 8.28546 5.97618 6.42517C7.78857 4.56488 10.1635 3.30906 12.7594 2.83825C12.7099 2.65666 12.6852 2.46958 12.6859 2.28178C12.6881 1.95777 12.7611 1.63789 12.9001 1.34314C13.039 1.04839 13.2408 0.785435 13.4921 0.571556C13.7435 0.357677 14.0387 0.197708 14.3584 0.102157C14.6781 0.00660622 15.0151 -0.0223685 15.3472 0.0171417C15.6793 0.056652 15.999 0.163752 16.2854 0.331404C16.5717 0.499056 16.8181 0.72347 17.0085 0.989904C17.1989 1.25634 17.329 1.55877 17.3901 1.87732C17.4513 2.19588 17.4421 2.52336 17.3633 2.83825C19.9584 3.31014 22.3323 4.56638 24.1439 6.42653C25.9556 8.28668 27.1118 10.655 27.4465 13.1913H29.3141V14.1069H29.3208ZM3.63843 13.1913H26.501C26.1196 10.5179 24.7519 8.06846 22.6507 6.2955C20.5495 4.52254 17.8567 3.54585 15.0697 3.54585C12.2827 3.54585 9.58992 4.52254 7.4887 6.2955C5.38749 8.06846 4.01985 10.5179 3.63843 13.1913ZM13.7116 2.7056C14.6143 2.61071 15.5251 2.61071 16.4278 2.7056L16.4479 2.64737C16.4792 2.52789 16.495 2.40506 16.4946 2.28178C16.504 2.09495 16.4741 1.90823 16.4067 1.73294C16.3393 1.55764 16.2358 1.39743 16.1026 1.262C15.9693 1.12658 15.8091 1.01877 15.6316 0.945103C15.454 0.871438 15.2629 0.833454 15.0697 0.833454C14.8766 0.833454 14.6854 0.871438 14.5079 0.945103C14.3303 1.01877 14.1701 1.12658 14.0368 1.262C13.9036 1.39743 13.8001 1.55764 13.7327 1.73294C13.6653 1.90823 13.6354 2.09495 13.6448 2.28178C13.6438 2.4053 13.6607 2.52835 13.6949 2.64737C13.6934 2.66676 13.6934 2.68622 13.6949 2.7056H13.7116ZM7.69776 18.6299L5.89695 23.2953H17.1595L23.6377 18.3905C22.8392 17.7823 21.8904 18.0378 21.142 18.5911L17.5972 21.2732L11.9642 20.0049L9.83935 20.6843L9.54534 19.8173L16.6817 17.5267C16.2173 16.6628 15.2017 16.4849 14.2929 16.7308L7.69776 18.6299ZM6.72552 18.5393L3.96585 17.5396L1.54027 23.8323L4.29995 24.8288L6.72552 18.5393Z" fill="#31414B"/>
</svg>
