<svg id="Layer_1" data-name="Layer 1" xmlns="http://www.w3.org/2000/svg" xmlns:xlink="http://www.w3.org/1999/xlink" viewBox="0 0 414.34 380.68"><defs><style>.cls-1{fill:none;}.cls-2{clip-path:url(#clip-path);}.cls-3{fill:#31414b;fill-rule:evenodd;}</style><clipPath id="clip-path" transform="translate(-42.83 -59.72)"><rect class="cls-1" x="42.83" y="59.5" width="414.34" height="381"/></clipPath></defs><g class="cls-2"><path class="cls-3" d="M142.88,320.08l95.81-28.42c23.48-6.44,46.2,2.66,53.08,27l1.67,6.11-6.06,2-53.71,17.67,52.51,12.17,45.54-35.29c18.76-15.21,43.58-15.3,59.34,4.12l4.2,5.26-5.35,4.12L287.76,414H117.39l-9.88,26.39L42.83,416.72,86.94,299.53l55.94,20.74Zm314.29-53.81H49.75v-13.4H76.44a176.43,176.43,0,0,1,47.19-99.07,178.77,178.77,0,0,1,96.92-52.52,31.16,31.16,0,0,1-1.05-8.15,33.53,33.53,0,0,1,11.52-25,34.1,34.1,0,0,1,39.9-3.51,33.5,33.5,0,0,1,15.41,36.7,178.79,178.79,0,0,1,96.87,52.54,176.44,176.44,0,0,1,47.19,99.05h26.68v13.4ZM90.23,252.87H416.88a163.26,163.26,0,0,0-55-101,165.83,165.83,0,0,0-216.63,0A163.26,163.26,0,0,0,90.23,252.87ZM234.15,99.34a181.12,181.12,0,0,1,38.81,0l.29-.85a21.5,21.5,0,0,0,.66-5.36,20.09,20.09,0,0,0-5.6-14.93,20.42,20.42,0,0,0-33.86,6.9,20,20,0,0,0-1.25,8,19.45,19.45,0,0,0,.71,5.36,6,6,0,0,0,0,.85ZM148.23,332.5,122.5,400.8H283.41L376,329c-11.41-8.91-25-5.16-35.66,2.94L289.67,371.2l-80.48-18.57-30.36,9.95-4.2-12.7,102-33.54c-6.64-12.65-21.15-15.25-34.13-11.65Zm-13.89-1.33L94.91,316.53,60.25,408.67l39.43,14.59Z" transform="translate(-42.83 -59.72)"/></g></svg>