<svg width="36" height="30" viewBox="0 0 36 30" fill="none" xmlns="http://www.w3.org/2000/svg">
<path d="M34.5971 0.0491142L29.8458 2.02053C29.785 2.0455 29.7297 2.08229 29.6832 2.12877C29.6368 2.17524 29.6 2.23047 29.575 2.29127L28.4601 4.97502H0.819835C0.737654 4.97502 0.656745 4.9953 0.584277 5.03404C0.511809 5.07278 0.450021 5.1288 0.40439 5.19713C0.359095 5.26568 0.331229 5.34426 0.32321 5.42602C0.315191 5.50779 0.327262 5.59028 0.358375 5.66632L6.56771 20.6491C6.60543 20.7404 6.66941 20.8185 6.75155 20.8735C6.8337 20.9285 6.93031 20.9578 7.02917 20.9579H22.3783L25.3758 23.9545H9.07353C8.37955 23.9483 7.70458 24.181 7.16189 24.6134C6.6192 25.0458 6.24183 25.6517 6.09312 26.3294C5.9444 27.0071 6.03339 27.7152 6.34515 28.3351C6.65691 28.9549 7.17246 29.4487 7.80528 29.7335C8.4381 30.0183 9.14966 30.0769 9.82055 29.8993C10.4914 29.7218 11.0808 29.3189 11.4898 28.7584C11.8987 28.1979 12.1023 27.5138 12.0665 26.8209C12.0306 26.1281 11.7574 25.4686 11.2927 24.9533H23.3328C22.942 25.3838 22.685 25.9185 22.5929 26.4925C22.5008 27.0664 22.5777 27.6548 22.8142 28.1858C23.0507 28.7168 23.4366 29.1676 23.9249 29.4833C24.4131 29.7989 24.9827 29.9658 25.5642 29.9635C26.1456 29.9613 26.7139 29.79 27.1997 29.4706C27.6855 29.1512 28.0679 28.6974 28.3003 28.1646C28.5327 27.6318 28.605 27.0429 28.5085 26.4696C28.412 25.8964 28.1508 25.3636 27.7567 24.9362L27.7633 24.9283L23.175 20.3415L30.419 2.86166L34.9797 0.973049C35.0448 0.951293 35.1046 0.916377 35.1556 0.870476C35.2066 0.824575 35.2475 0.768673 35.2759 0.706254C35.3044 0.643835 35.3196 0.576235 35.3207 0.507668C35.3219 0.439101 35.3089 0.371035 35.2825 0.307713C35.2562 0.24439 35.2171 0.187167 35.1677 0.139609C35.1182 0.0920514 35.0596 0.0551784 34.9953 0.0312875C34.931 0.00739672 34.8624 -0.00299987 34.7939 0.000745434C34.7254 0.00449074 34.6584 0.0222978 34.5971 0.0530569V0.0491142ZM22.2521 19.9564H19.3098L20.0986 15.961H23.9112L22.2521 19.9564ZM3.63724 10.9681H8.52004L9.30886 14.9622H5.29376L3.63724 10.9681ZM9.53893 10.9681H14.3139V14.9622H10.3343L9.53893 10.9681ZM15.3065 9.96926V5.97386H21.0702L20.2814 9.96926H15.3065ZM20.0763 10.9681L19.2809 14.9622H15.3065V10.9681H20.0763ZM14.3139 9.96926H9.34041L8.55159 5.97386H14.3139V9.96926ZM14.3139 15.961V19.9564H11.3282L10.5328 15.961H14.3139ZM15.3131 15.961H19.0889L18.2922 19.9564H15.3065L15.3131 15.961ZM20.309 14.9622L21.1044 10.9681H25.9858L24.3306 14.9622H20.309ZM21.3029 9.96794L22.0917 5.97255H28.0499L26.3934 9.96794H21.3029ZM7.52612 5.97386L8.31494 9.96926H3.22311L1.5679 5.97386H7.52612ZM5.70789 15.9623H9.51395L10.3093 19.9577H7.3631L5.70789 15.9623ZM10.4803 25.5368C10.8076 25.8637 11.0113 26.294 11.0569 26.7543C11.1024 27.2145 10.9869 27.6764 10.73 28.061C10.473 28.4457 10.0906 28.7294 9.64794 28.8638C9.20522 28.9982 8.72959 28.9749 8.3021 28.798C7.87461 28.6211 7.52171 28.3015 7.30354 27.8936C7.08537 27.4857 7.01544 27.0149 7.10565 26.5612C7.19587 26.1076 7.44065 25.6992 7.79829 25.4058C8.15592 25.1124 8.60428 24.952 9.06695 24.952C9.32939 24.9512 9.58938 25.0024 9.83194 25.1026C10.0745 25.2027 10.2948 25.3499 10.4803 25.5355V25.5368ZM26.9653 28.3612C26.6873 28.6406 26.3329 28.8316 25.9466 28.9103C25.5603 28.9889 25.1594 28.9516 24.7942 28.8031C24.429 28.6547 24.1159 28.4016 23.8942 28.0757C23.6725 27.7499 23.552 27.3658 23.548 26.9717C23.544 26.5777 23.6566 26.1912 23.8717 25.8609C24.0867 25.5306 24.3947 25.2713 24.7567 25.1154C25.1188 24.9596 25.5189 24.9142 25.9067 24.9849C26.2945 25.0557 26.6527 25.2395 26.9364 25.5132L26.9876 25.5644C27.3524 25.94 27.5546 26.444 27.5504 26.9674C27.5462 27.4908 27.336 27.9916 26.9653 28.3612Z" fill="#31414B"/>
</svg>
