<svg id="Layer_1" data-name="Layer 1" xmlns="http://www.w3.org/2000/svg" xmlns:xlink="http://www.w3.org/1999/xlink" viewBox="0 0 400.36 341.19"><defs><style>.cls-1{fill:none;}.cls-2{clip-path:url(#clip-path);}.cls-3{fill:#2bb018;}</style><clipPath id="clip-path" transform="translate(-50.01 -79.66)"><rect class="cls-1" x="50" y="79.79" width="400" height="340.43"/></clipPath></defs><g class="cls-2"><path class="cls-3" d="M442.09,80.22l-54.35,22.42a5.69,5.69,0,0,0-1.86,1.23,5.79,5.79,0,0,0-1.24,1.85l-12.75,30.52H55.71a5.68,5.68,0,0,0-5.27,7.87l71,170.4a5.82,5.82,0,0,0,2.11,2.55,5.76,5.76,0,0,0,3.17,1H302.32l34.29,34.08H150.13a34.72,34.72,0,0,0-21.87,7.49,34.29,34.29,0,0,0,7.36,58.23,34.71,34.71,0,0,0,42.15-11.09,34.22,34.22,0,0,0-2.26-43.27H313.24A34,34,0,0,0,320,415a34.46,34.46,0,0,0,37.46-.15,33.95,33.95,0,0,0,6.37-51.57l.08-.09L311.43,311l82.87-198.8,52.17-21.48a5.9,5.9,0,0,0,2-1.17,5.75,5.75,0,0,0,1.89-4.12,5.71,5.71,0,0,0-8.28-5.17ZM300.88,306.63H267.22l9-45.44h43.61ZM87.94,204.4H143.8l9,45.43H106.89Zm67.51,0h54.62v45.43H164.55Zm66-11.36V147.6h65.93l-9,45.44ZM276,204.4l-9.1,45.43H221.43V204.4ZM210.07,193H153.18l-9-45.44h65.91Zm0,68.15v45.44H175.92l-9.1-45.44Zm11.43,0h43.19l-9.11,45.44H221.43Zm57.15-11.36,9.1-45.43h55.84l-18.94,45.43ZM290,193l9-45.44H367.2L348.25,193ZM132.43,147.6l9,45.44H83.21L64.27,147.6Zm-20.8,113.6h43.54l9.09,45.44h-33.7Zm54.59,108.89a22.86,22.86,0,1,1-7.42-4.93,22.78,22.78,0,0,1,7.42,4.93Zm188.57,32.13A23,23,0,0,1,319.66,399a22.68,22.68,0,0,1,9.87-33.67,23,23,0,0,1,24.93,4.53l.59.58a22.56,22.56,0,0,1-.26,31.81Z" transform="translate(-50.01 -79.66)"/></g></svg>