<svg id="Layer_1" data-name="Layer 1" xmlns="http://www.w3.org/2000/svg" viewBox="0 0 414 414"><defs><style>.cls-1{fill:#fff;}.cls-2{fill:#31414b;fill-rule:evenodd;}</style></defs><path class="cls-1" d="M312.07,41H185.93A143.93,143.93,0,0,0,42,184.93V311.07A143.93,143.93,0,0,0,185.93,455H312.07A143.93,143.93,0,0,0,456,311.07V184.93A143.93,143.93,0,0,0,312.07,41Z" transform="translate(-42 -41)"/><path class="cls-2" d="M347.52,175.75c-.59,8.36-5.37,37.63-10.16,69.29l-14.93,93.82s-1.2,13.75-11.34,16.13-26.89-8.37-29.94-10.74c-2.4-1.8-44.82-28.69-60.35-41.92-4.17-3.58-8.94-10.74.6-19.11,21.52-19.72,47.19-44.19,62.72-59.72,7.17-7.19,14.34-24-15.53-3.6l-84.2,56.8s-9.54,6-27.47.58-38.82-12.54-38.82-12.54-14.34-9,10.16-18.51l139.16-57.35c13.75-6,60.32-25.09,60.32-25.09S349.32,155.44,347.52,175.75Z" transform="translate(-42 -41)"/></svg>