<svg width="33" height="33" viewBox="0 0 33 33" fill="none" xmlns="http://www.w3.org/2000/svg">
<g clip-path="url(#clip0_419_56)">
<path d="M28.3233 31.3515H19.388C19.0169 31.3515 18.7159 31.0506 18.7159 30.6794V24.0147H14.2844V30.6794C14.2844 31.0506 13.9835 31.3515 13.6123 31.3515H4.67694C4.30579 31.3515 4.00488 31.0506 4.00488 30.6794V14.0931C4.00488 13.8573 4.1284 13.6387 4.33044 13.5172L16.1537 6.40205C16.3668 6.27382 16.6336 6.27382 16.8468 6.40205L28.6699 13.5172C28.8719 13.6387 28.9954 13.8573 28.9954 14.0931V30.6795C28.9954 31.0506 28.6944 31.3515 28.3233 31.3515ZM20.0601 30.0074H27.6512V14.473L16.5002 7.76239L5.34906 14.473V30.0074H12.9402V23.3426C12.9402 22.9715 13.2411 22.6706 13.6123 22.6706H19.3879C19.7592 22.6706 20.0601 22.9716 20.0601 23.3426V30.0074H20.0601Z" fill="#31414B"/>
<path d="M32.3271 12.5178C32.2092 12.5178 32.0898 12.4866 31.9813 12.4214L16.5 3.10488L1.01873 12.4214C0.70065 12.6127 0.287679 12.5102 0.0963459 12.1921C-0.095054 11.874 0.00758268 11.4611 0.325662 11.2697L16.1535 1.74461C16.3666 1.61638 16.6334 1.61638 16.8465 1.74461L32.6743 11.2697C32.9924 11.4611 33.0951 11.8741 32.9037 12.1921C32.7775 12.4017 32.5551 12.5178 32.3271 12.5178Z" fill="#31414B"/>
</g>
<defs>
<clipPath id="clip0_419_56">
<rect width="33" height="33" fill="white"/>
</clipPath>
</defs>
</svg>
